<svg fill="none" height="41" viewbox="0 0 81 41" width="81"><g><path d="M8.40202 25.866L11.507 22.654L7.64702 17.445L2.73202 10.491C0.937798 13.5523 -0.0054291 17.0376 2.35068e-05 20.586C2.35068e-05 26.686 2.73202 32.148 7.04002 35.816L13.279 31.408C11.1444 30.0801 9.44809 28.1529 8.40202 25.867V25.866ZM14.72 8.98796L17.932 12.093L23.141 8.23296L30.095 3.31796C27.0337 1.52374 23.5484 0.580508 20 0.585961C13.9 0.585961 8.43802 3.31796 4.77002 7.62596L9.17802 13.865C10.5058 11.7302 12.433 10.034 14.719 8.98796H14.72ZM28.493 18.518L32.353 23.727L37.268 30.681C39.0622 27.6196 40.0055 24.1343 40 20.586C40 14.486 37.268 9.02396 32.96 5.35596L26.72 9.76396C28.8547 11.0918 30.551 13.019 31.597 15.305L28.492 18.518H28.493ZM35.23 33.546L30.822 27.307C29.4942 29.4417 27.567 31.1379 25.281 32.184L22.068 29.079L16.859 32.939L9.90502 37.854C12.9663 39.6482 16.4517 40.5914 20 40.586C26.1 40.586 31.562 37.854 35.23 33.546Z" fill="currentColor"></path><path clip-rule="evenodd" d="M51.7266 20.2749C51.7266 13.8039 54.4306 10.5859 58.6386 10.5859C62.8286 10.5859 65.5856 13.8559 65.5856 20.2749C65.5856 26.6929 62.8276 29.9459 58.6386 29.9459C54.4486 29.9459 51.7266 26.6929 51.7266 20.2749ZM58.6206 12.6849C55.5806 12.6849 54.0776 15.4999 54.0776 20.2919C54.0776 22.5479 54.4136 24.2969 55.0496 25.5739L61.0246 13.4889C60.3346 12.9469 59.5396 12.6849 58.6206 12.6849ZM56.2696 27.1129C56.9416 27.6199 57.7196 27.8829 58.6386 27.8829C61.6786 27.8829 63.2166 25.0489 63.2166 20.2929C63.2166 18.0889 62.8986 16.3569 62.2446 15.0459L56.2696 27.1129ZM80.6466 16.1829L76.7936 22.6529L81.0006 29.6129H78.4196L75.0426 23.9829H74.0886L70.6416 29.6129H68.1316L72.3556 22.7409L68.5556 16.1819H70.9956L74.1056 21.5159H75.0786L78.2606 16.1819H80.6466V16.1829Z" fill="currentColor" fill-rule="evenodd"></path></g></svg>