<svg xmlns="http://www.w3.org/2000/svg fill="none" height="24" viewbox="0 0 1100 220" width="110" xmlns="http://www.w3.org/2000/svg"><path d="M478.8 203.2L404.1 21.9001C403.5 20.2001 403.2 18.5001 403.2 16.8001C403.1 13.1001 404.4 9.50009 406.9 6.70009C409.5 4.00009 413.1 2.60009 416.8 2.90009C419.6 2.90009 422.3 3.80009 424.5 5.50009C426.9 7.20009 428.7 9.60009 429.8 12.3001L500.9 189.7L572 12.3001C573.1 9.60009 575 7.30009 577.3 5.50009C579.6 3.90009 582.3 3.00009 585.1 2.90009C588.8 2.70009 592.4 4.10009 595 6.70009C597.5 9.50009 598.8 13.1001 598.7 16.8001C598.7 18.6001 598.4 20.3001 597.8 21.9001L523 203.2C518.8 212.6 512.5 217.2 504.3 217.2H497.7C489.3 217.2 483 212.6 478.8 203.2Z" fill="black"></path><path d="M630.3 211.6C627.7 209 626.3 205.5 626.4 201.9V18.3C626.3 14.6 627.7 11.1 630.3 8.40003C632.8 5.70003 636.4 4.30003 640 4.40003H761.4C764.9 4.30003 768.2 5.70003 770.6 8.30003C773.1 10.7 774.5 14 774.4 17.5C774.5 20.9 773.1 24.2 770.6 26.5C768.1 28.9 764.8 30.2 761.4 30.1H654V97H750.6C754.1 96.9 757.4 98.3 759.8 100.9C762.3 103.3 763.7 106.6 763.6 110.1C763.7 113.5 762.3 116.8 759.8 119.1C757.4 121.5 754 122.8 750.6 122.8H654V190H761.4C764.9 189.9 768.2 191.3 770.6 193.9C773.1 196.3 774.5 199.6 774.5 203.1C774.6 206.5 773.2 209.8 770.6 212.1C768.1 214.5 764.8 215.8 761.4 215.8H640.1C636.4 215.8 632.8 214.4 630.3 211.6Z" fill="black"></path><path d="M421 198.1L346.3 16.8C342 7.40005 335.8 2.80005 327.6 2.80005H321C312.7 2.80005 306.5 7.40005 302.3 16.8L269.8 95.8H245.2C237.8 95.8 231.8 101.8 231.8 109.2V109.4C231.8 116.8 237.8 122.8 245.2 122.8H258.4L227.4 198.1C226.8 199.8 226.5 201.5 226.5 203.2C226.4 206.9 227.7 210.5 230.2 213.3C232.8 216 236.4 217.4 240.1 217.2C242.9 217.2 245.6 216.3 247.8 214.6C250.2 212.9 252 210.5 253.1 207.8L287.3 122.8H310.8C318.2 122.7 324.2 116.7 324.2 109.3V109C324.2 101.6 318.2 95.6 310.8 95.6H298.1L324.4 30.4L395.5 207.8C396.6 210.5 398.5 212.9 400.8 214.6C403 216.2 405.7 217.1 408.5 217.2C412.2 217.4 415.8 216 418.4 213.3C420.9 210.5 422.2 206.9 422.1 203.2C422 201.4 421.7 199.7 421 198.1Z" fill="black"></path><path d="M197.7 198.1L122.9 16.8C118.7 7.40005 112.4 2.80005 104.2 2.80005H97.6C89.3 2.80005 83.1 7.40005 78.9 16.8L46.4 95.8H21.7C14.3 95.8 8.30001 101.8 8.30001 109.2V109.4C8.30001 116.8 14.3 122.8 21.7 122.8H35L4.00001 198.1C3.40001 199.7 3.10001 201.4 3.00001 203.2C2.80001 206.9 4.20001 210.5 6.70001 213.3C9.30001 216 12.9 217.4 16.6 217.2C19.4 217.2 22.1 216.3 24.3 214.6C26.7 212.9 28.5 210.5 29.6 207.8L63.8 122.8H87.5C94.9 122.8 100.9 116.8 100.9 109.4V109C100.9 101.6 94.9 95.6 87.5 95.6H74.8L100.9 30.4L172 207.8C173.1 210.5 175 212.8 177.3 214.6C179.5 216.2 182.2 217.1 185 217.2C188.7 217.4 192.3 216 194.9 213.3C197.4 210.5 198.7 206.9 198.6 203.2C198.7 201.4 198.4 199.7 197.7 198.1Z" fill="black"></path><path d="M973.5 74.9C972.7 34.5 939.3 2.49996 899 3.29996C859.8 4.09996 828.2 35.7 827.4 74.9C827.4 75.1 827.4 75.3 827.4 75.5V76.6V208.7C827.6 213.2 831.3 216.7 835.8 216.5C840.1 216.4 843.5 212.9 843.6 208.7V185.1C843.6 180.6 847.2 177 851.7 177C856.2 177 859.8 180.6 859.8 185.1V196.3C859.8 200.8 863.4 204.4 867.9 204.4C872.4 204.4 876 200.8 876 196.3V185.1C876 180.6 879.6 177 884.1 177C888.6 177 892.2 180.6 892.2 185.1V188.2C892.2 192.7 895.8 196.3 900.3 196.3C904.8 196.3 908.4 192.7 908.4 188.2V185.1C908.6 180.6 912.3 177.1 916.8 177.3C921.1 177.4 924.5 180.9 924.6 185.1V196.3C924.6 200.8 928.2 204.4 932.7 204.4C937.2 204.4 940.8 200.8 940.8 196.3V185.1C940.8 180.6 944.4 177 948.9 177C953.4 177 957 180.6 957 185.1V208.7C957 213.2 960.6 216.8 965.1 216.8C969.6 216.8 973.2 213.2 973.2 208.7V75.4C973.5 75.3 973.5 75.1 973.5 74.9ZM873.5 86.6C866.3 86.6 860.5 79.9 860.5 71.7C860.5 63.5 866.3 56.8 873.5 56.8C880.7 56.8 886.5 63.5 886.5 71.7C886.5 79.9 880.7 86.6 873.5 86.6ZM901 107.6C894.5 107.6 889.2 103.7 889.2 98.9C889.2 94.1 894.5 97 901 97C907.5 97 912.8 94.1 912.8 98.9C912.8 103.7 907.5 107.6 901 107.6ZM927.4 86.6C920.2 86.6 914.4 79.9 914.4 71.7C914.4 63.5 920.2 56.8 927.4 56.8C934.6 56.8 940.4 63.5 940.4 71.7C940.4 79.9 934.6 86.6 927.4 86.6Z" fill="black"></path></svg>