<svg xmlns="http://www.w3.org/2000/svg" fill="none" height="19" viewbox="0 0 106 19" width="106"><path d="M83.3656 8.14045V11.2213H73.7043V15.2729H83.7031V18.5859H70.3503C70.3713 15.1252 70.3713 11.6645 70.3713 8.14045H83.3656ZM11.4754 0.628141C11.6653 0.628141 11.7707 0.670345 11.8551 0.860263C14.4498 6.68441 17.0655 12.5086 19.6601 18.3116C19.6812 18.3749 19.7023 18.4382 19.7445 18.5437H18.4155C17.7405 18.5437 17.0866 18.5226 16.4115 18.5437C16.1584 18.5437 16.0318 18.4804 15.9264 18.2272C14.3865 14.7032 12.8466 11.158 11.3067 7.634C10.8426 6.5789 10.3785 5.5027 9.89333 4.3843C9.83005 4.53201 9.78786 4.61642 9.72458 4.72193C7.74169 9.21665 5.7799 13.7114 3.81811 18.2061C3.71264 18.4382 3.60716 18.5226 3.33294 18.5226C2.5876 18.5086 1.85163 18.5133 1.11254 18.5054L0 18.4804C0.0632836 18.3749 0.126567 18.2694 0.189851 18.1639C2.76338 12.4242 5.33692 6.68441 7.91045 0.944671C8.01592 0.712549 8.12139 0.628141 8.39562 0.628141C9.42925 0.649243 10.4629 0.649243 11.4754 0.628141ZM27.1276 0.691447C27.3385 0.691447 27.444 0.754753 27.5495 0.923569C29.2792 3.30809 31.009 5.67152 32.7387 8.05604C32.802 8.14045 32.8653 8.24596 32.9707 8.35147C33.0551 8.24596 33.1184 8.16155 33.1817 8.07715C34.9114 5.69262 36.6412 3.3292 38.3709 0.944671C38.5186 0.754753 38.6452 0.691447 38.8772 0.691447C39.9319 0.712549 41.0078 0.691447 42.0625 0.691447H42.4V18.5437H39.0671V5.71372L39.0038 5.67152C38.9405 5.75593 38.8772 5.84033 38.8139 5.92474C37.0209 8.30927 35.2279 10.6938 33.4348 13.0783C33.1184 13.5004 32.6543 13.5004 32.359 13.0572C30.6293 10.6727 28.8784 8.30927 27.1487 5.92474C27.0854 5.84033 27.0221 5.73482 26.9377 5.65042C26.9166 5.67152 26.8955 5.67152 26.8744 5.69262V18.5437H23.5204V0.712549C23.6048 0.712549 23.7102 0.691447 23.7946 0.691447H27.1276ZM98.7646 0.585938C99.7982 0.585938 100.79 0.796957 101.718 1.2401C103.848 2.23189 105.135 4.3843 105.009 6.76882C104.966 7.52849 104.861 8.26706 104.587 8.96343C103.912 10.6516 102.625 11.6223 100.916 12.0865C100.79 12.1076 100.684 12.1498 100.515 12.192C100.684 12.382 100.811 12.5508 100.958 12.6985C102.562 14.4922 104.144 16.2858 105.747 18.1006C105.831 18.2061 105.895 18.3538 106 18.5226H102.161C102.013 18.5226 101.844 18.4382 101.739 18.3327C100.136 16.4968 98.5325 14.6821 96.9504 12.8251C96.7606 12.6141 96.5707 12.5297 96.2965 12.5297C95.3684 12.5508 94.4191 12.5297 93.4698 12.5297V18.5015C92.3096 18.4804 91.2127 18.4804 90.0736 18.4804V9.44877H90.4533C93.0901 9.44877 95.727 9.46988 98.3849 9.46988C98.849 9.46988 99.3341 9.42767 99.7771 9.30106C101.064 8.92122 101.781 7.69731 101.633 6.19907C101.507 4.93295 100.515 3.92005 99.2076 3.77234C98.9333 3.73013 98.638 3.73013 98.3638 3.73013H90.0947V0.607039C90.158 0.607039 90.2424 0.585938 90.3057 0.585938H98.7646ZM57.5459 0.585938C58.6217 0.585938 59.6764 0.775855 60.6679 1.219C62.3765 1.99977 63.2625 3.3503 63.4312 5.20727C63.6 7.04315 62.9039 8.39368 61.1952 9.21665C61.2374 9.25886 61.2796 9.27996 61.3007 9.30106C63.157 9.95522 64.1063 12.0654 64.0008 13.5637C63.8742 15.6317 62.9672 17.1299 61.0054 17.8896C60.4358 18.1006 59.8241 18.2694 59.2334 18.3538C58.5795 18.4593 57.9045 18.5015 57.2505 18.5015H48.8338V7.88723H49.2135C52.0613 7.84502 54.9091 7.82392 57.7357 7.76061C58.1365 7.73951 58.5584 7.65511 58.9381 7.50739C60.0139 7.10645 60.4147 6.05135 59.9085 5.01736C59.5288 4.23658 58.8326 3.85675 58.0099 3.70903C57.7357 3.66683 57.4404 3.64573 57.1662 3.64573C54.5083 3.62462 51.8714 3.62462 49.2135 3.60352H48.8338V0.607039C48.9182 0.607039 48.9815 0.585938 49.0659 0.585938H57.5459ZM57.3138 10.7571H52.441C52.3355 10.7571 52.2511 10.7782 52.1457 10.7782V15.3362C54.0653 15.3362 55.9216 15.3573 57.799 15.3362C58.4318 15.3362 59.0225 15.1674 59.592 14.872C60.0772 14.6188 60.4358 14.26 60.5835 13.7325C60.8155 12.9306 60.5202 12.1498 59.7819 11.5801C59.0647 11.0314 58.2209 10.7571 57.3138 10.7571ZM83.7242 0.691447V3.92005H70.3713V0.691447H83.7242Z" fill="currentColor"></path></svg>