<?xml version="1.0" encoding="utf-8"?>
<!-- Generator: Adobe Illustrator 19.2.1, SVG Export Plug-In . SVG Version: 6.00 Build 0)  -->
<svg version="1.1" id="Layer_1" xmlns="http://www.w3.org/2000/svg" xmlns:xlink="http://www.w3.org/1999/xlink" x="0px" y="0px"
	 viewBox="0 0 446 128" style="enable-background:new 0 0 446 128;" xml:space="preserve">
<style type="text/css">
	.st0{fill:#FFFFFF;}
</style>
<path class="st0" d="M32,32.7h30.2c6.5,0,11.3,1.6,14.6,4.3c3.6,3,5.4,7,5.4,12c0,6.2-3.2,10.2-8.8,12.3v0.3
	c6.8,2.1,11.2,7.9,11.2,15.3c0,6.3-2.3,10.9-6.4,14c-3.7,2.9-8.8,4.5-15.4,4.5H32V32.7z M59.9,57.5c4.5,0,7.5-2.2,7.5-6.3
	c0-3.9-2.9-6.2-7.4-6.2H47.3v12.5H59.9z M61.2,82.9c5.1,0,8.2-2.9,8.2-7.4c0-5-3.7-7.5-8.4-7.5H47.3v14.9H61.2z M90.6,32.7h14.3
	v11.6H90.6V32.7z M90.6,50.5h14.3v44.8H90.6V50.5z M115.4,83.5V59.4h-6v-8.9h6V36.3h13.9v14.2h8.1v8.9h-8.1v21c0,3.5,1.9,4.4,5,4.4
	c1.2,0,4.8-0.1,5.3-0.1c0,0,0,10.4,0,10.4c-1.2,0.4-6.1,0.7-9.9,0.7C121.4,95.8,115.4,93.1,115.4,83.5z M151,45.8H135V32.7h47.8
	v13.1h-16.3v49.5H151V45.8z M173.2,73c0-13.5,9.6-23.7,24-23.7c14.4,0,23.9,10.2,23.9,23.7s-9.5,23.7-23.9,23.7
	C182.8,96.7,173.2,86.5,173.2,73z M206.6,73c0-8.1-3.3-13.7-9.5-13.7c-6.2,0-9.5,5.5-9.5,13.7s3.2,13.6,9.5,13.6
	C203.3,86.5,206.6,81.1,206.6,73z M226.1,50.5h13.7v7h0.3c3.2-5.3,7.1-7.5,11.2-7.7c1.3-0.1,2.2,0.1,2.8,0.4v12.3h-0.4
	c-7.5-1-13.3,3.1-13.3,12.8v20.1h-14.3V50.5z M258.3,50.5H272v7h0.3c3.2-5.3,7.1-7.5,11.2-7.7c1.3-0.1,2.2,0.1,2.8,0.4v12.3h-0.4
	c-7.5-1-13.3,3.1-13.3,12.8v20.1h-14.3V50.5z M286.7,72.8c0-13.4,9.4-23.6,23-23.6c6.4,0,11.5,2.1,15.3,5.6c5.3,4.9,8,12.7,7.9,21.8
	c-0.1,0-32.2,0-32.2,0c0.9,6,4.2,9.8,10.1,9.8c3.8,0,6.2-1.7,7.4-4.5l13.9,0c-1,4-3.6,7.9-7.5,10.6c-3.8,2.6-8.3,4.1-14,4.1
	C295.8,96.6,286.7,86.4,286.7,72.8z M318.4,68.1c-0.5-5.3-3.9-8.8-8.5-8.8c-5.4,0-8.2,3.4-9.2,8.8L318.4,68.1z M337.8,50.5h13.7v6.1
	h0.3c3.3-4.8,7.6-7.4,13.8-7.4c9.8,0,15.6,7,15.6,17v29.2H367V69c0-4.7-2.4-8-7-8c-4.7,0-7.9,3.9-7.9,9.5v24.8h-14.3V50.5z
	 M390,83.5V59.4h-6v-8.9h6V36.3h13.9v14.2h8.1v8.9h-8.1v21c0,3.5,1.9,4.4,5,4.4c1.2,0,4.8-0.1,5.3-0.1c0,0,0,10.4,0,10.4
	c-1.2,0.4-6.1,0.7-9.9,0.7C395.9,95.8,390,93.1,390,83.5z M0,0v128h446V0H0z M434,116H12V12h422V116z"/>
</svg>
