<?xml version="1.0" encoding="UTF-8"?>
<svg width="187px" height="22px" viewBox="0 0 187 22" version="1.1" xmlns="http://www.w3.org/2000/svg" xmlns:xlink="http://www.w3.org/1999/xlink">
    <!-- Generator: Sketch 50.2 (55047) - http://www.bohemiancoding.com/sketch -->
    <title>Page 1</title>
    <desc>Created with Sketch.</desc>
    <defs>
        <polygon id="path-1" points="0 0.116131857 19.4451365 0.116131857 19.4451365 20.2829806 0 20.2829806"></polygon>
        <polygon id="path-3" points="0.170633805 0.190565679 19.6158157 0.190565679 19.6158157 20.3572258 0.170633805 20.3572258"></polygon>
    </defs>
    <g id="Page-1" stroke="none" stroke-width="1" fill="none" fill-rule="evenodd">
        <g id="火币资本-首页-copy-3" transform="translate(-240.000000, -2001.000000)">
            <g id="第二屏" transform="translate(0.000000, 1081.000000)">
                <g id="Page-1" transform="translate(240.000000, 920.000000)">
                    <path d="M178.711575,6.28064854 L180.632339,6.28064854 L180.632339,11.3542239 L180.682205,11.3542239 L184.507413,6.28064854 L186.624922,6.28064854 L183.325125,10.6367724 L186.986227,17.4527973 L184.868264,17.4527973 L182.192704,12.1914865 L180.632339,14.1900676 L180.632339,17.4527973 L178.711575,17.4527973 L178.711575,6.28064854 Z M163.010908,11.900921 C163.010908,10.9896019 163.136934,10.1726223 163.388533,9.44951049 C163.640131,8.72639864 163.987836,8.11413565 164.431194,7.6131932 C164.874552,7.11177905 165.399963,6.73064769 166.007426,6.46838403 C166.614436,6.20659207 167.274486,6.07546025 167.985763,6.07546025 C168.642186,6.07546025 169.22789,6.21791281 169.742421,6.50281793 C170.256951,6.78725136 170.688976,7.11177905 171.038947,7.476401 L169.972259,8.70658736 C169.709781,8.43300297 169.416476,8.21366376 169.093704,8.04856973 C168.770479,7.88347571 168.401467,7.80092869 167.985763,7.80092869 C167.536965,7.80092869 167.126247,7.89479644 166.754062,8.08300363 C166.382331,8.27073913 166.064999,8.53866315 165.801614,8.88583231 C165.539135,9.23300146 165.333776,9.65752896 165.186444,10.1584714 C165.038658,10.6594139 164.964765,11.2235637 164.964765,11.849506 C164.964765,12.4877123 165.038658,13.059881 165.186444,13.5664839 C165.333776,14.0730867 165.541855,14.4999727 165.810227,14.8480852 C166.078599,15.1952544 166.401371,15.4627067 166.778996,15.6509139 C167.15662,15.8381777 167.575045,15.9320454 168.034723,15.9320454 C168.47264,15.9320454 168.863865,15.8353475 169.208397,15.6419516 C169.553382,15.4485558 169.879327,15.1749714 170.185325,14.8221419 L171.236146,16.0348754 C170.798682,16.558931 170.305911,16.9603454 169.758741,17.2391184 C169.21157,17.5183632 168.598213,17.6579856 167.919576,17.6579856 C167.230513,17.6579856 166.587237,17.5325141 165.990653,17.2820429 C165.394069,17.0315717 164.874552,16.6612893 164.431194,16.1716676 C163.987836,15.6820459 163.640131,15.0782735 163.388533,14.360822 C163.136934,13.6433705 163.010908,12.8235607 163.010908,11.900921 Z M153.384877,14.4292181 L149.805375,14.4292181 L148.968525,17.4527973 L147.030989,17.4527973 L150.511664,6.28064854 L152.74432,6.28064854 L156.224542,17.4527973 L154.205406,17.4527973 L153.384877,14.4292181 Z M152.957385,12.874504 L152.579761,11.5079972 C152.426988,10.9160172 152.268322,10.3065843 152.104216,9.68017043 C151.939657,9.05375652 151.781445,8.43300297 151.627765,7.81790979 L151.562032,7.81790979 C151.408806,8.4443237 151.253314,9.06790743 151.094195,9.68866098 C150.935529,10.3094145 150.774143,10.9160172 150.610037,11.5079972 L150.232412,12.874504 L152.957385,12.874504 Z M135.352274,7.95470199 L131.970425,7.95470199 L131.970425,6.28064854 L140.639021,6.28064854 L140.639021,7.95470199 L137.257171,7.95470199 L137.257171,17.4527973 L135.352274,17.4527973 L135.352274,7.95470199 Z M118.124788,14.6683686 C118.529612,15.0443113 118.98657,15.348556 119.495661,15.5820461 C120.004752,15.8155362 120.522002,15.9320454 121.04696,15.9320454 C121.703836,15.9320454 122.202047,15.8013853 122.541139,15.5391217 C122.880684,15.2778014 123.05023,14.9301605 123.05023,14.4971425 C123.05023,14.2697844 123.006257,14.0763886 122.918764,13.9164832 C122.830817,13.7570495 122.707965,13.6174272 122.549299,13.4980878 C122.390633,13.3782767 122.199327,13.2674278 121.974928,13.1650695 C121.75053,13.0622395 121.506637,12.9603529 121.243705,12.8575229 L119.783073,12.1914865 C119.498381,12.0778074 119.219582,11.9353549 118.94577,11.7641288 C118.671958,11.5933744 118.4258,11.3886578 118.206841,11.1490356 C117.987882,10.9098851 117.812896,10.631112 117.68143,10.3122447 C117.549964,9.99337739 117.484231,9.62875543 117.484231,9.21885055 C117.484231,8.77498346 117.577617,8.36177669 117.763483,7.98064533 C117.949802,7.59857058 118.206841,7.26555234 118.535052,6.98111892 C118.863264,6.69621379 119.254942,6.4740444 119.70918,6.31461074 C120.163418,6.15517708 120.663895,6.07546025 121.211066,6.07546025 C121.867942,6.07546025 122.494446,6.20376189 123.091029,6.45989348 C123.687613,6.71602508 124.20985,7.06083575 124.659101,7.4933821 L123.674013,8.75753066 C123.312708,8.4617765 122.935084,8.22781468 122.541139,8.05706028 C122.147194,7.88630589 121.703836,7.80092869 121.211066,7.80092869 C120.653015,7.80092869 120.212377,7.9179096 119.889606,8.15092803 C119.566834,8.38441816 119.405448,8.70658736 119.405448,9.11649225 C119.405448,9.33252958 119.454408,9.51790659 119.553234,9.67167988 C119.651607,9.82545318 119.785793,9.96177367 119.955339,10.0815848 C120.124884,10.2013959 120.322083,10.3065843 120.546029,10.3976219 C120.770428,10.4886595 121.00344,10.5853574 121.243705,10.6881874 L122.656285,11.3202617 C122.995377,11.4565822 123.307268,11.6164875 123.59196,11.7985627 C123.876199,11.9801661 124.122811,12.1914865 124.330436,12.4306369 C124.538515,12.6693157 124.699901,12.9457303 124.814594,13.2589373 C124.92974,13.5721442 124.987313,13.9334643 124.987313,14.3438409 C124.987313,14.7990287 124.8971,15.2263864 124.716675,15.6249705 C124.535795,16.0235547 124.276037,16.373554 123.936492,16.675912 C123.5974,16.9773265 123.181242,17.216477 122.688925,17.3928917 C122.196154,17.5693065 121.638103,17.6579856 121.01432,17.6579856 C120.25907,17.6579856 119.536914,17.515533 118.846944,17.2306279 C118.157428,16.9461945 117.544524,16.5414783 117.008233,16.0178943 L118.124788,14.6683686 Z M102.095455,6.28064854 L104.016219,6.28064854 L104.016219,11.3542239 L104.065632,11.3542239 L107.890839,6.28064854 L110.008802,6.28064854 L106.709005,10.6367724 L110.370107,17.4527973 L108.252144,17.4527973 L105.576131,12.1914865 L104.016219,14.1900676 L104.016219,17.4527973 L102.095455,17.4527973 L102.095455,6.28064854 Z M86.3943346,11.900921 C86.3943346,10.9896019 86.5203607,10.1726223 86.7719594,9.44951049 C87.0240114,8.72639864 87.3717164,8.11413565 87.8146208,7.6131932 C88.2579785,7.11177905 88.7833892,6.73064769 89.3908528,6.46838403 C89.9983164,6.20659207 90.6579131,6.07546025 91.3691895,6.07546025 C92.0260662,6.07546025 92.6113166,6.21791281 93.1258473,6.50281793 C93.6403781,6.78725136 94.0728559,7.11177905 94.4228274,7.476401 L93.3556862,8.70658736 C93.0932075,8.43300297 92.8003556,8.21366376 92.4771306,8.04856973 C92.1543589,7.88347571 91.7853474,7.80092869 91.3691895,7.80092869 C90.9203918,7.80092869 90.5101272,7.89479644 90.1379424,8.08300363 C89.7657576,8.27073913 89.4484259,8.53866315 89.1854939,8.88583231 C88.9230152,9.23300146 88.7176562,9.65752896 88.5698703,10.1584714 C88.4220844,10.6594139 88.3481914,11.2235637 88.3481914,11.849506 C88.3481914,12.4877123 88.4220844,13.059881 88.5698703,13.5664839 C88.7176562,14.0730867 88.9257352,14.4999727 89.1936538,14.8480852 C89.4620258,15.1952544 89.7847975,15.4627067 90.1624223,15.6509139 C90.540047,15.8381777 90.9589249,15.9320454 91.4186026,15.9320454 C91.8560671,15.9320454 92.2477451,15.8353475 92.5922767,15.6419516 C92.9372616,15.4485558 93.2627533,15.1749714 93.5692051,14.8221419 L94.6200264,16.0348754 C94.1821086,16.558931 93.6897911,16.9603454 93.1421672,17.2391184 C92.5949967,17.5183632 91.9820931,17.6579856 91.3034565,17.6579856 C90.61394,17.6579856 89.9711166,17.5325141 89.3745329,17.2820429 C88.7779493,17.0315717 88.2579785,16.6612893 87.8146208,16.1716676 C87.3717164,15.6820459 87.0240114,15.0782735 86.7719594,14.360822 C86.5203607,13.6433705 86.3943346,12.8235607 86.3943346,11.900921 Z M75.0116454,15.9320454 C75.3511904,15.9320454 75.6603621,15.8353475 75.9391607,15.6419516 C76.2184126,15.4485558 76.4564114,15.1721412 76.6536105,14.8131796 C76.8503561,14.4551614 77.003582,14.0221434 77.1132881,13.5150689 C77.2225409,13.008466 77.277394,12.4419577 77.277394,11.8155438 C77.277394,10.5627159 77.072035,9.58064232 76.6617704,8.86885121 C76.2510525,8.1570601 75.7011619,7.80092869 75.0116454,7.80092869 C74.3221289,7.80092869 73.7722383,8.1570601 73.3615204,8.86885121 C72.9512558,9.58064232 72.7458968,10.5627159 72.7458968,11.8155438 C72.7458968,12.4419577 72.7980299,13.008466 72.9018427,13.5150689 C73.0061089,14.0221434 73.1566148,14.4551614 73.3533604,14.8131796 C73.5505594,15.1721412 73.7885582,15.4485558 74.0678102,15.6419516 C74.3466088,15.8353475 74.6616738,15.9320454 75.0116454,15.9320454 Z M75.0116454,17.6579856 C74.3878619,17.6579856 73.8157581,17.5240236 73.2957874,17.2565712 C72.7758167,16.9891189 72.3329123,16.6013838 71.9661674,16.094781 C71.5994226,15.5881782 71.3120107,14.9759152 71.1039318,14.2584637 C70.8963062,13.5410122 70.79204,12.7268628 70.79204,11.8155438 C70.79204,10.9160172 70.8963062,10.1098866 71.1039318,9.39809549 C71.3120107,8.68630438 71.5994226,8.08583381 71.9661674,7.5962121 C72.3329123,7.10611868 72.7758167,6.73064769 73.2957874,6.46838403 C73.8157581,6.20659207 74.3878619,6.07546025 75.0116454,6.07546025 C75.6354289,6.07546025 76.2075327,6.20659207 76.7275034,6.46838403 C77.2470208,6.73064769 77.6903786,7.10611868 78.0571234,7.5962121 C78.4238682,8.08583381 78.7112801,8.68630438 78.9189057,9.39809549 C79.1269846,10.1098866 79.2312508,10.9160172 79.2312508,11.8155438 C79.2312508,12.7268628 79.1269846,13.5410122 78.9189057,14.2584637 C78.7112801,14.9759152 78.4238682,15.5881782 78.0571234,16.094781 C77.6903786,16.6013838 77.2470208,16.9891189 76.7275034,17.2565712 C76.2075327,17.5240236 75.6354289,17.6579856 75.0116454,17.6579856 Z M56.7333377,6.28064854 L58.6210081,6.28064854 L58.6210081,15.7787438 L63.661596,15.7787438 L63.661596,17.4527973 L56.7333377,17.4527973 L56.7333377,6.28064854 Z M44.2010009,15.9150643 C44.9888903,15.9150643 45.5909139,15.7617627 46.0070718,15.4542162 C46.4227764,15.1466696 46.6308553,14.6740289 46.6308553,14.0362943 C46.6308553,12.8976172 45.8207527,12.3278069 44.2010009,12.3278069 L42.871381,12.3278069 L42.871381,15.9150643 L44.2010009,15.9150643 Z M43.9548422,10.9098851 C44.7100917,10.9098851 45.2518223,10.7679042 45.580034,10.4829991 C45.9082456,10.198094 46.0728048,9.79384946 46.0728048,9.27026554 C46.0728048,8.75753066 45.9000857,8.38724834 45.5551007,8.15941858 C45.2105691,7.93206052 44.6933184,7.81790979 44.0038019,7.81790979 L42.871381,7.81790979 L42.871381,10.9098851 L43.9548422,10.9098851 Z M40.9664839,6.28064854 L44.1352679,6.28064854 C44.6824385,6.28064854 45.1888093,6.32923335 45.6539269,6.42593128 C46.1190446,6.52262921 46.5211492,6.67640251 46.8606942,6.88725117 C47.1997858,7.09762813 47.4654378,7.37970307 47.6567435,7.73253259 C47.8485025,8.08583381 47.9441554,8.51838017 47.9441554,9.03111505 C47.9441554,9.5660197 47.7909295,10.0617735 47.4844777,10.5169613 C47.1780259,10.9726208 46.7074683,11.2858278 46.0728048,11.4565822 L46.0728048,11.5249783 C46.8606942,11.6617705 47.4599978,11.9490341 47.8702624,12.3877125 C48.2809803,12.8259192 48.485886,13.4212011 48.485886,14.1730865 C48.485886,14.7311043 48.3847931,15.2150657 48.1821542,15.6249705 C47.9799685,16.0348754 47.6952766,16.3768559 47.3285318,16.6499686 C46.961787,16.9230813 46.5293092,17.1254394 46.0315517,17.2565712 C45.5333409,17.3872314 44.9888903,17.4527973 44.3977466,17.4527973 L40.9664839,17.4527973 L40.9664839,6.28064854 Z" id="Fill-1" fill="#FFFFFF"></path>
                    <path d="M5.3952741,21.0859036 C7.18502507,21.0859036 8.63613775,19.5811895 8.63613775,17.7245892 C8.63613775,15.867989 7.18502507,14.3632748 5.3952741,14.3632748 C3.60552314,14.3632748 2.15441046,15.867989 2.15441046,17.7245892 C2.15441046,19.5811895 3.60552314,21.0859036 5.3952741,21.0859036 M18.3587287,21.0859036 C20.1484796,21.0859036 21.5995923,19.5811895 21.5995923,17.7245892 C21.5995923,15.867989 20.1484796,14.3632748 18.3587287,14.3632748 C16.5689777,14.3632748 15.117865,15.867989 15.117865,17.7245892 C15.117865,19.5811895 16.5689777,21.0859036 18.3587287,21.0859036 M18.3587287,7.64111767 C20.1484796,7.64111767 21.5995923,6.13593183 21.5995923,4.27980325 C21.5995923,2.42367468 20.1484796,0.918488835 18.3587287,0.918488835 C16.5689777,0.918488835 15.117865,2.42367468 15.117865,4.27980325 C15.117865,6.13593183 16.5689777,7.64111767 18.3587287,7.64111767 M5.3952741,7.64111767 C7.18502507,7.64111767 8.63613775,6.13593183 8.63613775,4.27980325 C8.63613775,2.42367468 7.18502507,0.918488835 5.3952741,0.918488835 C3.60552314,0.918488835 2.15441046,2.42367468 2.15441046,4.27980325 C2.15441046,6.13593183 3.60552314,7.64111767 5.3952741,7.64111767" id="Fill-3" fill="#2C96FF"></path>
                    <g id="Group-7" transform="translate(0.000000, 1.696459)">
                        <mask id="mask-2" fill="white">
                            <use xlink:href="#path-1"></use>
                        </mask>
                        <g id="Clip-6"></g>
                        <path d="M3.24081831,20.283075 C5.03056928,20.283075 6.48168195,18.7783608 6.48168195,16.9217606 C6.48168195,15.0651603 5.03056928,13.5604461 3.24081831,13.5604461 C1.45106734,13.5604461 -4.53331045e-05,15.0651603 -4.53331045e-05,16.9217606 C-4.53331045e-05,18.7783608 1.45106734,20.283075 3.24081831,20.283075 M16.2042729,20.283075 C17.9940238,20.283075 19.4451365,18.7783608 19.4451365,16.9217606 C19.4451365,15.0651603 17.9940238,13.5604461 16.2042729,13.5604461 C14.4145219,13.5604461 12.9634092,15.0651603 12.9634092,16.9217606 C12.9634092,18.7783608 14.4145219,20.283075 16.2042729,20.283075 M16.2042729,6.838289 C17.9940238,6.838289 19.4451365,5.33357485 19.4451365,3.47697458 C19.4451365,1.620846 17.9940238,0.116131857 16.2042729,0.116131857 C14.4145219,0.116131857 12.9634092,1.620846 12.9634092,3.47697458 C12.9634092,5.33357485 14.4145219,6.838289 16.2042729,6.838289 M3.24081831,6.838289 C5.03056928,6.838289 6.48168195,5.33357485 6.48168195,3.47697458 C6.48168195,1.620846 5.03056928,0.116131857 3.24081831,0.116131857 C1.45106734,0.116131857 -4.53331045e-05,1.620846 -4.53331045e-05,3.47697458 C-4.53331045e-05,5.33357485 1.45106734,6.838289 3.24081831,6.838289" id="Fill-5" fill="#E91E63" mask="url(#mask-2)"></path>
                    </g>
                    <g id="Group-10" transform="translate(0.906662, 0.281367)">
                        <mask id="mask-4" fill="white">
                            <use xlink:href="#path-3"></use>
                        </mask>
                        <g id="Clip-9"></g>
                        <path d="M3.41149745,20.3572258 C5.20124842,20.3572258 6.65236109,18.8529833 6.65236109,16.9963831 C6.65236109,15.1397828 5.20124842,13.6350686 3.41149745,13.6350686 C1.62174648,13.6350686 0.170633805,15.1397828 0.170633805,16.9963831 C0.170633805,18.8529833 1.62174648,20.3572258 3.41149745,20.3572258 M16.374952,20.3572258 C18.164703,20.3572258 19.6158157,18.8529833 19.6158157,16.9963831 C19.6158157,15.1397828 18.164703,13.6350686 16.374952,13.6350686 C14.5847477,13.6350686 13.1340884,15.1397828 13.1340884,16.9963831 C13.1340884,18.8529833 14.5847477,20.3572258 16.374952,20.3572258 M16.374952,6.9129115 C18.164703,6.9129115 19.6158157,5.40772566 19.6158157,3.55159708 C19.6158157,1.6954685 18.164703,0.19028266 16.374952,0.19028266 C14.5847477,0.19028266 13.1340884,1.6954685 13.1340884,3.55159708 C13.1340884,5.40772566 14.5847477,6.9129115 16.374952,6.9129115 M3.41149745,6.9129115 C5.20124842,6.9129115 6.65236109,5.40772566 6.65236109,3.55159708 C6.65236109,1.6954685 5.20124842,0.19028266 3.41149745,0.19028266 C1.62174648,0.19028266 0.170633805,1.6954685 0.170633805,3.55159708 C0.170633805,5.40772566 1.62174648,6.9129115 3.41149745,6.9129115" id="Fill-8" fill="#FFFFFF" mask="url(#mask-4)"></path>
                    </g>
                </g>
            </g>
        </g>
    </g>
</svg>