<svg fill="none" height="66" viewbox="0 0 359 119" width="200" xmlns="http://www.w3.org/2000/svg"><path clip-rule="evenodd" d="M52.8837 40.8577L60.1673 36.6525L67.6368 40.965L83.3243 28.2661V50.0222V76.7616L60.1673 90.1313L37.0103 76.7616V53.9727L37 53.9788V28L52.8837 40.8577ZM41.0591 56.1802V74.424L60.1673 85.4561L79.2755 74.424V56.4648L60.1485 67.7133L41.0591 56.1802ZM41.8293 51.9152L60.1764 62.9998L78.7675 52.0665L60.1673 41.3277L41.8293 51.9152ZM71.8096 42.7963L79.2755 47.1758V36.7527C76.7869 38.7672 74.2982 40.7817 71.8096 42.7963ZM41.0488 46.9097L48.5147 42.5301L41.0488 36.4866C41.0488 39.9609 41.0488 43.4353 41.0488 46.9097Z" fill="black" fill-rule="evenodd"></path><path clip-rule="evenodd" d="M106.141 59.3691H106.533C107.786 59.3691 109.686 59.1928 109.686 60.9751C109.686 62.6007 107.767 62.5419 106.631 62.5419H106.141V59.3691ZM108.217 65.4797C110.92 65.4797 113.564 64.4613 113.564 61.3668C113.564 59.3103 112.663 57.8806 110.548 57.6064V57.5673C111.742 56.9601 112.173 55.8829 112.173 54.5511C112.173 51.7308 110.411 50.7124 107.786 50.7124H102.302V65.4797H108.217ZM106.141 53.6502H106.415C107.453 53.6502 108.648 53.7285 108.648 55.0799C108.648 56.3334 107.59 56.5096 106.572 56.5096H106.141V53.6502Z" fill="black" fill-rule="evenodd"></path><path clip-rule="evenodd" d="M125.276 50.7124H121.437V65.4797H129.878V62.2285H125.276V50.7124Z" fill="black" fill-rule="evenodd"></path><path clip-rule="evenodd" d="M144.43 50.2229C140.18 50.2229 136.263 53.3565 136.263 57.822C136.263 62.6008 139.691 65.9694 144.43 65.9694C149.17 65.9694 152.597 62.6008 152.597 57.822C152.597 53.3565 148.68 50.2229 144.43 50.2229ZM144.43 53.9441C146.722 53.9441 148.602 55.8047 148.602 57.8415C148.602 60.3876 146.722 62.2482 144.43 62.2482C142.139 62.2482 140.259 60.3876 140.259 57.8415C140.259 55.8047 142.139 53.9441 144.43 53.9441Z" fill="black" fill-rule="evenodd"></path><path clip-rule="evenodd" d="M170.812 51.065C169.676 50.595 168.54 50.3208 167.306 50.3208C165.23 50.3208 163.134 51.2217 161.685 52.7102C160.275 54.1595 159.511 56.0985 159.511 58.1157C159.511 60.3093 160.255 62.2286 161.881 63.6975C163.408 65.0881 165.367 65.8715 167.423 65.8715C168.618 65.8715 169.539 65.5777 170.812 65.186V60.5835C170.009 61.5432 168.755 62.1503 167.502 62.1503C165.112 62.1503 163.506 60.466 163.506 58.1353C163.506 55.8439 165.093 54.042 167.443 54.042C168.755 54.042 170.028 54.61 170.812 55.6676V51.065Z" fill="black" fill-rule="evenodd"></path><path clip-rule="evenodd" d="M182.935 56.8034H182.896V50.7124H179.057V65.4797H182.896V59.0753H182.935L187.89 65.4797H192.865L186.46 57.7044L192.336 50.7124H187.577L182.935 56.8034Z" fill="black" fill-rule="evenodd"></path><path clip-rule="evenodd" d="M199.778 65.4797H205.223C209.316 65.4797 212.724 62.2481 212.724 58.0961C212.724 53.944 209.336 50.7124 205.223 50.7124H199.778V65.4797ZM203.617 53.9636H204.518C206.986 53.9636 208.729 55.452 208.729 58.0961C208.729 60.9751 206.77 62.2285 204.479 62.2285H203.617V53.9636Z" fill="black" fill-rule="evenodd"></path><path clip-rule="evenodd" d="M229.43 62.914L230.39 65.4797H234.483L228.921 50.7124H224.73L219.05 65.4797H223.124L224.142 62.914H229.43ZM228.392 59.9762H225.2L226.786 55.2758H226.825L228.392 59.9762Z" fill="black" fill-rule="evenodd"></path><path clip-rule="evenodd" d="M249.956 53.9636V50.7124H241.554V65.4797H249.956V62.2285H245.392V59.6825H249.721V56.4313H245.392V53.9636H249.956Z" fill="black" fill-rule="evenodd"></path><path clip-rule="evenodd" d="M257.32 65.4797H261.139L262.373 56.9797H262.412L265.8 65.4797H267.328L270.873 56.9797H270.912L271.989 65.4797H275.828L273.595 50.7124H269.776L266.603 58.6053L263.607 50.7124H259.827L257.32 65.4797Z" fill="black" fill-rule="evenodd"></path><path clip-rule="evenodd" d="M290.752 50.2229C286.502 50.2229 282.585 53.3565 282.585 57.822C282.585 62.6008 286.012 65.9694 290.752 65.9694C295.491 65.9694 298.919 62.6008 298.919 57.822C298.919 53.3565 295.002 50.2229 290.752 50.2229ZM290.752 53.9441C293.043 53.9441 294.923 55.8047 294.923 57.8415C294.923 60.3876 293.043 62.2482 290.752 62.2482C288.46 62.2482 286.58 60.3876 286.58 57.8415C286.58 55.8047 288.46 53.9441 290.752 53.9441Z" fill="black" fill-rule="evenodd"></path><path clip-rule="evenodd" d="M306.577 65.4797H310.415V56.4313H310.454L317.486 65.4797H321.324V50.7124H317.486V59.7412H317.446L310.415 50.7124H306.577V65.4797Z" fill="black" fill-rule="evenodd"></path></svg>