<svg xmlns="http://www.w3.org/2000/svg" width="98" height="40" viewBox="0 0 98 40">
    <defs>
        <linearGradient id="linear-gradient" x1=".5" x2=".5" y2="1" gradientUnits="objectBoundingBox">
            <stop offset="0" stop-color="#26c8ff"/>
            <stop offset=".69" stop-color="#6463ff"/>
            <stop offset="1" stop-color="#6463ff"/>
        </linearGradient>
        <style>
            .cls-3{fill:#fff}.cls-2{fill:url(#linear-gradient)}
        </style>
    </defs>
    <g id="그룹_810" transform="translate(-227.242 419.73)">
        <g id="b" transform="translate(227.242 -418.208)">
            <path id="패스_2401" d="M645.51-120.511a12.3 12.3 0 0 0-9.683-12.017l-.092-.019c-.029-.008-.058-.015-.087-.02s-.086-.013-.12-.016-.133-.007-.157-.005a1.118 1.118 0 0 0-1.046 1.116v5.492a5.582 5.582 0 0 1 4.463 5.469 5.581 5.581 0 0 1-4.463 5.468v5.492a1.119 1.119 0 0 0 1.05 1.116H635.484c.011 0 .059-.005.076-.008l.046-.007.049-.009a.773.773 0 0 0 .081-.019l.069-.014a12.3 12.3 0 0 0 9.705-12.019z" class="cls-2" transform="translate(-621.064 141.54)"/>
            <path id="패스_2400" d="M622.656-136.571a12.3 12.3 0 0 0-9.756-11.389 1.118 1.118 0 0 0-.12-.024c-.026-.005-.064-.009-.1-.012s-.107 0-.126 0a1.118 1.118 0 0 0-1.061 1.117v19.933l.023.6a12.3 12.3 0 0 0 9.65 11.372c.035.008.3.056.35.059s.117 0 .133 0a1.023 1.023 0 0 0 .1-.013 1.118 1.118 0 0 0 .924-1.1v-20.118c.006-.195-.014-.363-.017-.425z" class="cls-2" transform="translate(-611.495 148)"/>
        </g>
        <g id="play" transform="translate(256.395 -413.355)">
            <path id="패스_2402" d="M670.831-127.686a9.144 9.144 0 0 0-9.144 9.132v13.529a2.559 2.559 0 0 0 2.559 2.559 2.558 2.558 0 0 0 2.558-2.559v-5.308a9.107 9.107 0 0 0 4.027.933 9.144 9.144 0 0 0 9.144-9.144 9.144 9.144 0 0 0-9.144-9.142zm.006 13.17a4.021 4.021 0 0 1-4.021-4.021 4.021 4.021 0 0 1 4.021-4.021 4.021 4.021 0 0 1 4.02 4.021 4.021 4.021 0 0 1-4.02 4.021z" class="cls-3" transform="translate(-661.687 134.631)"/>
            <path id="패스_2403" d="M700.747-139.643a2.558 2.558 0 0 0-2.559 2.559v20.1a2.558 2.558 0 0 0 2.559 2.559 2.558 2.558 0 0 0 2.559-2.559v-20.1a2.558 2.558 0 0 0-2.559-2.559z" class="cls-3" transform="translate(-676.987 139.643)"/>
            <path id="패스_2404" d="M730.321-118.542a9.144 9.144 0 0 0-9.144-9.144 9.144 9.144 0 0 0-9.144 9.144 9.144 9.144 0 0 0 9.144 9.144 9.1 9.1 0 0 0 4.444-1.153 2.557 2.557 0 0 0 2.13 1.141 2.559 2.559 0 0 0 2.559-2.559v-6.121c.007-.149.011-.3.011-.452zm-9.138 4.026a4.021 4.021 0 0 1-4.021-4.021 4.021 4.021 0 0 1 4.021-4.021 4.018 4.018 0 0 1 4.015 3.9c0 .036-.005.071-.005.107v.238a4.018 4.018 0 0 1-4.01 3.797z" class="cls-3" transform="translate(-682.791 134.631)"/>
            <path id="패스_2405" d="M766.811-122.609a2.559 2.559 0 0 0-2.559-2.559 2.56 2.56 0 0 0-2.559 2.559v6.214h-.019a3.654 3.654 0 0 1-3.459 3.281v.009h-1.1v-.009a3.655 3.655 0 0 1-3.454-3.281h-.013v-.256c0-.038-.006-.075-.006-.113s0-.075.006-.113v-5.733a2.559 2.559 0 0 0-2.558-2.559 2.559 2.559 0 0 0-2.559 2.559v5.848h.009c0 .112-.009.224-.009.337a8.082 8.082 0 0 0 8.082 8.082h2.01a8.048 8.048 0 0 0 3.067-.6v4.979a2.559 2.559 0 0 0 2.559 2.559 2.558 2.558 0 0 0 2.559-2.559z" class="cls-3" transform="translate(-698.091 133.576)"/>
        </g>
    </g>
</svg>
