<svg width="122" height="41" viewBox="0 0 122 41" fill="none" xmlns="http://www.w3.org/2000/svg">
<path d="M73.7481 23.875C72.4061 28.438 68.1111 31.687 62.9531 31.687C56.2141 31.687 51.3821 26.35 51.3821 20.208C51.3821 14.332 55.9451 8.785 62.9231 8.785C69.2761 8.814 72.8841 13.497 73.7491 16.716H69.0671C68.3801 15.198 66.4131 12.721 62.8931 12.69C58.5991 12.69 55.8261 16.299 55.8261 20.208C55.8261 24.234 58.7181 27.782 62.9241 27.782C66.8601 27.782 68.6501 24.678 69.0681 23.875H73.7481Z" fill="white"/>
<path d="M79.5352 24.38C79.7132 27.005 82.0402 28.467 84.2772 28.438C86.1842 28.438 87.4681 27.572 88.2141 26.23H92.2392C91.4642 28.05 90.3011 29.419 88.9301 30.344C87.5581 31.301 85.9482 31.779 84.2482 31.779C79.2072 31.779 75.5981 27.692 75.5981 23.129C75.5981 18.478 79.2382 14.39 84.1872 14.39C86.6332 14.39 88.7801 15.315 90.3011 16.896C92.3001 18.953 93.0452 21.52 92.7162 24.38H79.5352ZM88.8691 21.398C88.7201 19.848 87.0812 17.672 84.2172 17.701C81.3242 17.701 79.7442 19.787 79.5972 21.398H88.8691Z" fill="white"/>
<path d="M95.6711 14.9H99.3682V17.045C100.084 15.581 101.427 14.422 103.902 14.39V18.328H103.723C100.98 18.328 99.5771 19.609 99.5771 22.443V31.269H95.6711V14.9Z" fill="white"/>
<path d="M108.256 24.38C108.437 27.005 110.76 28.467 112.997 28.438C114.906 28.438 116.188 27.572 116.934 26.23H120.959C120.186 28.05 119.021 29.419 117.647 30.344C116.278 31.301 114.668 31.779 112.966 31.779C107.927 31.779 104.318 27.692 104.318 23.129C104.318 18.478 107.957 14.39 112.907 14.39C115.352 14.39 117.498 15.315 119.021 16.896C121.018 18.953 121.766 21.52 121.436 24.38H108.256ZM117.588 21.398C117.442 19.848 115.802 17.672 112.937 17.701C110.045 17.701 108.467 19.787 108.316 21.398H117.588Z" fill="white"/>
<path d="M19.422 40.562C10.101 40.562 2.85999 36.083 0.523987 28.873L0 27.26L1.53201 26.527C1.69401 26.448 5.71301 24.429 5.46301 20.459C5.19901 16.268 1.79899 14.301 1.65399 14.22L0.160004 13.376L0.804993 11.783C3.86199 4.403 10.823 0 19.423 0C26.182 0 32.106 2.641 35.672 7.245L36.572 8.409L29.466 17.968L27.88 16.437C27.849 16.408 24.471 13.22 20.55 13.202C16.772 13.184 15.283 14.605 15.221 14.666L12.422 11.982C12.678 11.709 15.077 9.286 20.567 9.327C24.065 9.343 27.087 11.012 28.87 12.275L31.657 8.526C28.767 5.556 24.393 3.877 19.424 3.877C13.007 3.877 7.73699 6.846 5.03699 11.894C6.66899 13.261 9.06401 15.968 9.33401 20.215C9.62301 24.805 6.68201 27.691 4.76901 29.069C7.03301 33.802 12.496 36.682 19.425 36.682C24.224 36.682 29.136 34.817 32.169 31.934L29 27.969C27.313 29.162 24.43 30.712 20.66 30.908C15.307 31.183 12.142 28.724 12.01 28.619L14.417 25.581C14.491 25.635 16.641 27.237 20.458 27.036C24.976 26.804 27.874 23.907 27.901 23.876L29.434 22.317L30.805 24.018L37.21 32.037L36.228 33.248C32.625 37.691 26.031 40.562 19.422 40.562Z" fill="url(#paint0_linear)"/>
<defs>
<linearGradient id="paint0_linear" x1="35.5969" y1="6.401" x2="4.1454" y2="33.9355" gradientUnits="userSpaceOnUse">
<stop offset="0.0733" stop-color="#F46881"/>
<stop offset="0.083" stop-color="#F36682"/>
<stop offset="0.2596" stop-color="#E74596"/>
<stop offset="0.407" stop-color="#E031A2"/>
<stop offset="0.5065" stop-color="#DD2AA6"/>
<stop offset="0.8882" stop-color="#5210E2"/>
</linearGradient>
</defs>
</svg>
