<svg xmlns="http://www.w3.org/2000/svg" fill="none" height="29" viewbox="0 0 113 29" width="113"><g><path d="M68.924 7.80771C68.924 9.38211 67.6475 10.6584 66.0733 10.6584C64.4991 10.6584 63.2227 9.38211 63.2227 7.80771C63.2227 6.23332 64.4991 4.95703 66.0733 4.95703C67.6475 4.95703 68.924 6.23332 68.924 7.80771Z" fill="#50596B"></path><path clip-rule="evenodd" d="M63.7161 4.05138C60.5772 1.86692 56.7605 0.585938 52.6441 0.585938C46.3079 0.585938 40.6817 3.62103 37.1445 8.31444H40.8194C43.8289 5.26469 48.0142 3.37327 52.6441 3.37327C56.0875 3.37327 59.2851 4.41954 61.9359 6.21046C62.2825 5.31319 62.9125 4.5569 63.7161 4.05138Z" fill="#50596B" fill-rule="evenodd"></path><path clip-rule="evenodd" d="M9.50226 22.8852C10.4834 22.8852 11.3778 22.5134 12.052 21.9031L16.0856 25.9366C14.3777 27.5777 12.0578 28.5866 9.50226 28.5866C4.25431 28.5866 0 24.3323 0 19.0843C0 13.8363 4.25431 9.58203 9.50226 9.58203C12.0658 9.58203 14.3922 10.5971 16.1015 12.2474L12.0684 16.2804C11.3922 15.6612 10.4914 15.2834 9.50226 15.2834C7.40309 15.2834 5.70136 16.9851 5.70136 19.0843C5.70136 21.1835 7.40309 22.8852 9.50226 22.8852ZM25.0232 15.2834C22.924 15.2834 21.2223 16.9851 21.2223 19.0843C21.2223 21.1835 22.924 22.8852 25.0232 22.8852C27.1224 22.8852 28.8241 21.1835 28.8241 19.0843C28.8241 16.9851 27.1224 15.2834 25.0232 15.2834ZM15.5209 19.0843C15.5209 13.8363 19.7752 9.58203 25.0232 9.58203C30.2711 9.58203 34.5254 13.8363 34.5254 19.0843C34.5254 24.3322 30.2711 28.5866 25.0232 28.5866C19.7752 28.5866 15.5209 24.3322 15.5209 19.0843ZM43.3919 9.89877V28.5866H49.1309V17.0922C49.1309 17.0922 49.0955 14.483 52.4963 14.483C55.8972 14.483 55.8972 17.0922 55.8972 17.0922V28.5866H61.6362V17.0922C61.6362 12.8245 58.4383 9.58203 54.1614 9.58203C52.3638 9.58203 50.5724 10.1156 49.1309 11.2039V9.89877H43.3919ZM41.8082 28.5862V9.89844H36.1068V28.5862H41.8082ZM110.95 25.8121C109.795 26.7832 108.605 27.4883 107.381 27.9277C106.18 28.3669 104.817 28.5866 103.292 28.5866C101.907 28.5866 100.601 28.3438 99.3772 27.8583C98.1527 27.3727 97.0903 26.7023 96.1895 25.8469C95.3115 24.9914 94.6071 23.9857 94.0756 22.8297C93.5675 21.6506 93.3135 20.4021 93.3135 19.0843C93.3135 17.7665 93.5561 16.5296 94.0414 15.3735C94.5494 14.1944 95.2311 13.1772 96.0856 12.3217C96.9402 11.4663 97.9449 10.7959 99.0997 10.3103C100.278 9.82478 101.537 9.58203 102.877 9.58203C104.216 9.58203 105.452 9.83638 106.584 10.345C107.716 10.8536 108.686 11.5472 109.495 12.4258C110.326 13.3043 110.973 14.3678 111.435 15.6163C111.897 16.8417 112.128 18.1711 112.128 19.6045V20.9917H99.0655C99.4349 21.8471 100.013 22.5523 100.797 23.1072C101.583 23.6389 102.507 23.9048 103.57 23.9048C104.332 23.9048 105.025 23.7892 105.649 23.558C106.272 23.3037 106.804 22.9568 107.243 22.5176L110.95 25.8121ZM102.773 14.1598C101.848 14.1598 101.052 14.4141 100.382 14.9227C99.7123 15.4314 99.2385 16.1481 98.961 17.0729H106.619C106.318 16.1943 105.822 15.4891 105.129 14.9574C104.459 14.4257 103.674 14.1598 102.773 14.1598ZM63.2325 28.5866L63.2225 11.2053C63.9932 11.8527 64.9878 12.2427 66.073 12.2427C67.2322 12.2427 68.2876 11.7978 69.0776 11.0695C70.2717 10.0779 70.8988 9.58203 73.4214 9.58203C75.4745 9.58203 77.4712 10.5934 78.7629 12.2152C80.2833 10.557 82.5169 9.58203 84.7487 9.58203C88.8683 9.58203 91.7291 12.9797 91.7291 17.022V28.5866H86.0277V17.1594C86.0277 17.1594 86.0277 14.4813 83.2049 14.4813C80.3263 14.4813 80.3264 17.1595 80.3264 17.1595V28.5866H74.625V17.022C74.625 17.022 74.625 14.4813 71.7382 14.4813C68.9236 14.4813 68.9236 17.022 68.9236 17.022V28.5866H63.2325Z" fill="#353F52" fill-rule="evenodd"></path></g></svg>