<svg xmlns="http://www.w3.org/2000/svg" fill="none" height="25" viewbox="0 0 140 25" width="140"><g><path d="M137.71 23.3318C138.956 23.3318 139.953 22.3019 139.953 21.0566C139.953 19.8112 138.956 18.7812 137.71 18.7812C136.431 18.7812 135.434 19.8112 135.434 21.0566C135.434 22.3019 136.431 23.3318 137.71 23.3318Z" fill="currentColor"></path><path d="M133.872 21.2565C134.027 21.4652 134.027 21.7143 133.812 21.9028C132.748 22.8317 131.63 23.3501 130.411 23.6058C127.266 24.2655 124.088 22.4144 124.088 18.988V17.3994V11.3814H122.007C121.697 11.3814 121.488 11.1996 121.488 10.9169V8.51374C121.488 8.23775 121.697 8.04927 122.007 8.04927H124.088V4.99315C124.088 4.71716 124.256 4.51521 124.552 4.35366L127.697 2.97369C127.993 2.8256 128.162 3.16218 128.162 3.43817V8.056H128.956H131.36C131.67 8.056 131.872 8.23775 131.872 8.52048V10.9236C131.872 11.1996 131.663 11.3881 131.36 11.3881H128.162V18.436C128.209 19.1361 128.519 20.4353 130.236 19.8429C130.721 19.6746 131.165 19.4256 131.596 19.1361C131.872 18.9544 132.081 18.988 132.269 19.2304L133.872 21.2565Z" fill="currentColor"></path><path d="M114.194 19.9376C111.884 19.9376 110.268 18.1268 110.268 15.7304C110.268 13.334 111.891 11.5232 114.194 11.5232C115.595 11.5232 116.504 12.1155 117.373 12.8964C117.622 13.1118 117.837 13.1455 118.059 12.9301L119.958 11.0924C120.147 10.9039 120.174 10.6548 119.992 10.4394C118.558 8.79014 116.47 7.72656 114.1 7.72656C109.703 7.72656 106.309 11.2472 106.309 15.7371C106.309 20.227 109.709 23.7476 114.1 23.7476C116.531 23.7476 118.652 22.6908 120.086 21.0348C120.275 20.8194 120.241 20.5704 120.053 20.3819L118.154 18.5711C117.938 18.3557 117.716 18.3557 117.467 18.5711C116.598 19.3452 115.662 19.9376 114.194 19.9376Z" fill="currentColor"></path><path d="M7.88552 19.9376C5.57576 19.9376 3.9596 18.1268 3.9596 15.7304C3.9596 13.334 5.58249 11.5232 7.88552 11.5232C9.2862 11.5232 10.1953 12.1156 11.064 12.8964C11.3131 13.1118 11.5286 13.1455 11.7508 12.9301L13.6498 11.0924C13.8384 10.9039 13.8653 10.6548 13.6835 10.4394C12.2492 8.79015 10.1616 7.72657 7.79125 7.72657C3.40067 7.71984 0 11.2405 0 15.7304C0 20.2203 3.40067 23.7409 7.79125 23.7409C10.2222 23.7409 12.3434 22.6841 13.7778 21.0281C13.9663 20.8127 13.9327 20.5636 13.7441 20.3751L11.8451 18.5644C11.6296 18.349 11.4074 18.349 11.1582 18.5644C10.2896 19.3452 9.35354 19.9376 7.88552 19.9376Z" fill="currentColor"></path><path d="M22.5989 7.72266C18.2016 7.72266 14.6797 11.2433 14.6797 15.7332C14.6797 20.2232 18.2016 23.7437 22.5989 23.7437C26.9962 23.7437 30.5181 20.2232 30.5181 15.7332C30.5181 11.2433 26.9894 7.72266 22.5989 7.72266ZM22.5989 19.9404C20.3834 19.9404 18.6393 18.197 18.6393 15.7332C18.6393 13.2695 20.3834 11.526 22.5989 11.526C24.7807 11.526 26.5585 13.2695 26.5585 15.7332C26.5585 18.197 24.7807 19.9404 22.5989 19.9404Z" fill="currentColor"></path><path d="M32.6719 8.53089V22.869C32.6719 23.1517 32.8605 23.3335 33.1366 23.3335H36.315C36.5979 23.3335 36.7797 23.145 36.7797 22.869V8.53089C36.7797 8.24816 36.5911 8.06641 36.315 8.06641H33.1366C32.8605 8.06641 32.6719 8.25489 32.6719 8.53089Z" fill="currentColor"></path><path d="M47.8919 7.72266C45.6764 7.72266 44.0603 8.93433 43.0569 10.5566V10.523L42.9357 8.53044C42.902 8.24772 42.7471 8.06597 42.471 8.06597H39.4138C39.131 8.06597 38.9492 8.25445 38.9492 8.53044V22.8686C38.9492 23.1514 39.1377 23.3331 39.4138 23.3331H42.5923C42.8751 23.3331 43.0569 23.1446 43.0569 22.8686V14.5148C43.0569 13.7945 44.1141 11.526 46.4239 11.526C47.9189 11.526 49.2926 12.4011 49.2926 14.9254V22.8686C49.2926 23.1514 49.4812 23.3331 49.7572 23.3331H52.9357C53.2185 23.3331 53.4003 23.1446 53.4003 22.8686V14.1715C53.4071 10.0922 51.0098 7.72266 47.8919 7.72266Z" fill="currentColor"></path><path d="M70.7425 0.585938H67.5641C67.2813 0.585938 67.0995 0.77442 67.0995 1.05041V9.7139C65.9682 8.52915 64.4731 7.72136 62.6684 7.72136C58.399 7.72136 55.2812 11.2756 55.2812 15.7318C55.2812 20.1881 58.399 23.7424 62.6684 23.7424C64.6617 23.7424 66.1903 22.8403 67.2812 21.5614L67.4093 22.8673C67.4429 23.15 67.5978 23.3317 67.8739 23.3317H70.7425C71.0253 23.3317 71.2072 23.1433 71.2072 22.8673V1.05041C71.2072 0.77442 71.0187 0.585938 70.7425 0.585938ZM63.1667 19.9996C60.8906 19.9996 59.2408 18.1619 59.2408 15.6982C59.2408 13.2681 60.8906 11.4573 63.1667 11.4573C65.4092 11.4573 67.0657 13.3893 67.0657 15.6982C67.059 18.0071 65.4092 19.9996 63.1667 19.9996Z" fill="currentColor"></path><path d="M73.3945 8.53089V22.869C73.3945 23.1517 73.5831 23.3335 73.8592 23.3335H77.0377C77.3205 23.3335 77.5023 23.145 77.5023 22.869V8.53089C77.5023 8.24816 77.3137 8.06641 77.0377 8.06641H73.8592C73.5831 8.06641 73.3945 8.25489 73.3945 8.53089Z" fill="currentColor"></path><path d="M89.6899 8.4401C89.2522 8.06314 88.5047 7.72656 87.6293 7.72656C85.7909 7.72656 84.5451 8.75648 83.7303 10.2172L83.6091 8.53434C83.5754 8.25162 83.4205 8.06987 83.1444 8.06987H80.1209C79.8381 8.06987 79.6562 8.25835 79.6562 8.53434V22.8658C79.6562 23.1485 79.8448 23.3303 80.1209 23.3303H83.2993C83.5822 23.3303 83.7641 23.1418 83.7641 22.8658V14.761C83.7641 12.8897 85.0099 11.4559 86.9425 11.4559C87.5351 11.4559 87.9121 11.577 88.2219 11.6713C88.5316 11.7655 88.7809 11.7049 88.9088 11.3616L89.8448 9.05267C89.939 8.84399 89.939 8.62185 89.6899 8.4401Z" fill="currentColor"></path><path d="M104.647 15.3899C104.647 11.2433 101.812 7.72266 97.3806 7.72266C92.9563 7.72266 89.6836 11.2433 89.6836 15.7332C89.6836 20.2232 92.9563 23.7437 97.724 23.7437C99.9395 23.7437 101.933 22.8686 103.401 21.4079C103.65 21.1588 103.65 20.9434 103.434 20.7213L102.061 19.3817C101.845 19.1663 101.657 19.1663 101.374 19.3481C100.317 20.0953 99.3469 20.4049 98.1348 20.4049C95.7375 20.4049 94.1752 19.2538 93.7711 17.2276H103.562C104.492 17.2276 104.647 16.6016 104.647 15.3899ZM93.7038 14.5485C94.0472 12.4011 95.5422 11.2164 97.4142 11.2164C99.2526 11.2164 100.721 12.4011 100.997 14.5485H93.7038Z" fill="currentColor"></path><path d="M75.4558 5.13646C76.7016 5.13646 77.6982 4.10653 77.6982 2.8612C77.6982 1.61586 76.7016 0.585938 75.4558 0.585938C74.1763 0.585938 73.1797 1.61586 73.1797 2.8612C73.1797 4.10653 74.1763 5.13646 75.4558 5.13646Z" fill="currentColor"></path><path d="M34.7331 5.13646C35.9789 5.13646 36.9755 4.10653 36.9755 2.8612C36.9755 1.61586 35.9789 0.585938 34.7331 0.585938C33.4536 0.585938 32.457 1.61586 32.457 2.8612C32.457 4.10653 33.4536 5.13646 34.7331 5.13646Z" fill="currentColor"></path></g></svg>