<svg fill="none" height="29" viewbox="0 0 175 29" width="175"><path d="M31.0771 13.1829L24.6048 1.9601C24.3573 1.54144 24.005 1.19452 23.5826 0.953544C23.1601 0.712569 22.6822 0.585869 22.1959 0.585938H9.24986C8.76163 0.586037 8.28202 0.714591 7.85918 0.95869C7.43635 1.20279 7.08519 1.55384 6.84095 1.97659L0.368632 13.1953C0.127049 13.6189 0 14.0982 0 14.5859C0 15.0736 0.127049 15.5529 0.368632 15.9766L6.84095 27.1953C7.08411 27.619 7.43504 27.9708 7.85812 28.215C8.28119 28.4593 8.76135 28.5872 9.24986 28.5859H22.1945C22.6827 28.5858 23.1623 28.4573 23.5852 28.2132C24.008 27.9691 24.3592 27.618 24.6034 27.1953L31.0757 15.9766C31.3177 15.5509 31.445 15.0696 31.4453 14.5799C31.4455 14.0902 31.3186 13.6089 31.0771 13.1829ZM15.7222 24.2106V22.2868C17.2466 22.2868 18.7368 21.8347 20.0043 20.9878C21.2719 20.1408 22.2598 18.9371 22.8432 17.5287C23.4265 16.1203 23.5792 14.5705 23.2818 13.0754C22.9844 11.5802 22.2503 10.2068 21.1723 9.1289C20.0944 8.05096 18.721 7.31687 17.2259 7.01947C15.7307 6.72207 14.181 6.87471 12.7726 7.45808C11.3642 8.04146 10.1604 9.02937 9.31347 10.2969C8.46654 11.5644 8.01449 13.0546 8.01449 14.5791C8.01019 16.26 8.56248 17.8951 9.58516 19.2292L10.9758 17.8743C10.3003 16.9076 9.94031 15.7556 9.94519 14.5763C9.94519 13.4313 10.2847 12.312 10.9209 11.3599C11.557 10.4079 12.4612 9.66583 13.5191 9.22764C14.5769 8.78946 15.741 8.67481 16.864 8.8982C17.987 9.12158 19.0186 9.67296 19.8282 10.4826C20.6379 11.2923 21.1893 12.3238 21.4127 13.4469C21.636 14.5699 21.5214 15.7339 21.0832 16.7918C20.645 17.8497 19.903 18.7538 18.9509 19.39C17.9989 20.0261 16.8796 20.3657 15.7345 20.3657V18.4418C16.4975 18.4397 17.2427 18.2114 17.8761 17.786C18.5094 17.3605 19.0024 16.7569 19.2929 16.0514C19.5834 15.3459 19.6582 14.5701 19.5081 13.822C19.3579 13.074 18.9894 12.3872 18.4491 11.8485C17.9089 11.3098 17.221 10.9432 16.4726 10.7952C15.7241 10.6471 14.9485 10.7242 14.2439 11.0167C13.5392 11.3091 12.937 11.8039 12.5133 12.4384C12.0896 13.073 11.8635 13.8188 11.8635 14.5818C11.8612 15.2575 12.0391 15.9216 12.3788 16.5056L13.8176 15.1026C13.7696 14.9351 13.7455 14.7616 13.7461 14.5873C13.7461 14.1962 13.8621 13.8139 14.0794 13.4887C14.2967 13.1635 14.6055 12.9101 14.9668 12.7604C15.3282 12.6107 15.7257 12.5716 16.1093 12.6479C16.4929 12.7242 16.8453 12.9125 17.1218 13.1891C17.3984 13.4656 17.5867 13.8179 17.663 14.2015C17.7393 14.5851 17.7001 14.9827 17.5505 15.344C17.4008 15.7054 17.1473 16.0142 16.8222 16.2315C16.497 16.4488 16.1147 16.5647 15.7236 16.5647C15.5318 16.5631 15.3416 16.5306 15.1601 16.4685L10.1857 21.3221C10.1392 21.3684 10.087 21.4086 10.0304 21.4416C10.018 21.454 9.99466 21.454 9.98229 21.465C9.94501 21.4899 9.90487 21.5102 9.86274 21.5255C9.83938 21.5378 9.81464 21.5378 9.79128 21.5488L9.68272 21.5846C9.65953 21.584 9.6365 21.5887 9.61539 21.5983C9.57966 21.5983 9.54393 21.6107 9.5192 21.6107C9.48347 21.6107 9.44774 21.5983 9.41064 21.5983C9.38218 21.5993 9.35377 21.5951 9.32681 21.5859L9.21826 21.5502C9.19489 21.5378 9.17016 21.5378 9.1468 21.5268C9.10818 21.5114 9.07169 21.4911 9.03824 21.4664C9.01658 21.4572 8.99624 21.4452 8.97778 21.4306C8.94318 21.4058 8.91098 21.3777 8.88159 21.3468C8.86922 21.3345 8.84586 21.3235 8.83349 21.2987C7.28346 19.706 6.3321 17.6262 6.1408 15.412C5.9495 13.1978 6.53004 10.9856 7.78393 9.15067C9.03782 7.31573 10.8879 5.97104 13.0202 5.3447C15.1526 4.71837 17.4359 4.84895 19.483 5.7143C21.53 6.57966 23.2147 8.12649 24.2512 10.0924C25.2878 12.0583 25.6123 14.3223 25.1698 16.5003C24.7274 18.6782 23.5451 20.636 21.8236 22.0416C20.1021 23.4472 17.9474 24.214 15.7249 24.212L15.7222 24.2106ZM38.8686 5.56042H44.7899C50.5188 5.49995 54.7388 9.2047 54.655 14.5502C54.7388 19.7885 50.5202 23.7324 44.7899 23.6472H38.8686V5.56042ZM44.7542 20.3162C48.3984 20.3162 50.8431 18.0392 50.8431 14.5626C50.8431 11.0502 48.4575 8.9175 44.7542 8.9175H42.5555V20.3231H44.7542V20.3162ZM68.2235 23.6595H64.8197V22.3417C64.2786 22.8825 63.6327 23.3071 62.9217 23.5895C62.2107 23.8718 61.4496 24.006 60.6849 23.9838C57.8087 23.9838 55.9976 22.306 55.9976 19.9328C55.9976 17.4882 57.975 15.989 61.1273 15.989H64.5311V15.3898C64.5597 15.058 64.5132 14.724 64.395 14.4127C64.2768 14.1013 64.0899 13.8206 63.8483 13.5914C63.6067 13.3622 63.3165 13.1904 62.9994 13.0888C62.6822 12.9871 62.3463 12.9582 62.0164 13.0043C61.3145 13.0231 60.626 13.2013 60.003 13.5253C59.38 13.8493 58.8388 14.3107 58.4202 14.8745L56.4964 12.5975C57.2027 11.7057 58.1057 10.9895 59.1348 10.5048C60.164 10.0202 61.2914 9.78026 62.4287 9.80384C63.2105 9.72946 63.9991 9.82873 64.7382 10.0945C65.4772 10.3604 66.1484 10.7862 66.7037 11.3415C67.2591 11.8969 67.6849 12.568 67.9507 13.3071C68.2165 14.0461 68.3158 14.8347 68.2414 15.6166V23.6595H68.2235ZM64.5133 18.4212H61.6193C60.4087 18.4212 59.7257 18.8884 59.7257 19.7871C59.7257 20.6859 60.4925 21.2616 61.6674 21.2616C62.0333 21.2823 62.3997 21.2283 62.7441 21.1029C63.0885 20.9774 63.4037 20.7832 63.6706 20.532C63.9376 20.2807 64.1505 19.9778 64.2966 19.6416C64.4426 19.3054 64.5187 18.943 64.5202 18.5765L64.5133 18.4212ZM78.8541 23.9838C78.0998 24.0079 77.3488 23.8742 76.6491 23.5915C75.9494 23.3087 75.3165 22.8831 74.7907 22.3417V28.5859H71.0804V10.0938H74.4842V11.7936C74.9943 11.1291 75.6591 10.5993 76.4207 10.2504C77.1823 9.90142 78.0177 9.74388 78.8541 9.79147C79.7579 9.79997 80.6505 9.99245 81.4775 10.3572C82.3045 10.7219 83.0485 11.2512 83.6643 11.9129C84.28 12.5745 84.7546 13.3546 85.059 14.2057C85.3634 15.0567 85.4913 15.9608 85.4349 16.8629C85.4923 17.7677 85.3655 18.6747 85.062 19.5289C84.7586 20.3832 84.2848 21.167 83.6695 21.8327C83.0542 22.4985 82.3102 23.0325 81.4824 23.4022C80.6547 23.772 79.7605 23.9699 78.8541 23.9838ZM78.167 13.1362C77.6883 13.1273 77.2132 13.22 76.7731 13.4084C76.3329 13.5967 75.9378 13.8763 75.6137 14.2287C75.2896 14.581 75.0441 14.9982 74.8932 15.4525C74.7423 15.9069 74.6896 16.3881 74.7384 16.8643C74.6894 17.3417 74.7418 17.8241 74.8924 18.2798C75.0429 18.7355 75.2881 19.1542 75.6119 19.5085C75.9356 19.8628 76.3307 20.1446 76.771 20.3354C77.2114 20.5262 77.6871 20.6218 78.167 20.6158C78.6473 20.6177 79.1228 20.5209 79.5641 20.3314C80.0054 20.1419 80.4031 19.8637 80.7324 19.5141C81.0618 19.1646 81.3158 18.751 81.4787 18.2992C81.6415 17.8474 81.7099 17.367 81.6794 16.8877C81.7161 16.4062 81.6524 15.9223 81.4924 15.4667C81.3323 15.0111 81.0794 14.5938 80.7495 14.2411C80.4197 13.8884 80.0202 13.608 79.5764 13.4179C79.1325 13.2277 78.654 13.1317 78.1711 13.1362H78.167ZM95.4073 23.9838C94.653 24.0079 93.902 23.8742 93.2023 23.5915C92.5026 23.3087 91.8697 22.8831 91.3439 22.3417V28.5859H87.6336V10.0938H91.0484V11.7936C91.5575 11.1307 92.2205 10.6019 92.98 10.253C93.7395 9.90412 94.5727 9.7457 95.4073 9.79147C96.3111 9.79997 97.2037 9.99245 98.0307 10.3572C98.8577 10.7219 99.6017 11.2512 100.217 11.9129C100.833 12.5745 101.308 13.3546 101.612 14.2057C101.917 15.0567 102.045 15.9608 101.988 16.8629C102.046 17.7677 101.919 18.6747 101.615 19.5289C101.312 20.3832 100.838 21.167 100.223 21.8327C99.6074 22.4985 98.8634 23.0325 98.0356 23.4022C97.2079 23.772 96.3137 23.9699 95.4073 23.9838ZM94.7202 13.1362C94.2415 13.1273 93.7664 13.22 93.3263 13.4084C92.8861 13.5967 92.491 13.8763 92.1669 14.2287C91.8428 14.581 91.5973 14.9982 91.4464 15.4525C91.2955 15.9069 91.2427 16.3881 91.2916 16.8643C91.2426 17.3417 91.295 17.8241 91.4456 18.2798C91.5961 18.7355 91.8413 19.1542 92.1651 19.5085C92.4888 19.8628 92.8838 20.1446 93.3242 20.3354C93.7646 20.5262 94.2403 20.6218 94.7202 20.6158C95.2005 20.6177 95.676 20.5209 96.1173 20.3314C96.5586 20.1419 96.9563 19.8637 97.2856 19.5141C97.615 19.1646 97.8689 18.751 98.0318 18.2992C98.1947 17.8474 98.263 17.367 98.2325 16.8877C98.2704 16.4059 98.2074 15.9216 98.0478 15.4656C97.8881 15.0095 97.6352 14.5917 97.3051 14.2388C96.9751 13.8859 96.5752 13.6056 96.1308 13.4157C95.6865 13.2259 95.2075 13.1307 94.7243 13.1362H94.7202ZM115.449 23.6595L110.762 17.2711H108.054V23.6595H104.343V5.56042H111.14C114.927 5.56042 117.66 7.92123 117.66 11.3979C117.68 12.4708 117.391 13.5268 116.828 14.4405C116.265 15.3541 115.452 16.0871 114.485 16.5524L119.615 23.6486H115.449V23.6595ZM108.043 14.0115H111.139C111.496 14.0495 111.858 14.0096 112.199 13.8944C112.539 13.7792 112.851 13.5915 113.112 13.3442C113.374 13.097 113.578 12.7961 113.712 12.4622C113.846 12.1283 113.905 11.7694 113.887 11.4102C113.898 11.0539 113.834 10.6993 113.697 10.3699C113.561 10.0406 113.356 9.7441 113.096 9.50028C112.836 9.25645 112.527 9.07088 112.189 8.95593C111.852 8.84099 111.494 8.79931 111.139 8.83368H108.047L108.043 14.0115ZM132.049 23.6595H128.646V22.3417C128.104 22.8825 127.459 23.3071 126.748 23.5895C126.037 23.8718 125.275 24.006 124.511 23.9838C121.635 23.9838 119.823 22.306 119.823 19.9328C119.823 17.4882 121.801 15.989 124.953 15.989H128.357V15.3898C128.386 15.0578 128.339 14.7235 128.221 14.4119C128.102 14.1003 127.915 13.8195 127.673 13.5902C127.431 13.361 127.141 13.1892 126.823 13.0878C126.506 12.9863 126.17 12.9578 125.84 13.0043C125.138 13.0231 124.449 13.2013 123.826 13.5253C123.203 13.8493 122.662 14.3107 122.243 14.8745L120.319 12.5975C121.025 11.7075 121.926 10.9924 122.953 10.5081C123.98 10.0237 125.105 9.78317 126.241 9.80521C127.023 9.73084 127.811 9.83011 128.55 10.0959C129.289 10.3617 129.96 10.7875 130.516 11.3429C131.071 11.8982 131.497 12.5694 131.763 13.3084C132.029 14.0475 132.128 14.8361 132.053 15.6179V23.6609L132.049 23.6595ZM128.339 18.4212H125.438C124.228 18.4212 123.545 18.8884 123.545 19.7871C123.545 20.6859 124.311 21.2616 125.486 21.2616C125.852 21.2823 126.219 21.2283 126.563 21.1029C126.907 20.9774 127.223 20.7832 127.49 20.532C127.757 20.2807 127.969 19.9778 128.116 19.6416C128.262 19.3054 128.338 18.943 128.339 18.5765V18.4212ZM148.495 3.09104V23.6472H145.092V21.9693C144.582 22.6329 143.918 23.162 143.158 23.5109C142.398 23.8598 141.564 24.0179 140.729 23.9715C139.823 23.9622 138.929 23.7683 138.1 23.4018C137.272 23.0352 136.527 22.5036 135.911 21.8395C135.295 21.1753 134.821 20.3926 134.518 19.539C134.215 18.6855 134.089 17.7792 134.148 16.8753C134.089 15.9714 134.215 15.0651 134.518 14.2115C134.821 13.358 135.295 12.5753 135.911 11.9111C136.527 11.247 137.272 10.7154 138.1 10.3488C138.929 9.98225 139.823 9.78839 140.729 9.7791C141.482 9.7429 142.235 9.86865 142.936 10.1479C143.637 10.4271 144.27 10.8534 144.792 11.3979V3.09104H148.495ZM141.424 13.1362C140.944 13.1343 140.468 13.2311 140.027 13.4206C139.585 13.6101 139.188 13.8883 138.858 14.2378C138.529 14.5874 138.275 15.0009 138.112 15.4527C137.949 15.9045 137.881 16.385 137.912 16.8643C137.874 17.3464 137.937 17.831 138.097 18.2874C138.257 18.7437 138.51 19.1617 138.84 19.5147C139.171 19.8677 139.571 20.1479 140.016 20.3375C140.461 20.5271 140.94 20.6218 141.424 20.6158C141.903 20.6247 142.378 20.5319 142.818 20.3436C143.258 20.1553 143.653 19.8757 143.977 19.5233C144.301 19.1709 144.547 18.7538 144.698 18.2994C144.849 17.8451 144.901 17.3639 144.852 16.8877C144.9 16.4106 144.846 15.9291 144.694 15.4742C144.543 15.0194 144.298 14.6014 143.975 14.2476C143.651 13.8938 143.257 13.612 142.817 13.4205C142.378 13.229 141.903 13.1321 141.424 13.1362ZM162.854 23.6595H159.45V22.3417C158.909 22.8825 158.263 23.3071 157.552 23.5895C156.841 23.8718 156.08 24.006 155.315 23.9838C152.439 23.9838 150.628 22.306 150.628 19.9328C150.628 17.4882 152.606 15.989 155.758 15.989H159.162V15.3898C159.19 15.0578 159.144 14.7235 159.025 14.4119C158.907 14.1003 158.72 13.8195 158.478 13.5902C158.236 13.361 157.945 13.1892 157.628 13.0878C157.311 12.9863 156.974 12.9578 156.644 13.0043C155.942 13.0231 155.254 13.2013 154.631 13.5253C154.008 13.8493 153.467 14.3107 153.048 14.8745L151.124 12.5975C151.829 11.7075 152.731 10.9924 153.758 10.5081C154.785 10.0237 155.91 9.78317 157.045 9.80521C157.827 9.73084 158.616 9.83011 159.355 10.0959C160.094 10.3617 160.765 10.7875 161.32 11.3429C161.876 11.8982 162.302 12.5694 162.567 13.3084C162.833 14.0475 162.933 14.8361 162.858 15.6179V23.6609L162.854 23.6595ZM159.162 18.4212H156.262C155.052 18.4212 154.369 18.8884 154.369 19.7871C154.369 20.6859 155.135 21.2616 156.31 21.2616C156.676 21.2823 157.043 21.2283 157.387 21.1029C157.731 20.9774 158.047 20.7832 158.314 20.532C158.58 20.2807 158.793 19.9778 158.939 19.6416C159.085 19.3054 159.162 18.943 159.163 18.5765L159.162 18.4212ZM174.062 13.3519H173.079C172.596 13.2957 172.107 13.3476 171.647 13.5038C171.187 13.66 170.767 13.9167 170.418 14.2551C170.069 14.5936 169.8 15.0053 169.63 15.4607C169.46 15.916 169.393 16.4034 169.435 16.8877V23.6595H165.725V10.091H169.128V11.7098C169.572 11.1469 170.139 10.6932 170.785 10.3835C171.431 10.0738 172.14 9.91644 172.857 9.92339C173.267 9.91255 173.676 9.96918 174.067 10.091V13.3519H174.062Z" fill="currentColor"></path></svg>