<svg fill="none" height="33" viewbox="0 0 106 33" width="106"><g><path d="M0 16.5859C0 7.74938 7.16344 0.585938 16 0.585938C24.8366 0.585938 32 7.74938 32 16.5859C32 25.4225 24.8366 32.5859 16 32.5859C7.16344 32.5859 0 25.4225 0 16.5859Z" fill="currentColor"></path><path d="M14.5 7.83594C8.5 7.83594 6 10.3995 6 13.8359V19.3359C6 22.7724 8.5 25.3359 14.5 25.3359H20.3125C25.75 25.3359 26 24.6798 26 23.5859C26 22.336 25.5 21.8359 24.25 21.8359H14.5C11.5 21.8359 10 20.3394 10 18.8359V18.3359H24.25C25.25 18.3359 26 17.6797 26 16.5859C26 15.4922 25.25 14.8359 24.25 14.8359H10V14.3359C10 12.8325 11.5 11.3359 14.5 11.3359H24.25C25.5 11.3359 26 10.8359 26 9.58594C26 8.49213 25.75 7.83594 20.3125 7.83594H14.5Z" fill="white"></path><path d="M86.9581 10.0234C86.2994 10.0234 86 10.3652 86 11.1172V22.0547C86 22.8066 86.2994 23.1484 86.9581 23.1484H88.0419C88.7006 23.1484 89 22.8066 89 22.0547V11.1172C89 10.3652 88.7006 10.0234 88.0419 10.0234H86.9581Z" fill="currentColor"></path><path d="M64.5287 21.9863C65.3381 23.0224 66.2719 23.1484 67.2838 23.1484H68.0631C69.2013 23.1484 69.5 22.2598 69.5 21.7129V11.1172C69.5 10.3652 69.2006 10.0234 68.5419 10.0234H67.4581C66.7994 10.0234 66.5 10.3652 66.5 11.1172V19.7304L59.9714 11.1856C59.1616 10.1494 58.2284 10.0234 57.2161 10.0234H56.4369C55.299 10.0234 55 10.9121 55 11.459V22.0547C55 22.8066 55.2995 23.1484 55.9583 23.1484H57.0417C57.7005 23.1484 58 22.8066 58 22.0547V13.4414L64.5287 21.9863Z" fill="currentColor"></path><path d="M101.029 21.9863C101.838 23.0224 102.772 23.1484 103.784 23.1484H104.563C105.701 23.1484 106 22.2598 106 21.7129V11.1172C106 10.3652 105.701 10.0234 105.042 10.0234H103.958C103.299 10.0234 103 10.3652 103 11.1172V19.7304L96.4713 11.1856C95.6619 10.1494 94.7281 10.0234 93.7162 10.0234H92.9369C91.7987 10.0234 91.5 10.9121 91.5 11.459V22.0547C91.5 22.8066 91.7994 23.1484 92.4581 23.1484H93.5419C94.2006 23.1484 94.5 22.8066 94.5 22.0547V13.4414L101.029 21.9863Z" fill="currentColor"></path><path d="M44.375 10.0234C39.875 10.0234 38 11.9461 38 14.5234V18.6484C38 21.2257 39.875 23.1484 44.375 23.1484H48.7344C52.8125 23.1484 53 22.6563 53 21.8359C53 20.8985 52.625 20.5234 51.6875 20.5234H44.375C42.125 20.5234 41 19.401 41 18.2734V17.8984H51.6875C52.4375 17.8984 53 17.4062 53 16.5859C53 15.7656 52.4375 15.2734 51.6875 15.2734H41V14.8984C41 13.7709 42.125 12.6484 44.375 12.6484H51.6875C52.625 12.6484 53 12.2734 53 11.3359C53 10.5156 52.8125 10.0234 48.7344 10.0234H44.375Z" fill="currentColor"></path><path d="M80.5 18.1651V11.1172C80.5 10.3652 80.7994 10.0234 81.4581 10.0234H82.5419C83.2006 10.0234 83.5 10.3652 83.5 11.1172V18.4818C83.5 21.0591 81.6556 23.1484 79.3675 23.1484H75.7656C71.6875 23.1484 71.5 22.6563 71.5 21.8359C71.5 20.8985 71.875 20.5234 72.8125 20.5234H78.625C79.6263 20.5234 80.5 19.2926 80.5 18.1651Z" fill="currentColor"></path></g></svg>