<svg fill="none" height="19" viewbox="0 0 85 19" width="85"><g><path clip-rule="evenodd" d="M0 0.929688H10.2365V4.31889H0V0.929688ZM0 17.9046V7.72087H10.2365V11.11H3.40676V17.9046H0Z" fill="currentColor" fill-rule="evenodd"></path><path d="M19 0.585938H15V17.5859H19V0.585938Z" fill="currentColor"></path><path d="M31.5272 7.79575V11.229H33.6136V11.9483C33.6136 13.6976 32.2173 15.12 30.5 15.12C28.7827 15.12 27.3864 13.6976 27.3864 11.9483V7.20719C27.3864 5.45787 28.7827 4.03553 30.5 4.03553C31.1259 4.03553 31.7198 4.21537 32.2494 4.57504C32.3938 4.67313 32.5383 4.78757 32.6667 4.91837L32.779 5.01646L35.1222 2.53144L35.0099 2.43335C34.7852 2.20447 34.5284 1.99193 34.2716 1.8121C34.2235 1.7794 34.1914 1.7467 34.1432 1.73035H34.1272C34.0951 1.69766 34.0469 1.68131 34.0148 1.64861C32.9556 0.94561 31.7519 0.585938 30.5 0.585938C26.921 0.585938 24 3.54507 24 7.20719V11.9646C24 15.6104 26.9049 18.5859 30.5 18.5859C34.079 18.5859 37 15.6268 37 11.9646V7.79575H31.5272Z" fill="currentColor"></path><path d="M49.5267 0.585938V11.861V12.0115C49.5267 13.7011 48.1705 15.0729 46.5 15.0729C44.8295 15.0729 43.4733 13.7011 43.4733 12.0115V11.861V0.585938H40V11.861V12.0115C40 15.6417 42.9109 18.5859 46.5 18.5859C50.0394 18.5859 52.9173 15.7253 53 12.1621V12.0115V11.861V0.585938H49.5267Z" fill="currentColor"></path><path d="M66.3478 17.5697H70L66.996 11.0735C68.6719 10.104 69.7945 8.27796 69.7945 6.19335C69.7945 3.10685 67.3281 0.585938 64.3083 0.585938H64.166H61.336H59.9289H58V17.5859H61.3202V11.7846H63.6443L66.3478 17.5697ZM61.336 3.97948H64.166H64.3083C65.4941 3.97948 66.4743 4.96522 66.4743 6.19335C66.4743 7.40533 65.5099 8.40723 64.3083 8.40723H64.166H61.336V3.97948Z" fill="currentColor"></path><path d="M85 3.99564V0.585938H75V17.5859H85V14.1762H78.3439V10.7827H85V7.38917H78.3439V3.99564H85Z" fill="currentColor"></path></g></svg>