<svg xmlns="http://www.w3.org/2000/svg" xmlns:xlink="http://www.w3.org/1999/xlink" viewBox="0 0 809.21 175.1"><defs><style>.cls-1{fill:url(#未命名的渐变);}.cls-2{fill:url(#未命名的渐变_2);}.cls-3{fill:#e35cc7;}.cls-4{fill:#8961d0;}.cls-5,.cls-6{opacity:0.48;}.cls-5,.cls-6,.cls-7,.cls-9{isolation:isolate;}.cls-5{fill:url(#未命名的渐变_3);}.cls-6{fill:#480061;}.cls-7{opacity:0.75;fill:url(#未命名的渐变_4);}.cls-8{fill:url(#未命名的渐变_5);}.cls-9{opacity:0.43;fill:url(#未命名的渐变_6);}.cls-10{fill:#fff;}</style><linearGradient id="未命名的渐变" y1="123.73" x2="43.3" y2="123.73" gradientTransform="matrix(1, 0, 0, -1, 0, 178)" gradientUnits="userSpaceOnUse"><stop offset="0" stop-color="#4750d9"/><stop offset="0.41" stop-color="#5c45dc"/><stop offset="1" stop-color="#8131e1"/></linearGradient><linearGradient id="未命名的渐变_2" x1="22.2" y1="92" x2="146.6" y2="92" gradientTransform="matrix(1, 0, 0, -1, 0, 178)" gradientUnits="userSpaceOnUse"><stop offset="0" stop-color="#e96161"/><stop offset="0.2" stop-color="#e65b76"/><stop offset="0.61" stop-color="#df4aac"/><stop offset="1" stop-color="#d739e6"/></linearGradient><linearGradient id="未命名的渐变_3" x1="64.39" y1="137.3" x2="70.72" y2="137.3" gradientTransform="matrix(1, 0, 0, -1, 0, 178)" gradientUnits="userSpaceOnUse"><stop offset="0" stop-color="#b100d3"/><stop offset="0.23" stop-color="#9c00c0"/><stop offset="0.69" stop-color="#67008e"/><stop offset="1" stop-color="#40006a"/></linearGradient><linearGradient id="未命名的渐变_4" x1="13.97" y1="134.15" x2="93.8" y2="134.15" gradientTransform="matrix(1, 0, 0, -1, 0, 178)" gradientUnits="userSpaceOnUse"><stop offset="0" stop-color="#d0d7d3"/><stop offset="0.52" stop-color="#d9c5e8"/><stop offset="1" stop-color="#e3b1ff"/></linearGradient><linearGradient id="未命名的渐变_5" x1="13.71" y1="134.15" x2="56.99" y2="134.15" gradientTransform="matrix(1, 0, 0, -1, 0, 178)" gradientUnits="userSpaceOnUse"><stop offset="0" stop-color="#b277ec"/><stop offset="0.77" stop-color="#9336e7"/><stop offset="1" stop-color="#8921e6"/></linearGradient><linearGradient id="未命名的渐变_6" x1="71.77" y1="129.95" x2="92.51" y2="129.95" gradientTransform="matrix(1, 0, 0, -1, 0, 178)" gradientUnits="userSpaceOnUse"><stop offset="0" stop-opacity="0.5"/><stop offset="0.1" stop-color="#201322" stop-opacity="0.59"/><stop offset="0.25" stop-color="#4a2c4e" stop-opacity="0.72"/><stop offset="0.4" stop-color="#6d4173" stop-opacity="0.82"/><stop offset="0.55" stop-color="#885190" stop-opacity="0.9"/><stop offset="0.7" stop-color="#9b5da4" stop-opacity="0.95"/><stop offset="0.85" stop-color="#a664b0" stop-opacity="0.99"/><stop offset="1" stop-color="#aa66b4"/></linearGradient></defs><title>资源 2Flamingo-logo</title><g id="图层_2" data-name="图层 2"><g id="图层_1-2" data-name="图层 1"><g id="Layer_2" data-name="Layer 2"><g id="Layer_1-2" data-name="Layer 1-2"><path class="cls-1" d="M43.3,43l-1.1,1.1L17,69.3,9.4,76.9a5.63,5.63,0,0,1-1.5,1.5A5.1,5.1,0,0,1,.84,76.94,5,5,0,0,1,0,74.1V50.2A21.7,21.7,0,0,1,21.7,29.3H43.3L37,35.7,29.7,43Z"/><path class="cls-2" d="M146.6,56.8v1.6A56.41,56.41,0,0,1,131.8,95L60.3,166.5A21.62,21.62,0,0,1,45.9,172a29.51,29.51,0,0,1-4.3-.4l-4.2-1.3a102.16,102.16,0,0,1-13.1-5.6l-.9-.5a3,3,0,0,1-1.2-2.5,3.16,3.16,0,0,1,.6-1.9L103,79.5a7,7,0,0,0,1-1.4,16.2,16.2,0,0,0,1.2-3,13.6,13.6,0,0,0,.3-2,5.15,5.15,0,0,0,.1-1.3A13.4,13.4,0,0,0,92.2,58.4H62.9L82.6,38.7a5.63,5.63,0,0,0,1.5-1.5,5.15,5.15,0,0,0,.8-2.8,5.1,5.1,0,0,0-5.1-5.1H38s4-4.4,5.6-6c3.6-3.9,8-8.9,12.8-12.4A56.06,56.06,0,0,1,89.8,0a57.8,57.8,0,0,1,20.8,3.9L113.3,5a57.62,57.62,0,0,1,13.3,8.5l.8.7h.1a56.91,56.91,0,0,1,19.1,42.5Z"/><path class="cls-3" d="M88.7,29.3H38.3L14.8,52.8a3.3,3.3,0,0,0,2.4,5.6H71.8L92.9,37.2h0a4.49,4.49,0,0,0,.9-2.8,5.1,5.1,0,0,0-5.1-5.1Zm-21,14.6a3.3,3.3,0,0,1-3.3-3.2,3.4,3.4,0,0,1,.5-1.7h0a3.18,3.18,0,0,1,1-1h0a3.12,3.12,0,0,1,1.7-.5,3.2,3.2,0,0,1,.1,6.4Z"/><path class="cls-4" d="M44.8,29.3H37.9L14.7,52.4a3.5,3.5,0,0,0,2.5,6H27.9L57,29.3Z"/><circle class="cls-4" cx="67.6" cy="40.7" r="3.2"/><circle class="cls-5" cx="67.6" cy="40.7" r="3.2"/><path class="cls-6" d="M70.7,40.7a3.2,3.2,0,0,0-3.1-3.2,3.41,3.41,0,0,0-2.8,1.6,3.28,3.28,0,0,1,2.2-.8,3.1,3.1,0,0,1,3.1,3.1v.1a2.65,2.65,0,0,1-.4,1.5A3.1,3.1,0,0,0,70.7,40.7Z"/><path class="cls-7" d="M88.7,29.3H38.3L14.9,52.8a3.3,3.3,0,0,0,2.3,5.6H71.8L92.9,37.2a4.49,4.49,0,0,0,.9-2.8,5.1,5.1,0,0,0-5.1-5.1ZM67.6,43.9a3.2,3.2,0,0,1-3.2-3.2,3.4,3.4,0,0,1,.5-1.7h0a3.18,3.18,0,0,1,1-1h0a3.12,3.12,0,0,1,1.7-.5,3.2,3.2,0,0,1,3.1,3.2A3.29,3.29,0,0,1,67.6,43.9Z"/><path class="cls-8" d="M44.8,29.3H37.9L14.7,52.4a3.5,3.5,0,0,0,2.5,6H27.9L57,29.3Z"/><polygon class="cls-9" points="77.8 58.4 92.5 37.7 71.8 58.4 77.8 58.4"/><path class="cls-10" d="M254,48.4V63.1H216.1V86.5h29.1V101H216.1v38.5H197.8V48.4Z"/><path class="cls-10" d="M285.2,42.9v96.6H266.9V42.9Z"/><path class="cls-10" d="M302.9,83.6a31.94,31.94,0,0,1,11.9-13A31.13,31.13,0,0,1,331.5,66a29.43,29.43,0,0,1,14.2,3.3,27.92,27.92,0,0,1,9.7,8.2V67.2h18.4v72.3H355.4V128.9a26.64,26.64,0,0,1-9.7,8.4,32.1,32.1,0,0,1-30.9-1.4,32.46,32.46,0,0,1-11.9-13.2,42.79,42.79,0,0,1-4.4-19.6A42.1,42.1,0,0,1,302.9,83.6Zm49.9,8.3a18.34,18.34,0,0,0-7-7.3,19,19,0,0,0-19-.1,18.7,18.7,0,0,0-6.9,7.3,22.16,22.16,0,0,0-2.7,11.3,23.43,23.43,0,0,0,2.7,11.4,19.49,19.49,0,0,0,7,7.5,18.14,18.14,0,0,0,9.3,2.6,19.18,19.18,0,0,0,9.6-2.6,18.34,18.34,0,0,0,7-7.3,23.39,23.39,0,0,0,2.6-11.4A24,24,0,0,0,352.8,91.9Z"/><path class="cls-10" d="M502.9,74.3c5.5,5.4,8.2,13,8.2,22.8v42.4H492.8v-40c0-5.6-1.4-10-4.3-13S481.7,82,476.8,82s-8.9,1.5-11.8,4.5-4.4,7.4-4.4,13v40H442.3v-40c0-5.6-1.4-10-4.3-13S431.2,82,426.3,82s-9.1,1.5-12,4.5-4.3,7.4-4.3,13v40H391.7V67.2H410v8.7a24.84,24.84,0,0,1,9-7.2,29,29,0,0,1,12.2-2.6,31.65,31.65,0,0,1,15.2,3.6A25.54,25.54,0,0,1,456.7,80a25.42,25.42,0,0,1,10.2-10.1,29.51,29.51,0,0,1,14.6-3.8C490.3,66.1,497.5,68.8,502.9,74.3Z"/><path class="cls-10" d="M529.7,55.5a10,10,0,0,1-3.2-7.6,10,10,0,0,1,3.2-7.7,12.19,12.19,0,0,1,16,0,10,10,0,0,1,3.2,7.7,10,10,0,0,1-3.2,7.6A11.9,11.9,0,0,1,529.7,55.5Zm17,11.7v72.3H528.4V67.2Z"/><path class="cls-10" d="M625.7,74.3c5.3,5.4,7.9,13,7.9,22.8v42.4H615.3v-40c0-5.7-1.4-10.1-4.3-13.2s-6.8-4.6-11.7-4.6-9,1.5-11.9,4.6S583,93.8,583,99.5v40H564.7V67.2H583v9a24.33,24.33,0,0,1,9.3-7.4,28.69,28.69,0,0,1,12.5-2.7C613.4,66.1,620.3,68.8,625.7,74.3Z"/><path class="cls-10" d="M693.5,69.2a26.28,26.28,0,0,1,9.7,8.3V67.2h18.4V140a38.47,38.47,0,0,1-4.1,17.9,29.19,29.19,0,0,1-12.1,12.5c-5.4,3.1-11.9,4.7-19.6,4.7q-15.4,0-25.2-7.2a26.69,26.69,0,0,1-11.2-19.6h18.1a13.77,13.77,0,0,0,6.2,7.9,21.48,21.48,0,0,0,11.6,3q8,0,12.9-4.8c3.3-3.2,5-8,5-14.4V128.8a27,27,0,0,1-9.8,8.4,28.27,28.27,0,0,1-14.1,3.4,30.34,30.34,0,0,1-16.7-4.7,32.64,32.64,0,0,1-12-13.2,42.76,42.76,0,0,1-4.3-19.6,42.07,42.07,0,0,1,4.3-19.5,32.68,32.68,0,0,1,11.9-13A31.21,31.21,0,0,1,679.3,66,30.67,30.67,0,0,1,693.5,69.2Zm7,22.7a17.59,17.59,0,0,0-7-7.3A18.89,18.89,0,0,0,684,82a18.38,18.38,0,0,0-16.4,9.8,22.16,22.16,0,0,0-2.7,11.3,23.43,23.43,0,0,0,2.7,11.4,20.24,20.24,0,0,0,7,7.5,18.5,18.5,0,0,0,18.9,0,17.59,17.59,0,0,0,7-7.3,22.32,22.32,0,0,0,2.7-11.4A23,23,0,0,0,700.5,91.9Z"/><path class="cls-10" d="M752.7,136a34.21,34.21,0,0,1-13.1-13.1,40.29,40.29,0,0,1-4.7-19.6,38.3,38.3,0,0,1,4.9-19.6,34.18,34.18,0,0,1,13.3-13.1,41.29,41.29,0,0,1,37.9,0,35.12,35.12,0,0,1,13.4,13.1,39.31,39.31,0,0,1,4.8,19.6,37.31,37.31,0,0,1-5,19.6A35.46,35.46,0,0,1,790.7,136a39.5,39.5,0,0,1-19.2,4.6A38.18,38.18,0,0,1,752.7,136Zm28.2-13.7a17.23,17.23,0,0,0,6.9-7.2,24.19,24.19,0,0,0,2.7-11.8c0-6.9-1.9-12.1-5.5-15.8a17.8,17.8,0,0,0-13.2-5.6,17.39,17.39,0,0,0-13.1,5.6c-3.5,3.7-5.3,8.9-5.3,15.8s1.7,12.2,5.2,15.9a16.68,16.68,0,0,0,12.9,5.5A19.53,19.53,0,0,0,780.9,122.3Z"/></g></g></g></g></svg>