<svg width="44" height="44" viewBox="0 0 44 44" fill="none" xmlns="http://www.w3.org/2000/svg">
<path fill-rule="evenodd" clip-rule="evenodd" d="M34.9762 27.4143C39.0079 25.0079 39.0079 18.9921 34.9762 16.5857L32.8345 15.3074C32.5394 15.1312 32.1619 15.2358 31.9915 15.5409C31.9308 15.6496 31.9046 15.7691 31.9093 15.8859C31.896 15.9412 31.8896 15.9992 31.8913 16.0588L32.0744 22.6683C32.0821 22.9496 31.8637 23.182 31.5915 23.182C31.3247 23.182 31.1084 22.9584 31.1084 22.6826V20.9692C31.1084 20.0921 30.4206 19.3811 29.5721 19.3811C28.7236 19.3811 28.0358 20.0921 28.0358 20.9692V26.2973C28.0358 26.4885 27.8859 26.6435 27.7009 26.6435C27.516 26.6435 27.366 26.4885 27.366 26.2973V19.5947C27.366 18.7457 26.7002 18.0574 25.879 18.0574C25.0577 18.0574 24.3919 18.7457 24.3919 19.5947V23.8029C24.3919 24.0035 24.2346 24.1661 24.0406 24.1661C23.8466 24.1661 23.6893 24.0035 23.6893 23.8029V17.7621C23.6893 16.8381 22.9647 16.0891 22.0709 16.0891C21.1771 16.0891 20.4526 16.8381 20.4526 17.7621V28.8256C20.4526 29.2699 20.1042 29.63 19.6745 29.63C19.2448 29.63 18.8964 29.2699 18.8964 28.8256V15.0641C18.8964 14.1308 18.1645 13.3741 17.2616 13.3741C16.3588 13.3741 15.6269 14.1308 15.6269 15.0641V23.9726C15.6269 24.7167 15.0433 25.32 14.3235 25.32C13.6037 25.32 13.0201 24.7167 13.0201 23.9726V20.5294C13.0201 19.8952 12.5228 19.3811 11.9094 19.3811H9.14686V11.2612C9.14686 7.43069 13.158 5.03662 16.3669 6.95188L27.54 13.6206C27.5226 13.7186 27.5134 13.8196 27.5134 13.9228C27.5134 14.8388 28.2318 15.5815 29.1179 15.5815C30.004 15.5815 30.7224 14.8388 30.7224 13.9228C30.7224 13.0067 30.004 12.2641 29.1179 12.2641C28.7835 12.2641 28.473 12.3699 28.216 12.5508L16.984 5.84692C12.9523 3.44057 7.91267 6.44851 7.91267 11.2612V19.9735C7.91267 19.9791 7.91273 19.9846 7.91287 19.9901C7.91245 19.9996 7.91224 20.0093 7.91224 20.019C7.91224 20.3713 8.18853 20.6569 8.52934 20.6569H11.7859V23.9726C11.7859 25.4214 12.922 26.5959 14.3235 26.5959C15.725 26.5959 16.8611 25.4214 16.8611 23.9726V15.0641C16.8611 14.8354 17.0404 14.65 17.2616 14.65C17.4829 14.65 17.6622 14.8354 17.6622 15.0641V28.8256C17.6622 29.9745 18.5631 30.9059 19.6745 30.9059C20.7858 30.9059 21.6868 29.9745 21.6868 28.8256V17.7621C21.6868 17.5428 21.8588 17.365 22.0709 17.365C22.2831 17.365 22.4551 17.5428 22.4551 17.7621V23.8029C22.4551 24.7082 23.1649 25.442 24.0406 25.442C24.9163 25.442 25.6261 24.7082 25.6261 23.8029V19.5947C25.6261 19.4504 25.7393 19.3333 25.879 19.3333C26.0186 19.3333 26.1318 19.4504 26.1318 19.5947V26.2973C26.1318 27.1932 26.8343 27.9194 27.7009 27.9194C28.5675 27.9194 29.27 27.1932 29.27 26.2973V20.9692C29.27 20.7968 29.4053 20.6569 29.5721 20.6569C29.739 20.6569 29.8742 20.7968 29.8742 20.9692V22.6826C29.8742 23.663 30.6431 24.4578 31.5915 24.4578C32.5592 24.4578 33.3357 23.6317 33.308 22.6317L33.1512 16.9697L34.3591 17.6907C37.568 19.6059 37.568 24.3941 34.3591 26.3093L16.3669 37.0481C13.158 38.9634 9.14686 36.5693 9.14686 32.7388V24.7711C9.14686 24.738 9.14442 24.7055 9.13971 24.6737C9.76265 24.4459 10.2089 23.8316 10.2089 23.1096C10.2089 22.1935 9.49057 21.4509 8.60446 21.4509C7.71834 21.4509 7 22.1935 7 23.1096C7 23.777 7.38137 24.3524 7.93114 24.6156C7.91907 24.6653 7.91267 24.7175 7.91267 24.7711V32.7388C7.91267 37.5515 12.9523 40.5594 16.984 38.1531L34.9762 27.4143ZM29.1179 14.5607C29.4587 14.5607 29.735 14.2751 29.735 13.9228C29.735 13.5705 29.4587 13.2848 29.1179 13.2848C28.7771 13.2848 28.5008 13.5705 28.5008 13.9228C28.5008 14.2751 28.7771 14.5607 29.1179 14.5607Z" fill="#EF7E08"/>
</svg>
