<svg fill="none" height="33" viewbox="0 0 122 33" width="122"><g><path d="M60.8688 7.26882V25.9355C60.8688 26.0777 60.7621 26.2199 60.5843 26.2199H58.6288C57.7399 26.2199 56.8866 25.7577 56.3888 25.011L47.571 11.3933L47.8555 18.1844V25.971C47.8555 26.1133 47.7488 26.2555 47.571 26.2555H45.011C44.8688 26.2555 44.7266 26.1488 44.7266 25.971V7.26882C44.7266 7.1266 44.8332 6.98438 45.011 6.98438H46.931C47.8199 6.98438 48.6732 7.4466 49.171 8.19326L57.9888 21.7755L57.7043 14.9844V7.26882C57.7043 7.1266 57.811 6.98438 57.9888 6.98438H60.5488C60.7621 6.98438 60.8688 7.09104 60.8688 7.26882Z" fill="currentColor"></path><path d="M87.1104 26.1844H84.4082C84.2304 26.1844 84.0882 26.0066 84.1593 25.8288L91.3416 7.23326C91.4127 7.09104 91.5549 6.98438 91.6971 6.98438H95.1104C95.2882 6.98438 95.4304 7.09104 95.466 7.23326L102.684 25.8288C102.755 26.0066 102.613 26.1844 102.435 26.1844H99.7327C99.626 26.1844 99.5193 26.1133 99.4838 26.0066L93.6882 10.7177C93.6171 10.5044 93.2616 10.5044 93.1904 10.7177L87.3949 26.0066C87.3238 26.1133 87.2171 26.1844 87.1104 26.1844Z" fill="currentColor"></path><path d="M121.528 25.7577L116.124 18.8599C119.182 18.291 120.959 16.2288 120.959 13.0644C120.959 9.43771 118.613 6.98438 114.417 6.98438H106.879C106.666 6.98438 106.488 7.16215 106.488 7.37549C106.488 8.79771 107.626 9.93549 109.048 9.93549H114.133C116.657 9.93549 117.866 11.2155 117.866 13.0999C117.866 14.9844 116.693 16.2644 114.133 16.2644H106.95C106.737 16.2644 106.559 16.4422 106.559 16.6555V25.8999C106.559 26.0422 106.666 26.1844 106.844 26.1844H109.404C109.546 26.1844 109.688 26.0777 109.688 25.8999V19.0377H112.639L117.333 25.1533C117.831 25.8288 118.613 26.1844 119.466 26.1844H121.422C121.564 26.1844 121.67 25.9355 121.528 25.7577Z" fill="currentColor"></path><path d="M79.0049 6.98438H67.0938C66.8805 6.98438 66.7383 7.1266 66.7383 7.33993C66.7383 8.76215 67.9116 9.93549 69.3338 9.93549H79.0049C79.1472 9.93549 79.2894 9.82882 79.2894 9.65104V7.23326C79.2538 7.09104 79.1472 6.98438 79.0049 6.98438ZM79.0049 23.2333H70.1161C69.9738 23.2333 69.8316 23.1266 69.8316 22.9488V18.1488C69.8316 18.0066 69.9383 17.8644 70.1161 17.8644H78.3294C78.4716 17.8644 78.6138 17.7577 78.6138 17.5799V15.1622C78.6138 15.0199 78.5072 14.8777 78.3294 14.8777H67.1294C66.9161 14.8777 66.7383 15.0555 66.7383 15.2688V25.7577C66.7383 25.971 66.9161 26.1488 67.1294 26.1488H79.0049C79.1472 26.1488 79.2894 26.0422 79.2894 25.8644V23.4466C79.2538 23.3399 79.1472 23.2333 79.0049 23.2333Z" fill="currentColor"></path><path d="M25.6711 2.22149L18.9867 12.1415C18.5244 12.817 19.4133 13.6348 20.0533 13.0659L26.6311 7.34149C26.8089 7.19927 27.0578 7.30594 27.0578 7.55483V25.4393C27.0578 25.6882 26.7378 25.7948 26.5956 25.6171L6.68444 1.79483C6.04444 1.0126 5.12 0.585938 4.08889 0.585938H3.37778C1.52889 0.585938 0 2.11483 0 3.99927V29.1726C0 31.0571 1.52889 32.5859 3.41333 32.5859C4.58667 32.5859 5.68889 31.9815 6.32889 30.9504L13.0133 21.0304C13.4756 20.3548 12.5867 19.5371 11.9467 20.1059L5.36889 25.7948C5.19111 25.937 4.94222 25.8304 4.94222 25.5815V7.7326C4.94222 7.48372 5.26222 7.37705 5.40444 7.55483L25.3156 31.377C25.9556 32.1593 26.9156 32.5859 27.9111 32.5859H28.6222C30.5067 32.5859 32.0356 31.0571 32.0356 29.1726V3.99927C32 2.11483 30.4711 0.585938 28.5867 0.585938C27.4133 0.585938 26.3111 1.19038 25.6711 2.22149Z" fill="currentColor"></path></g></svg>