<svg fill="none" height="33" viewbox="0 0 126 33" width="126"><g><path d="M64.6486 10.9586C64.6486 13.2843 64.6486 25.2726 64.6486 25.2726C63.8014 23.7276 62.8324 21.8671 61.8966 20.0619C61.5312 19.3587 61.1712 18.661 60.8168 17.9855C59.067 14.641 57.6218 11.9553 56.5254 10.0118C55.9496 8.98736 54.8476 8.09585 53.6904 8.40041C53.131 8.54437 52.1953 9.07596 52.1953 10.9586V28.7334C52.1953 28.7334 54.7369 28.5948 54.7369 25.8428C54.7369 23.0908 54.7369 12.0107 54.7369 12.0107C55.7613 13.8546 57.046 16.2578 58.5686 19.1648C58.923 19.8404 59.283 20.5326 59.6485 21.2359C60.756 23.3678 61.9021 25.566 62.8601 27.277C63.3585 28.163 64.25 28.9492 65.2301 28.9492C65.385 28.9492 65.5401 28.9327 65.6952 28.8884C66.2545 28.7444 67.1902 28.2128 67.1902 26.3302V8.55545C67.1848 8.54992 64.6486 8.62744 64.6486 10.9586Z" fill="currentColor"></path><path d="M77.4645 15.293C73.7545 15.293 70.7422 18.3107 70.7422 22.0152C70.7422 25.7252 73.7601 28.743 77.4645 28.743C81.169 28.743 84.1867 25.7252 84.1867 22.0152C84.1923 18.3052 81.1745 15.293 77.4645 15.293ZM77.4645 26.2014C75.1554 26.2014 73.2783 24.3243 73.2783 22.0152C73.2783 19.7062 75.1554 17.829 77.4645 17.829C79.7735 17.829 81.6507 19.7062 81.6507 22.0152C81.6507 24.3243 79.7735 26.2014 77.4645 26.2014Z" fill="currentColor"></path><path d="M98.4797 8.41408V14.6325V15.236V17.6116C97.2449 16.194 95.4286 15.2914 93.4021 15.2914C89.6921 15.2914 86.6797 18.3092 86.6797 22.0137C86.6797 25.7237 89.6976 28.7414 93.4021 28.7414C95.4286 28.7414 97.2449 27.8389 98.4797 26.4213C98.4797 26.4878 98.4797 26.5488 98.4797 26.6041C98.4797 29.1789 101.021 29.1457 101.021 29.1457V26.4657V22.5009V18.9238V18.2705V18.2206C101.021 18.0601 101.021 17.4233 101.021 15.247C101.021 15.0588 101.021 14.8594 101.021 14.6436C101.021 13.9901 101.021 13.3866 101.021 12.8384C101.021 12.7941 101.021 12.7498 101.021 12.7055C101.021 11.9635 101.021 11.3544 101.021 10.9612C101.021 8.38086 98.4797 8.41408 98.4797 8.41408ZM93.4076 26.1998C91.0985 26.1998 89.2214 24.3228 89.2214 22.0137C89.2214 19.7046 91.0985 17.8274 93.4076 17.8274C95.7166 17.8274 97.5938 19.7046 97.5938 22.0137C97.5938 24.3228 95.711 26.1998 93.4076 26.1998Z" fill="currentColor"></path><path d="M105.449 8.41406H105.657C106.946 8.41406 107.991 9.45873 107.991 10.7474V29.1457H107.783C106.494 29.1457 105.449 28.101 105.449 26.8124V8.41406Z" fill="currentColor"></path><path d="M124.124 21.5896C124.124 17.8796 121.106 14.8672 117.402 14.8672C113.692 14.8672 110.68 17.8851 110.68 21.5896C110.68 25.2995 113.697 28.3173 117.402 28.3173C119.257 28.3173 120.935 27.5643 122.153 26.3461L120.359 24.552C119.6 25.3105 118.554 25.7812 117.402 25.7812C115.536 25.7812 113.952 24.552 113.415 22.8576H124.13V21.5896H124.124ZM117.402 17.4033C119.268 17.4033 120.852 18.6327 121.389 20.3271H113.41C113.947 18.6327 115.53 17.4033 117.402 17.4033Z" fill="currentColor"></path><path d="M18.0781 17.3813L20.6197 17.4422L20.6475 15.8031L18.1059 15.7422L18.0781 17.3813Z" fill="currentColor"></path><path d="M25.8378 0.585938C23.0359 0.585938 21.4744 1.40546 20.0902 3.02235C18.6782 4.67246 18.3514 6.80431 18.3238 8.29938L18.2462 12.5797L20.6162 12.6351L20.6936 8.35476C20.7159 7.25838 21.0758 6.18414 21.6904 5.40892C22.3438 4.57832 23.2519 4.1298 24.2486 4.1298C24.2708 4.1298 24.2874 4.1298 24.3095 4.1298C25.4447 4.15195 26.3251 4.4122 26.9287 4.91056C27.5766 5.44768 27.8978 6.25612 27.8811 7.30822C27.8644 8.36583 27.4326 9.357 26.6628 10.0935C25.8987 10.8299 24.8964 11.2286 23.8334 11.2065L21.5187 11.1622L21.4911 12.6462L23.8056 12.6905C23.8388 12.6905 23.872 12.6905 23.9054 12.6905C26.8734 12.6905 29.3098 10.3039 29.3651 7.33035C29.3762 6.60498 29.2488 5.8962 28.983 5.22619L28.8778 4.96594L29.055 5.18188C29.8247 6.12323 30.2344 7.31375 30.2178 8.52642C30.168 11.3338 27.8644 13.5875 25.0682 13.5875C25.035 13.5875 25.0072 13.5875 24.974 13.5875L20.6494 13.51L18.1908 13.4546L11.5073 13.3328C11.452 13.3328 11.3966 13.3328 11.3412 13.3328C9.00448 13.3328 6.79511 14.2243 5.10069 15.8578C3.36752 17.5301 2.39296 19.7726 2.34865 22.1703C2.32097 23.5546 2.60892 24.8946 3.19587 26.1461L3.12388 26.1903C2.02749 24.6621 1.46269 22.8569 1.49592 20.9742C1.54021 18.6541 2.48156 16.489 4.15381 14.8777C5.82608 13.2663 8.01884 12.3914 10.339 12.4413L17.3714 12.5686L17.399 11.0846L10.3667 10.9573C10.3057 10.9573 10.2393 10.9573 10.1784 10.9573C7.53156 10.9573 5.03424 11.9651 3.11835 13.8145C1.15814 15.7027 0.0562213 18.2389 0.00638576 20.9521C-0.0545244 24.3133 1.00863 27.2757 2.99099 29.2967C5.13392 31.4785 8.27356 32.5859 12.3269 32.5859C15.0623 32.5859 17.1664 31.7442 18.584 30.0831C19.7136 28.7541 20.3559 26.9047 20.3947 24.8725L20.4722 20.5922L18.1023 20.5367L18.0247 24.8171C18.0026 25.9135 17.6427 26.9877 17.028 27.763C16.358 28.6102 15.4332 29.0642 14.4088 29.0421C13.2737 29.0199 12.3933 28.7597 11.7897 28.2613C11.1419 27.7242 10.8207 26.9213 10.8373 25.8637C10.8761 23.6986 12.6536 21.9599 14.8075 21.9599C14.8298 21.9599 14.8574 21.9599 14.8795 21.9599L17.1942 22.0042L17.2218 20.5202L14.9072 20.4814C14.874 20.4814 14.8408 20.4814 14.8075 20.4814C11.8396 20.4814 9.40316 22.8679 9.34779 25.8415C9.33672 26.5669 9.46408 27.2757 9.72987 27.9457L9.83508 28.2059L9.65788 27.9899C8.8882 27.0431 8.47291 25.8581 8.49505 24.6454C8.54489 21.8381 10.8484 19.5843 13.6447 19.5843C13.6779 19.5843 13.7056 19.5843 13.7388 19.5843L18.0635 19.6619L20.522 19.7173L27.2055 19.8391C27.261 19.8391 27.3163 19.8391 27.3716 19.8391C32.2611 19.8391 36.2756 15.9077 36.3642 11.0016C36.3864 9.61726 36.104 8.27723 35.517 7.0258L35.589 6.98151C36.6854 8.5098 37.2502 10.315 37.217 12.1976C37.1727 14.5178 36.2314 16.6773 34.5591 18.2942C32.8868 19.9055 30.6884 20.7749 28.3739 20.7306L21.3415 20.6033L21.3139 22.0873L28.3462 22.2146C28.4071 22.2146 28.468 22.2146 28.529 22.2146C31.1868 22.2146 33.878 21.1791 35.9379 19.3574C38.1195 17.4303 38.7895 14.8943 38.8394 12.2198C38.8947 9.09675 37.8039 6.23951 35.7718 4.16303C33.4848 1.82076 30.0462 0.585938 25.8378 0.585938ZM27.3827 18.3441C27.3384 18.3441 27.2886 18.3441 27.2443 18.3441L20.5608 18.2222L18.1023 18.1669L13.7776 18.0893C13.7388 18.0893 13.6946 18.0893 13.6558 18.0893C11.9282 18.0893 10.3002 18.7482 9.04879 19.9498C7.76967 21.1846 7.04983 22.8347 7.0166 24.6067C6.99999 25.5535 7.18272 26.4727 7.55372 27.3421L7.6866 27.6578L7.47619 27.3865C6.59023 26.2346 6.13616 24.8614 6.16385 23.4162C6.22476 19.9665 9.05432 17.1978 12.493 17.1978C12.5317 17.1978 12.5705 17.1978 12.6093 17.1978L17.2827 17.2809L17.3104 15.7969L12.6369 15.7138C12.5871 15.7138 12.5428 15.7138 12.493 15.7138C8.24588 15.7138 4.75184 19.1303 4.67432 23.3941C4.65217 24.5569 4.88473 25.6865 5.36095 26.7441L5.52707 27.1151L5.28896 26.7883C4.29779 25.4483 3.79389 23.8647 3.82157 22.1979C3.89356 18.1003 7.24916 14.8223 11.3301 14.8223C11.3744 14.8223 11.4187 14.8223 11.4686 14.8223L18.1908 14.9441V14.9663L20.5608 15.0217V14.9995H20.6051L24.9298 15.077C24.9684 15.077 25.0128 15.077 25.0515 15.077C26.7792 15.077 28.4071 14.4181 29.6586 13.2165C30.9376 11.9817 31.6575 10.3316 31.6907 8.55963C31.7074 7.61276 31.5246 6.69358 31.1536 5.82422L31.0207 5.50859L31.2311 5.77992C32.1171 6.93167 32.5712 8.30492 32.5435 9.75015C32.5158 11.439 31.8236 13.0172 30.6055 14.191C29.415 15.3373 27.859 15.9685 26.2144 15.9685C26.1756 15.9685 26.1368 15.9685 26.098 15.9685L21.4246 15.8855L21.397 17.3694L26.0704 17.4525C26.1202 17.4525 26.1646 17.4525 26.2144 17.4525C28.2466 17.4525 30.168 16.6773 31.6354 15.2598C33.1415 13.809 33.9887 11.8599 34.0275 9.77784C34.0496 8.615 33.8171 7.4854 33.3354 6.42778L33.1692 6.05678L33.4074 6.38348C34.3984 7.72351 34.9024 9.31271 34.8747 10.9739C34.8194 15.0659 31.4638 18.3441 27.3827 18.3441Z" fill="currentColor"></path></g></svg>