<svg width="180" height="34" viewBox="0 0 180 34" fill="none" xmlns="http://www.w3.org/2000/svg">
<mask id="mask0" mask-type="alpha" maskUnits="userSpaceOnUse" x="0" y="0" width="180" height="34">
<path fill-rule="evenodd" clip-rule="evenodd" d="M0 0H180V33.1084H0V0Z" fill="white"/>
</mask>
<g mask="url(#mask0)">
<path fill-rule="evenodd" clip-rule="evenodd" d="M176.638 6.56261C174.13 3.35347 170.448 1.32251 166.377 1.32251C158.502 1.32251 152.741 8.64005 152.741 16.5674C152.741 22.0937 156.409 26.2293 160.489 26.2293C160.87 26.2293 161.248 26.1948 161.621 26.1262C158.889 24.1334 157.14 20.5037 157.14 16.5674C157.14 10.2996 161.38 5.41527 166.377 5.41527C171.826 5.41527 175.616 10.827 175.616 16.5674C175.602 20.807 174.09 25.0221 171.431 28.1323C169.109 30.8472 166.103 32.5689 162.797 33.1152C162.797 33.1152 163.073 33.1354 163.433 33.1354C172.583 33.1354 180 25.7175 180 16.5674C180 12.8083 178.748 9.34235 176.638 6.56261ZM174.123 16.568C174.123 11.0412 170.456 6.90564 166.376 6.90564C165.995 6.90564 165.617 6.94016 165.244 7.00919C167.976 9.00196 169.724 12.6317 169.724 16.568C169.724 22.8358 165.485 27.7201 160.488 27.7201C155.038 27.7201 151.249 22.3084 151.249 16.568C151.263 12.3284 152.775 8.11327 155.434 5.00308C157.756 2.28823 160.762 0.566534 164.068 0.0202498C164.068 0.0202498 163.793 0 163.432 0C154.282 0 146.864 7.41787 146.864 16.568C146.864 20.3267 148.117 23.7926 150.227 26.5733C152.734 29.7815 156.417 31.8129 160.488 31.8129C168.363 31.8129 174.123 24.4954 174.123 16.568Z" fill="#FF4212"/>
<path fill-rule="evenodd" clip-rule="evenodd" d="M97.5849 20.082L99.2615 15.9041L100.939 20.082H97.5849ZM98.7815 10.3887L92.5607 25.0371L95.5949 25.0376L96.6129 22.5008H101.909L102.927 25.0376H105.962L99.7406 10.3887H98.7815ZM65.85 16.7766L64.2148 16.0568C63.6041 15.7806 63.172 15.5303 62.9179 15.3048C62.6634 15.0793 62.5369 14.7778 62.5369 14.4C62.5369 13.9494 62.7072 13.6042 63.0482 13.3645C63.3897 13.1252 63.8149 13.005 64.3235 13.005C65.4137 13.005 66.3291 13.5573 67.0705 14.6618L69.0762 13.1137C68.6256 12.2857 67.997 11.6244 67.1906 11.1301C66.3839 10.6363 65.428 10.3887 64.3235 10.3887C62.9432 10.3887 61.8024 10.7633 60.9012 11.5112C60.0001 12.2599 59.55 13.2444 59.55 14.4658C59.55 15.4102 59.8515 16.2091 60.4539 16.8635C61.0577 17.5171 61.9183 18.0983 63.0376 18.6073L64.5858 19.305C65.0506 19.5232 65.3884 19.6898 65.5992 19.8057C65.81 19.9222 65.9982 20.0934 66.1657 20.3184C66.3328 20.5435 66.4165 20.8021 66.4165 21.0925C66.4165 21.5868 66.2348 21.9748 65.8717 22.2587C65.5085 22.5422 65.0064 22.684 64.3672 22.684C63.016 22.684 61.8387 21.9863 60.8359 20.5904L58.8086 22.117C59.3609 23.0908 60.1202 23.8649 61.0867 24.4384C62.0527 25.0127 63.1467 25.2994 64.3672 25.2994C65.8353 25.2994 67.0411 24.9069 67.9859 24.1222C68.9303 23.3375 69.4029 22.291 69.4029 20.9835C69.4029 20.0096 69.1121 19.1996 68.5313 18.553C67.9496 17.9059 67.0563 17.3136 65.85 16.7766ZM50.7289 10.6513V22.0961C50.7289 23.7212 52.0465 25.0388 53.6715 25.0388V13.5935C53.6715 11.9685 52.3539 10.6513 50.7289 10.6513ZM135.402 18.5529C134.82 17.9063 133.927 17.314 132.722 16.7774L131.087 16.0576C130.477 15.7815 130.045 15.5311 129.79 15.306C129.536 15.081 129.409 14.7791 129.409 14.4012C129.409 13.9511 129.58 13.606 129.921 13.3667C130.263 13.1264 130.688 13.0072 131.196 13.0072C132.285 13.0072 133.201 13.559 133.942 14.6631L135.946 13.1158C135.496 12.2874 134.868 11.627 134.062 11.1327C133.256 10.6385 132.3 10.3918 131.196 10.3918C129.815 10.3918 128.675 10.7659 127.774 11.5143C126.874 12.2621 126.424 13.2465 126.424 14.4671C126.424 15.4114 126.725 16.2104 127.328 16.8644C127.931 17.5174 128.792 18.0982 129.91 18.6077L131.457 19.3045C131.922 19.5231 132.261 19.6897 132.471 19.8056C132.682 19.9221 132.87 20.0928 133.037 20.3179C133.204 20.5434 133.288 20.8011 133.288 21.0915C133.288 21.5853 133.106 21.9742 132.742 22.2577C132.38 22.5403 131.879 22.682 131.239 22.682C129.888 22.682 128.712 21.9848 127.709 20.5903L125.683 22.116C126.235 23.0889 126.994 23.8625 127.96 24.4364C128.926 25.0103 130.019 25.2975 131.239 25.2975C132.706 25.2975 133.912 24.9054 134.857 24.1198C135.801 23.3355 136.273 22.2899 136.273 20.9829C136.273 20.0091 135.982 19.1991 135.402 18.5529ZM118.047 22.028C117.685 22.3479 117.183 22.5071 116.544 22.5071H113.188L113.187 18.8898H116.544C117.183 18.8898 117.685 19.0536 118.047 19.3804C118.411 19.7076 118.591 20.1466 118.591 20.6984C118.591 21.265 118.411 21.7082 118.047 22.028ZM113.188 13.181H116.091C116.73 13.181 117.231 13.3412 117.594 13.6606C117.957 13.98 118.139 14.4232 118.139 14.9897C118.139 15.5415 117.957 15.9815 117.594 16.3078C117.231 16.635 116.73 16.7984 116.091 16.7984H113.187L113.188 13.181ZM119.804 17.6787C120.016 17.4987 120.211 17.305 120.372 17.0813C120.815 16.4715 121.038 15.7379 121.038 14.881C121.038 13.631 120.598 12.6144 119.719 11.8301C118.84 11.0455 117.703 10.6529 116.308 10.6529H110.355V25.0358H116.762C118.156 25.0358 119.293 24.6432 120.172 23.859C121.051 23.0738 121.491 22.0572 121.491 20.8082C121.491 19.9512 121.27 19.2172 120.825 18.6069C120.557 18.2355 120.21 17.9318 119.804 17.6787ZM82.3715 10.6529H79.4293V25.0358H86.01C87.4786 25.0358 88.6692 23.8452 88.6692 22.3766H82.3715V10.6529ZM10.9258 21.2455C10.0463 22.1319 8.94591 22.5751 7.62323 22.5751C6.27202 22.5751 5.1638 22.1356 4.29905 21.2565C3.43429 20.3771 3.00168 19.2399 3.00168 17.8445C3.00168 16.4643 3.43797 15.3303 4.31009 14.4439C5.18175 13.557 6.28629 13.1138 7.62323 13.1138C8.94591 13.1138 10.0463 13.557 10.9258 14.4439C11.8053 15.3303 12.2448 16.4643 12.2448 17.8445C12.2448 19.2256 11.8053 20.3591 10.9258 21.2455ZM7.60197 10.3889C5.48034 10.3889 3.67811 11.1054 2.19665 12.5367C0.713353 13.968 -0.0271454 15.7376 -0.0271454 17.8445C-0.0271454 19.9518 0.713353 21.7218 2.19665 23.1531C3.67811 24.5844 5.48034 25.3001 7.60197 25.3001C9.72405 25.3001 11.5336 24.5844 13.0303 23.1531C14.5269 21.7218 15.2757 19.9518 15.2757 17.8445C15.2757 15.7376 14.5269 13.968 13.0303 12.5367C11.5336 11.1054 9.72405 10.3889 7.60197 10.3889ZM41.7261 16.7766L40.0914 16.0568C39.4807 15.7806 39.0485 15.5303 38.794 15.3048C38.5395 15.0793 38.413 14.7778 38.413 14.4C38.413 13.9494 38.5832 13.6042 38.9247 13.3645C39.2667 13.1252 39.6915 13.005 40.2 13.005C41.2903 13.005 42.2057 13.5573 42.9466 14.6618L44.9523 13.1137C44.5017 12.2857 43.8735 11.6244 43.0667 11.1301C42.26 10.6363 41.3045 10.3887 40.2 10.3887C38.8193 10.3887 37.6784 10.7633 36.7782 11.5112C35.8762 12.2599 35.4261 13.2444 35.4261 14.4658C35.4261 15.4102 35.728 16.2091 36.3309 16.8635C36.9343 17.5171 37.7949 18.0983 38.9141 18.6073L40.4619 19.305C40.9267 19.5232 41.2645 19.6898 41.4753 19.8057C41.6861 19.9222 41.8748 20.0934 42.0427 20.3184C42.2093 20.5435 42.2926 20.8021 42.2926 21.0925C42.2926 21.5868 42.1108 21.9748 41.7477 22.2587C41.3846 22.5422 40.8834 22.684 40.2437 22.684C38.892 22.684 37.7153 21.9863 36.712 20.5904L34.6847 22.117C35.237 23.0908 35.9963 23.8649 36.9633 24.4384C37.9297 25.0127 39.0228 25.2994 40.2437 25.2994C41.7118 25.2994 42.9176 24.9069 43.862 24.1222C44.8068 23.3375 45.2795 22.291 45.2795 20.9835C45.2795 20.0096 44.9891 19.1996 44.4074 18.553C43.8261 17.9059 42.9323 17.3136 41.7261 16.7766ZM22.851 20.082L24.528 15.9041L26.2046 20.082H22.851ZM24.0483 10.3887L17.827 25.0371L20.8613 25.0376L21.8793 22.5008H27.176L28.194 25.0376H31.2287L25.0074 10.3887H24.0483Z" fill="#FF4212"/>
</g>
</svg>
