<svg width="129" height="32" viewBox="0 0 129 32" fill="none" xmlns="http://www.w3.org/2000/svg">
<path d="M105.376 29.8333C105.376 29.5243 105.49 29.2409 105.622 29.0006L105.643 28.9414L110.087 21.2922L110.215 21.0541C110.478 20.6645 110.962 20.3988 111.473 20.3988C112.002 20.3988 112.471 20.6646 112.748 21.0541L112.876 21.2922L114.668 24.3378C115.082 25.0853 116.051 25.3395 116.799 24.9047C117.305 24.6228 117.574 24.0896 117.574 23.5383C117.574 23.2802 117.531 23.0189 117.35 22.7708L113.864 16.704L113.59 16.2316C113.559 16.0603 113.492 15.8851 113.492 15.6985C113.492 15.5133 113.559 15.3359 113.59 15.1784L113.864 14.6906L119.968 4.09859L120.198 3.70854C120.519 3.34062 120.932 3.10077 121.438 3.10077C121.939 3.10077 122.408 3.34449 122.678 3.72237C122.783 3.83285 122.864 3.95659 122.91 4.09085L128.579 13.8832C129.14 14.8812 129.14 16.5127 128.579 17.509L121.564 29.589C121.021 30.5852 119.578 31.4024 118.444 31.4024H106.966C106.104 31.4024 105.376 30.6996 105.376 29.8333Z" fill="url(#paint0_linear)"/>
<path d="M117.576 1.55325C117.576 1.86433 117.472 2.16545 117.33 2.40576L117.316 2.45109L112.876 10.1041L112.748 10.3401C112.47 10.7457 112.002 11.0138 111.473 11.0138C110.962 11.0138 110.478 10.7458 110.214 10.3401L110.087 10.102L108.296 7.06469C107.868 6.31336 106.91 6.05306 106.159 6.48456C105.655 6.76974 105.376 7.30887 105.376 7.84828C105.376 8.11402 105.431 8.3875 105.612 8.63389L109.097 14.6924L109.358 15.1785C109.405 15.336 109.468 15.5096 109.468 15.6986C109.468 15.8853 109.405 16.0604 109.358 16.2317L109.097 16.7041L102.996 27.2999L102.762 27.6955C102.453 28.0635 102.018 28.3078 101.52 28.3078C101.024 28.3078 100.556 28.0597 100.279 27.684C100.179 27.5735 100.112 27.4475 100.053 27.3138L94.396 17.5091C93.8214 16.5128 93.8214 14.8813 94.396 13.8834L101.394 1.8013C101.939 0.809476 103.384 0 104.506 0H116.033C116.862 9.2143e-05 117.576 0.685175 117.576 1.55325Z" fill="url(#paint1_linear)"/>
<path d="M11.1676 6.2795C12.1282 6.64144 12.8133 7.27732 13.2354 8.21229C13.6499 9.0941 13.8625 10.376 13.8625 12.0629C13.8625 13.7022 13.6617 14.982 13.2492 15.9167C12.8624 16.8102 12.213 17.4306 11.3116 17.8064C10.3921 18.1805 9.15007 18.338 7.57258 18.338C6.16196 18.338 4.83336 18.2888 3.55404 18.1529V25.6169H0V5.98603C1.07761 5.86403 2.09736 5.78718 3.03417 5.76175C3.97514 5.73798 5.3394 5.73798 7.12071 5.73798C8.86286 5.73807 10.2063 5.90927 11.1676 6.2795ZM8.99656 15.1631C9.45322 14.9464 9.7701 14.604 9.97677 14.1154C10.1717 13.6729 10.2663 12.9524 10.2663 12.0629C10.2663 11.128 10.1718 10.4545 9.97677 9.96439C9.7701 9.46655 9.45322 9.13004 8.99656 8.96427C8.52912 8.74764 7.88458 8.6438 7.0282 8.6438C5.3828 8.6438 4.22715 8.65154 3.55414 8.7106V15.4443H7.0282C7.88448 15.4421 8.52902 15.3244 8.99656 15.1631Z" fill="white"/>
<path d="M29.6212 22.7531L29.7936 25.4202C28.649 25.5285 27.4089 25.6091 26.0881 25.6345C24.7654 25.6482 23.1138 25.6583 21.1554 25.6583C19.8327 25.6583 18.8326 25.355 18.0856 24.662C17.3328 24.0167 16.9491 23.1188 16.9314 21.932V9.63555C16.9491 8.49178 17.3328 7.60223 18.0856 6.90931C18.8326 6.25409 19.8327 5.9115 21.1554 5.9115C23.1138 5.9115 24.7654 5.93684 26.0881 5.98604C27.4089 5.99 28.649 6.05303 29.7936 6.14573L29.6212 8.87795H21.9378C21.4231 8.87795 21.0587 9.0017 20.8463 9.24984C20.6219 9.49568 20.5344 9.94653 20.5344 10.5174V13.9717H28.5615V16.7001H20.5344V21.07C20.5344 21.6861 20.622 22.1331 20.8463 22.3828C21.0587 22.6287 21.4231 22.753 21.9378 22.753H29.6212V22.7531Z" fill="white"/>
<path d="M47.9392 25.6168H44.1599L42.589 19.5369C42.4011 18.9064 42.1453 18.4423 41.7723 18.1804C41.404 17.9086 40.9258 17.7826 40.3194 17.7826H36.7834V25.6168H33.2461V5.98603C34.3238 5.86403 35.3354 5.78718 36.2844 5.76175C37.2469 5.73798 38.62 5.73798 40.4062 5.73798C42.0635 5.73798 43.3921 5.88983 44.3803 6.23629C45.3466 6.59601 46.0633 7.15523 46.5337 8C46.9943 8.84421 47.2384 9.98411 47.2384 11.4644C47.2384 12.9838 46.9411 14.1745 46.3742 14.9481C45.7897 15.7846 44.8764 16.2356 43.5537 16.4366V16.5626C44.1321 16.6902 44.6617 17.0228 45.1537 17.4621C45.6477 17.9439 45.9941 18.5937 46.1616 19.4479L47.9392 25.6168ZM42.3117 14.5525C42.7781 14.3498 43.1186 14.0608 43.3058 13.5884C43.5162 13.1314 43.6146 12.5038 43.6146 11.7064C43.6146 10.8776 43.5163 10.2577 43.3058 9.83604C43.1187 9.38362 42.7781 9.09401 42.3117 8.89572C41.8156 8.73825 41.1669 8.6438 40.3196 8.6438H36.7834V14.8222H40.3195C41.1669 14.8183 41.8156 14.7045 42.3117 14.5525Z" fill="white"/>
<path d="M54.6535 21.0426C54.6535 21.647 54.7696 22.0542 55.0176 22.2902C55.2657 22.5382 55.6987 22.6625 56.3265 22.6625H63.1668L63.2986 25.4041C61.4363 25.6015 58.8322 25.6584 55.5097 25.6584C52.5787 25.6584 51.0925 24.2941 51.0925 21.6211V5.98602H54.6535V21.0426Z" fill="white"/>
<path d="M69.5346 25.6168H65.9678V5.98602H69.5346V25.6168Z" fill="white"/>
<path d="M89.8708 24.2924C89.8708 25.1621 89.4359 25.6168 88.5638 25.6168H85.7492C85.3733 25.6168 85.0661 25.5224 84.8359 25.3611C84.6055 25.1683 84.4165 24.9002 84.269 24.5284L78.7465 12.4916C78.5438 12.0727 78.3155 11.5765 78.0774 10.9959C77.8351 10.4583 77.6737 9.96439 77.585 9.59029H77.2367C77.3608 10.3577 77.4199 11.344 77.4199 12.5137V25.6169H73.9141V7.27962C73.9141 6.87023 74.0243 6.53538 74.2547 6.33866C74.4809 6.11042 74.8116 5.98612 75.2448 5.98612H78.0063C78.3862 5.98612 78.6834 6.0613 78.9157 6.23647C79.1205 6.4073 79.3171 6.68124 79.4865 7.08464L84.8359 18.7788L85.2884 19.8004C85.5956 20.4204 85.8987 21.1192 86.1999 21.879H86.5306C86.448 20.6685 86.4007 19.5816 86.4007 18.6783V5.98602H89.8708V24.2924Z" fill="white"/>
<defs>
<linearGradient id="paint0_linear" x1="107.134" y1="-0.787011" x2="120.74" y2="30.7086" gradientUnits="userSpaceOnUse">
<stop stop-color="#17E2CF"/>
<stop offset="1" stop-color="#5181FD"/>
</linearGradient>
<linearGradient id="paint1_linear" x1="102.461" y1="1.23225" x2="116.066" y2="32.7261" gradientUnits="userSpaceOnUse">
<stop stop-color="#17E2CF"/>
<stop offset="1" stop-color="#5181FD"/>
</linearGradient>
</defs>
</svg>
