<svg fill="none" height="17" viewbox="0 0 76 17" width="76"><g><path clip-rule="evenodd" d="M22.295 0.585938V16.5859H19.818V0.585938H22.295ZM66.544 0.585938V12.1819C66.544 12.9389 67.067 13.5719 67.752 13.6979L67.882 13.7159L68.01 13.7209H71.33C72.05 13.7209 72.655 13.1749 72.776 12.4519L72.792 12.3149L72.798 12.1799V0.585938H75.556V12.1779C75.553 14.4569 73.891 16.3449 71.74 16.5649L71.537 16.5809L71.331 16.5859H68.01C65.825 16.5809 64.02 14.8459 63.81 12.6059L63.794 12.3959L63.789 12.1799V0.585938H66.544ZM47.067 3.45494V0.585938L59.454 0.589938V3.45494H56.092C55.382 3.46894 54.789 4.00894 54.669 4.71894L54.652 4.85394L54.646 4.99394V16.5859H51.876V4.99294C51.875 4.24894 51.366 3.62094 50.691 3.48294L50.562 3.46294L50.432 3.45494H47.067ZM10.06 0.585938C12.227 0.588938 14.018 2.32794 14.224 4.56994L14.239 4.78194L14.244 4.99694V7.47194C14.242 9.74994 12.595 11.6379 10.465 11.8579L10.265 11.8739L10.06 11.8789H4.184C3.473 11.8789 2.874 12.4249 2.754 13.1469L2.737 13.2839L2.732 13.4179V16.5859H0V4.98794L0.005 4.77294C0.11 2.58594 1.728 0.815937 3.785 0.605937L3.986 0.590937L4.184 0.585938H10.06ZM10.06 3.45394H4.184C3.8 3.45394 3.431 3.61594 3.159 3.90394C2.95431 4.12173 2.81591 4.39333 2.76 4.68694L2.74 4.83394L2.732 4.99694V7.47094C2.732 8.22794 3.25 8.86094 3.929 8.98694L4.058 9.00494L4.184 9.01094H10.06C10.771 9.00994 11.37 8.46494 11.49 7.74294L11.507 7.60594L11.512 7.47094V4.99294C11.512 4.14194 10.86 3.45494 10.06 3.45294V3.45394Z" fill="currentColor" fill-rule="evenodd"></path><path clip-rule="evenodd" d="M38.0244 0.585938C40.2824 0.588938 42.1114 2.51394 42.1144 4.88894V16.5859H39.4444V4.88994C39.4434 4.06294 38.8074 3.39394 38.0244 3.39294H33.1994C32.4154 3.39294 31.7794 4.06294 31.7794 4.88894V16.5859H29.1094V4.88894C29.1114 2.51394 30.9404 0.588938 33.1994 0.585938H38.0244Z" fill="currentColor" fill-rule="evenodd"></path></g></svg>