<svg fill="none" height="33" viewbox="0 0 111 33" width="111"><g><path d="M20.9277 1.49109V7.41924C20.9277 9.34263 19.3416 10.8994 17.3818 10.8994H17.3301C16.3473 10.8937 15.4623 10.8994 15.4623 10.8994C15.2956 10.8994 15.1117 10.8825 14.9508 10.8994C13.8473 11.0122 12.8876 11.5029 12.0829 12.3772C12.06 12.3997 12.0369 12.428 12.0197 12.4505C11.3703 13.2741 11.014 14.3401 11.014 15.4908V15.5472C11.014 16.2861 11.1692 16.9911 11.4508 17.6229C11.7324 18.2546 11.5887 18.9879 11.0485 19.4278C10.5197 19.8621 9.89334 20.3698 9.47375 20.7025C8.24967 19.3376 7.53124 17.5552 7.53124 15.6092V15.5528C7.53124 11.3168 10.9853 7.78587 15.6749 7.78587C15.968 7.78587 16.9221 7.78587 17.3703 7.78587V0.853718C16.991 0.825515 16.6059 0.808594 16.2209 0.808594C7.27837 0.808594 0.03125 7.92124 0.03125 16.6978C0.03125 23.8669 4.87032 29.9248 11.514 31.8989V26.0159C11.514 24.0756 13.1174 22.5019 15.0945 22.5019H15.1117C16.0945 22.5075 16.9795 22.5019 16.9795 22.5019C17.1461 22.5019 17.3301 22.5188 17.491 22.5019C18.5945 22.3891 19.5542 21.8984 20.3588 21.0241C20.3818 21.0015 20.4048 20.9733 20.4221 20.9508C21.0714 20.1273 21.4277 19.0612 21.4277 17.9105V17.8541C21.4277 17.2788 21.1806 16.5061 20.9335 15.8856C20.6577 15.1918 20.8703 14.3965 21.4508 13.9227C21.9508 13.5109 22.4622 13.1049 22.968 12.7044C24.1921 14.0693 24.9105 15.8517 24.9105 17.7977V17.8541C24.9105 22.0901 21.4565 25.6211 16.7669 25.6211C16.4737 25.6211 15.5197 25.6211 15.0714 25.6211V32.542C15.4508 32.5701 15.8358 32.5871 16.2209 32.5871C25.1634 32.5871 32.4105 25.4744 32.4105 16.6978C32.4105 9.52879 27.5714 3.4709 20.9277 1.49109Z" fill="currentColor"></path><path d="M100.941 14.8873V27.426C102.999 27.426 104.671 25.7846 104.671 23.7654V11.2266C102.614 11.2266 100.941 12.8679 100.941 14.8873Z" fill="currentColor"></path><path d="M94.2266 9.64198H106.641C108.715 9.64198 110.399 7.98934 110.399 5.95312H97.9858C95.9106 5.95312 94.2266 7.60579 94.2266 9.64198Z" fill="currentColor"></path><path d="M50.1758 6C49.7563 6.32714 49.1471 6.82351 48.6126 7.26346C47.9862 7.77675 47.8023 8.63414 48.1184 9.37302C48.3885 10.016 48.5379 10.7324 48.5379 11.4825V11.5446C48.5379 12.7685 48.1586 13.9023 47.4689 14.7822C47.4575 14.7935 47.446 14.8048 47.4402 14.8161C46.5724 15.7749 45.5379 16.3108 44.3483 16.4293C44.1759 16.4461 43.9805 16.4293 43.8023 16.4293C43.8023 16.4293 42.8597 16.4349 41.8138 16.4293H41.7965C39.6873 16.4293 37.9805 18.1045 37.9805 20.1745V27.4282C40.0724 27.4282 41.7736 25.7642 41.7736 23.7055V19.7571C42.2505 19.7571 43.2678 19.7571 43.5781 19.7571C48.5724 19.7571 52.2505 15.9949 52.2505 11.4825V11.4205C52.2391 9.35046 51.4747 7.4496 50.1758 6Z" fill="currentColor"></path><path d="M80.8552 5.99609V24.3671C80.8552 26.0536 79.4533 27.4187 77.7349 27.4187H77.1602V9.05889C77.1602 7.37237 78.551 5.99609 80.2696 5.99609H80.8552Z" fill="currentColor"></path><path d="M53.4972 16.7526C53.4282 21.4455 56.6983 25.6645 61.2098 27.0577C61.6178 27.1818 62.0316 27.2834 62.4454 27.3623C62.4627 27.3623 62.4684 27.3567 62.4684 27.3454L62.4856 25.2359V25.1682C62.4799 24.4405 62.0719 23.8088 61.4741 23.4591C61.4052 23.4196 61.3247 23.3801 61.2328 23.3407C59.5546 22.5905 58.296 21.248 57.5719 19.5784C56.0546 16.0757 57.7156 11.7889 61.2328 10.2209C61.319 10.1814 61.3994 10.1419 61.4741 10.1024C62.0719 9.75275 62.4741 9.12099 62.4856 8.39337V8.32568L62.4684 6.21614C62.4684 6.2105 62.4627 6.19922 62.4454 6.19922C62.0316 6.27819 61.6178 6.37971 61.2098 6.5038C56.6925 7.89136 53.434 12.1161 53.4972 16.809V16.7526Z" fill="currentColor"></path><path d="M75.2502 16.7526C75.3192 21.4455 72.0491 25.6645 67.5376 27.0577C67.1296 27.1818 66.7158 27.2834 66.302 27.3623C66.2848 27.3623 66.279 27.3567 66.279 27.3454L66.2617 25.2359V25.1682C66.2675 24.4405 66.6756 23.8088 67.2732 23.4591C67.3422 23.4196 67.4227 23.3801 67.5146 23.3407C69.1928 22.5905 70.4514 21.248 71.1756 19.5784C72.6928 16.0757 71.0319 11.7889 67.5146 10.2209C67.4284 10.1814 67.348 10.1419 67.2732 10.1024C66.6756 9.75275 66.2732 9.12099 66.2617 8.39337V8.32568L66.279 6.21614C66.279 6.2105 66.2848 6.19922 66.302 6.19922C66.7158 6.27819 67.1296 6.37971 67.5376 6.5038C72.0549 7.89136 75.3135 12.1161 75.2502 16.809V16.7526Z" fill="currentColor"></path><path d="M83.3706 17.5573C83.0602 17.0272 83.037 16.3841 83.2898 15.8313L88.1346 7.73163C88.6234 6.67686 89.6978 6 90.8818 6H93.0082L92.7786 6.50764L87.037 16.7225L94.577 27.4225H91.9338C90.8474 27.4225 89.8474 26.8473 89.3074 25.9222L83.3706 17.5573Z" fill="currentColor"></path></g></svg>