<svg fill="none" height="33" viewbox="0 0 100 33" width="100"><g><path d="M44.2584 8.2462C43.3095 8.27774 42.3849 8.55423 41.5744 9.0488C40.764 9.54336 40.0953 10.2392 39.6333 11.0686H39.5562V8.64895H36V24.7416H40.3916V16.7938C40.3916 14.1288 41.9362 12.2415 44.0528 12.2415C44.9099 12.2262 45.7522 12.4663 46.4724 12.9313V8.64681C45.7655 8.37753 45.0148 8.2417 44.2584 8.2462Z" fill="#353F52"></path><path d="M60.7143 8.64897V10.456C60.0205 9.75086 59.1924 9.19202 58.279 8.81247C57.3655 8.43292 56.3853 8.24038 55.3961 8.24622C50.8235 8.24622 47.6133 11.7949 47.6133 16.6899C47.6133 21.585 50.8395 25.1336 55.3961 25.1336C56.3852 25.1393 57.3654 24.9466 58.2788 24.5671C59.1923 24.1875 60.0204 23.6288 60.7143 22.9239V24.7309H64.2747V8.64897H60.7143ZM60.1337 16.9352C60.1515 17.498 60.0542 18.0584 59.8476 18.5822C59.641 19.106 59.3296 19.582 58.9324 19.9811C58.5352 20.3802 58.0607 20.6939 57.5379 20.903C57.0151 21.1121 56.4552 21.2121 55.8923 21.197C55.3295 21.1819 54.7757 21.0519 54.2649 20.815C53.7541 20.5781 53.2971 20.2394 52.9219 19.8195C52.5468 19.3997 52.2614 18.9076 52.0832 18.3735C51.9051 17.8394 51.838 17.2745 51.886 16.7135C51.886 14.1085 53.5473 12.1976 56.0109 12.1976C56.5652 12.1971 57.114 12.3084 57.6242 12.525C58.1345 12.7415 58.5958 13.0588 58.9805 13.4578C59.3653 13.8569 59.6655 14.3295 59.8633 14.8473C60.0611 15.3651 60.1523 15.9175 60.1316 16.4714L60.1337 16.9352Z" fill="#353F52"></path><path d="M75.8789 3.12237V24.7474H80.278V0.585938L75.8789 3.12237Z" fill="#353F52"></path><path d="M67.8398 3.12237V24.7474H72.2315V0.585938L67.8398 3.12237Z" fill="#353F52"></path><path d="M87.2848 28.7253H91.6272L93.325 24.2372L99.5836 8.66406H94.9863L91.1302 19.8338L87.2741 8.66406H82.6758L89.1401 24.5714L87.2848 28.7253Z" fill="#353F52"></path><path d="M13.8465 32.5859L0 24.5932V8.60547L13.8465 16.5811V32.5859Z" fill="#121D33"></path><path d="M13.8477 32.5859L27.6941 24.5942V8.60547L13.8477 16.5811V32.5859Z" fill="#353F52"></path><path d="M13.8465 16.584L27.6941 8.60838L13.8636 0.644531L0 8.60838L13.8465 16.584Z" fill="#50596B"></path><path d="M23.0908 11.2538L13.8159 5.89062L4.57422 11.2259V21.8997L9.18008 24.5572V13.8866L13.817 11.2088L18.4861 13.9102L23.0908 11.2538Z" fill="#F7F8FA"></path><path d="M4.58203 11.2383V21.8992L9.18789 24.5567V13.8947L4.58203 11.2383Z" fill="#CCD2DE"></path></g></svg>