<svg fill="none" height="41" viewbox="0 0 151 41" width="151"><g><path d="M20.4213 0.664885C26.0744 1.08314 30.6559 5.4153 31.3896 11.0362C32.1233 16.6571 28.8072 22.0201 23.4509 23.8754L35.4311 39.9412H0.0429688V0.585938H18.6351C19.2864 0.585938 19.8785 0.615543 20.4213 0.664885Z" fill="#353F52"></path><path d="M23.0759 39.9409H0.00390625V0.585938L35.1849 39.9409H23.0759Z" fill="#353F52"></path><path d="M35.4319 39.94H0.00390625L17.5989 12.457L35.4319 39.94Z" fill="#677185"></path><path d="M0.00390625 23.3619V0.585938H9.89191L24.6649 23.3519L0.00390625 23.3619Z" fill="#121D33"></path><path d="M10.6211 23.361L17.5981 12.457L24.6741 23.361H10.6211Z" fill="#50596B"></path><path d="M35.4307 39.94H22.2657L17.5977 12.457L35.4307 39.94Z" fill="#353F52" opacity="0.5"></path><path d="M52.6112 14.0257V18.3875H55.1573C57.131 18.3875 58.0389 17.4007 58.0093 16.177C57.9796 14.9533 57.0224 14.0257 55.1573 14.0257H52.6112ZM55.2264 10.7593C58.9862 10.7593 61.4533 13.029 61.4533 16.177C61.4533 19.325 59.756 21.0323 57.8316 21.427L61.779 28.5619H57.8316L54.1803 21.881H52.6112V28.5619H49.0586V10.7987L55.2264 10.7593ZM66.9599 21.1902H72.427C72.3063 19.7703 71.1185 18.6792 69.6935 18.6792C68.2684 18.6792 67.0807 19.7703 66.9599 21.1902ZM75.7625 22.3349C75.7647 22.7075 75.7449 23.0798 75.7033 23.45H66.95C67.1359 25.0236 68.5277 26.1719 70.1079 26.0553C71.2523 26.0289 72.3529 25.6109 73.2264 24.8711L75.2 27.0125C73.7519 28.2877 71.8681 28.9557 69.9402 28.8777C68.2051 28.9707 66.5127 28.3193 65.2879 27.0869C64.063 25.8545 63.422 24.1582 63.5257 22.4237C63.5257 18.5454 66.0718 15.9007 69.7724 15.9007C73.4731 15.9007 75.7625 18.5356 75.7724 22.3744L75.7625 22.3349ZM81.8218 22.3941C81.7275 23.5892 82.3117 24.736 83.3338 25.3624C84.3558 25.9888 85.6429 25.9888 86.665 25.3624C87.6871 24.736 88.2713 23.5892 88.177 22.3941C88.2713 21.1991 87.6871 20.0522 86.665 19.4258C85.6429 18.7994 84.3558 18.7994 83.3338 19.4258C82.3117 20.0522 81.7275 21.1991 81.8218 22.3941ZM91.5915 22.3941C91.5915 26.0948 89.0158 28.8777 85.6112 28.8777C84.2088 28.9423 82.8559 28.3516 81.95 27.279V33.654H78.6737V16.256H81.95V17.6178C82.8383 16.5013 84.2053 15.8746 85.631 15.9303C89.0454 15.9303 91.6211 18.7132 91.6211 22.4139L91.5915 22.3941ZM105.802 23.3119C105.802 27.2 103.049 28.8875 99.9698 28.8875C96.8908 28.8875 94.1178 27.2099 94.1178 23.3119V16.256H97.4435V23.0356C97.4435 25.0093 98.529 25.8086 99.9698 25.8086C101.411 25.8086 102.496 25.0093 102.496 23.0356V16.256H105.812L105.802 23.3119ZM112.246 22.3941C112.152 23.5892 112.736 24.736 113.758 25.3624C114.78 25.9888 116.067 25.9888 117.089 25.3624C118.111 24.736 118.696 23.5892 118.601 22.3941C118.696 21.1991 118.111 20.0522 117.089 19.4258C116.067 18.7994 114.78 18.7994 113.758 19.4258C112.736 20.0522 112.152 21.1991 112.246 22.3941ZM122.016 22.3941C122.016 26.0948 119.44 28.8777 116.036 28.8777C114.606 28.9373 113.232 28.3147 112.335 27.2V28.5619H109.088V10.2461H112.404V17.5191C113.292 16.443 114.632 15.8441 116.026 15.9007C119.44 15.9007 122.016 18.6836 122.016 22.3843" fill="black"></path><path d="M124.73 28.5621H128.056V10.2461H124.73V28.5621Z" fill="black"></path><path d="M131.552 28.562H134.877V16.2561H131.552V28.562ZM135.321 12.2001C135.311 13.368 134.358 14.3075 133.19 14.3021C132.022 14.2966 131.078 13.3484 131.078 12.1804C131.078 11.0125 132.022 10.0642 133.19 10.0587C133.759 10.0533 134.305 10.2775 134.707 10.6806C135.108 11.0837 135.329 11.6315 135.321 12.2001ZM149.118 18.2297L146.719 20.2034C146.071 19.4426 145.123 19.0028 144.124 18.9995C143.253 19.0104 142.426 19.3817 141.839 20.025C141.251 20.6682 140.957 21.526 141.025 22.3942C140.951 23.2622 141.242 24.1218 141.828 24.7661C142.415 25.4104 143.243 25.7811 144.114 25.789C145.145 25.7767 146.122 25.3242 146.798 24.5455L149.167 26.5192C147.979 28.0266 146.151 28.886 144.233 28.8383C142.479 28.9282 140.769 28.2771 139.519 27.044C138.269 25.8109 137.594 24.1093 137.66 22.3547C137.597 20.601 138.273 18.9013 139.522 17.6689C140.771 16.4365 142.48 15.7844 144.233 15.8712C146.154 15.818 147.986 16.6828 149.167 18.2001" fill="black"></path></g></svg>