<?xml version="1.0" encoding="UTF-8"?>
<svg width="26px" height="29px" viewBox="0 0 26 29" version="1.1" xmlns="http://www.w3.org/2000/svg" xmlns:xlink="http://www.w3.org/1999/xlink">
    <!-- Generator: Sketch 50.2 (55047) - http://www.bohemiancoding.com/sketch -->
    <title>download copy</title>
    <desc>Created with Sketch.</desc>
    <defs></defs>
    <g id="Page-1" stroke="none" stroke-width="1" fill="none" fill-rule="evenodd">
        <g id="火币资本-首页-copy-3" transform="translate(-1067.000000, -1998.000000)" fill="#FFFFFF" fill-rule="nonzero">
            <g id="第二屏" transform="translate(0.000000, 1081.000000)">
                <g id="download-copy" transform="translate(1067.000000, 917.000000)">
                    <polygon id="Shape" points="3.8822801 5.94062065 5.96692031 4.74629773 6.24826544 5.22916907 13.9294118 0.810068625 13.3720232 0.488154397 12.8040312 0.160957114 12.5223326 0 0 7.20749754 0 7.52941176 3.60093497 5.45774931"></polygon>
                    <polygon id="Shape" points="3.88511511 10.4640871 9.91369322 6.99717845 10.1952438 7.48505899 17.8823529 3.0684377 17.3188981 2.74142397 16.7611025 2.41969034 16.4791982 2.25882353 0 11.7253252 0 12.0470588 3.59825892 9.97620658"></polygon>
                    <polygon id="Shape" points="3.86669391 12.7239562 11.828549 8.12873703 12.1087646 8.6110187 19.7647059 4.19203809 19.2039226 3.87579358 18.6434914 3.54899585 18.3579953 3.38823529 0 13.9790846 0 14.3058824 3.58119784 12.236398"></polygon>
                    <polygon id="Shape" points="3.88604411 14.9829359 13.9117832 9.22672804 14.198708 9.70896213 21.8352941 5.32664663 21.2667514 5.00023289 20.7031618 4.67839176 20.4215439 4.51764706 0 16.2432165 0 16.5647059 3.59911933 14.4954257"></polygon>
                    <polygon id="Shape" points="3.87232647 17.2419309 15.8273941 10.3556292 16.1080179 10.8430865 23.7176471 6.45632237 23.1563995 6.13451614 22.6000874 5.80813779 22.3194636 5.64705882 0 18.5020749 0 18.8235294 3.58641452 16.7593974"></polygon>
                    <polygon id="Shape" points="24.6131763 6.94240518 24.332 6.77647059 0 20.7606789 0 21.0823529 3.59347641 19.0194203 3.87995133 19.5014041 15.8585593 12.6179308 16.1397356 13.0999146 25.0352941 7.99461332 25.0352941 7.34669498 25.0352941 7.18568217"></polygon>
                    <polygon id="Shape" points="1.59820831 22.5882353 3.60936722 21.4230508 3.88992847 21.9088987 15.8268227 14.9808706 16.107384 15.4720342 25.0352941 10.2889478 25.0352941 9.63583496 25.0352941 8.98272213 25.0352941 8.65882353 1.31764706 22.426286"></polygon>
                    <polyline id="Shape" points="15.7921415 17.2470445 16.0737594 17.7387791 25.0352941 12.5496666 25.0352941 11.8957944 25.0352941 11.2419222 25.0352941 10.9176471 3.2 23.5555095 3.48161791 23.7176471 5.53679182 22.5301755 5.81345665 23.02191"></polyline>
                    <polygon id="Shape" points="5.55080385 24.8470588 7.59574421 23.6536978 7.87631186 24.1456664 15.8381669 19.5088802 16.1183825 20.0008487 25.0352941 14.8092668 25.0352941 14.1550834 25.0352941 13.5062244 25.0352941 13.1764706 5.27058824 24.6795197"></polygon>
                    <polygon id="Shape" points="7.43440825 25.9764706 9.48848142 24.7865442 9.7703021 25.2739625 15.7970921 21.777776 16.0785592 22.2651943 25.0352941 17.0653546 25.0352941 16.4154635 25.0352941 15.7602397 25.0352941 15.4352941 7.15294118 25.8139978"></polygon>
                    <polygon id="Shape" points="9.22352941 26.7581996 9.50357956 26.9176471 11.5447481 25.7498776 11.8191761 26.2334535 15.8551309 23.9184997 16.1348297 24.4020756 25.0352941 19.2994081 25.0352941 18.6560359 25.0352941 18.0133615 25.0352941 17.6941176"></polygon>
                    <polygon id="Shape" points="11.3871204 28.2352941 13.4395225 27.0634561 13.7207606 27.5465517 15.8046077 26.3544975 16.0858458 26.8375932 25.0352941 21.7445242 25.0352941 21.102488 25.0352941 20.4601032 25.0352941 20.1411765 11.1058824 28.076005"></polygon>
                    <polygon id="Shape" points="15.8117647 1.939207 15.2470839 1.61740141 15.2470839 1.61740141 14.687674 1.29559583 14.407969 1.12941176 0 9.46642971 0 9.78823529 3.57467182 7.7222012 3.85964762 8.20490957 7.89042127 5.87410765 8.17012625 6.3620973"></polygon>
                </g>
            </g>
        </g>
    </g>
</svg>