<svg fill="none" height="41" viewbox="0 0 84 41" width="84"><path clip-rule="evenodd" d="M23.2343 6.58864L16.9914 9.08535V3.13576L23.2343 0.585938V6.58864ZM34.4797 13.6538H34.4268V11.582H28.0252V40.5863L34.3738 37.9303V27.9966C35.7495 29.5902 37.9186 30.3338 39.982 30.3338C45.3256 30.3338 49.029 25.9248 49.029 20.7189C49.029 15.5131 45.3256 10.9977 39.929 10.9977C37.8127 10.9977 35.6436 11.8476 34.4797 13.6538ZM38.3419 24.703C35.7495 24.703 34.2152 22.95 34.2152 20.6657C34.2152 18.4347 35.6966 16.5755 38.3419 16.5755C40.9343 16.5755 42.4685 18.4347 42.4685 20.6657C42.4685 22.95 40.9343 24.703 38.3419 24.703ZM6.40167 14.5566H6.45457C7.67142 12.3255 9.78767 11.3693 12.2743 11.3693H13.4911V17.5314C12.5917 17.0534 11.7452 16.9471 10.7929 16.9471C7.24816 16.9471 6.34876 19.2844 6.34876 22.4185V29.6962H0V11.5818H6.40167V14.5566ZM23.2328 11.5827H16.8311V29.697H23.2328V11.5827ZM58.8302 11.5827H52.4285V29.697H58.8302V11.5827ZM72.8978 30.2807C78.6646 30.2807 83.7436 26.8279 83.7436 20.6657C83.7436 14.5037 78.7175 10.9977 72.8978 10.9977C67.131 10.9977 62.052 14.5037 62.052 20.6657C62.052 26.8279 67.131 30.2807 72.8978 30.2807ZM72.9507 24.703C70.3583 24.703 68.8241 22.95 68.8241 20.6657C68.8241 18.4347 70.3054 16.5755 72.9507 16.5755C75.5431 16.5755 77.0774 18.4347 77.0774 20.6657C77.0774 22.95 75.5431 24.703 72.9507 24.703ZM52.5286 9.08535L58.7716 6.58864V0.585938L52.5286 3.13576V9.08535Z" fill="currentColor" fill-rule="evenodd"></path></svg>