<svg fill="none" height="53" viewbox="0 0 106 53" width="106"><g><path d="M35.1871 18.9431C35.1871 9.26178 27.6591 1.41353 18.3728 1.41353C9.08659 1.41353 1.55859 9.26178 1.55859 18.9431C1.55859 28.6244 9.08659 36.4727 18.3728 36.4727C27.6591 36.4727 35.1871 28.6244 35.1871 18.9431Z" fill="url(#paint0_linear)"></path><path d="M0.851959 34.8968C0.851959 44.5781 8.37996 52.4263 17.6662 52.4263C26.9525 52.4263 34.4805 44.5781 34.4805 34.8968C34.4805 25.2154 26.9525 17.3672 17.6662 17.3672C8.37996 17.3672 0.851959 25.2154 0.851959 34.8968Z" fill="url(#paint1_linear)"></path><path clip-rule="evenodd" d="M59.1129 42.3584C54.4962 42.3584 50.7452 41.2867 47.7773 39.5967L50.3742 31.7236H50.5803C52.023 37.4945 56.516 40.4623 60.6793 40.4623C63.0288 40.4623 64.7601 39.102 64.7601 36.9174C64.7601 35.5983 64.2242 34.3617 61.8334 33.29L54.9909 30.1573C50.9513 28.2611 48.8491 24.8811 48.8491 21.2537C48.8491 16.7607 51.6933 11.8555 59.9373 11.8555C63.6471 11.8555 67.934 13.0509 70.366 14.4111L67.3982 21.1712H67.1921C65.5433 16.1012 61.8747 13.6692 58.2885 13.6692C55.2794 13.6692 54.2077 15.1943 54.2077 16.5546C54.2077 17.9148 54.9084 19.1927 57.0931 20.2644L64.1418 23.6032C68.676 25.7055 70.0363 28.3023 70.0363 31.8885C70.0363 37.7418 65.6669 42.3584 59.1129 42.3584ZM83.8287 36.0105C85.8897 36.0105 87.4149 35.3922 88.5278 33.8259L88.8576 33.9083C87.7446 40.2562 83.4577 42.1523 80.1601 42.1523C75.4198 42.1523 70.7619 38.3601 70.7619 31.1465C70.7619 24.2215 74.8427 19.2751 80.4486 19.2751C83.9524 19.2751 88.94 21.13 88.94 28.9619H77.0686C77.6869 33.6197 80.1601 36.0105 83.8287 36.0105ZM79.5418 20.6354C77.8518 20.6354 76.9037 22.8201 76.9037 26.5299C76.9037 26.9421 76.9037 27.3131 76.9449 27.684H82.0562C82.0562 22.243 81.1906 20.6354 79.5418 20.6354ZM104.505 35.9281L104.876 36.0517C103.969 39.102 101.496 42.1523 97.2089 42.1523C93.293 42.1523 91.5617 39.6379 91.5617 36.2166V21.0476H89.542V20.8415C92.7159 18.1209 96.096 15.6065 99.3524 12.7623H99.3936V19.9759H103.186V21.0064H99.3936V35.1037C99.3936 36.8761 100.177 38.0303 101.619 38.0303C103.227 38.0303 104.134 36.9586 104.505 35.9281Z" fill="currentColor" fill-rule="evenodd"></path></g></svg>