<svg width="784" height="784" viewBox="0 0 784 784" fill="none" xmlns="http://www.w3.org/2000/svg">
<path fill-rule="evenodd" clip-rule="evenodd" d="M66.1091 352.972L208.8 210.281L390.382 391.863L573.445 208.8L717.617 352.972C739.096 374.451 739.096 409.275 717.617 430.754L573.685 574.685L390.863 391.863L209.041 573.685L66.1091 430.754C44.6303 409.275 44.6303 374.451 66.1091 352.972ZM317.617 30.7538C358.622 -10.2513 425.104 -10.2513 466.109 30.7538L752.972 317.617C793.977 358.622 793.977 425.104 752.972 466.109L466.109 752.972C425.104 793.977 358.622 793.977 317.617 752.972L30.7538 466.109C-10.2513 425.104 -10.2513 358.622 30.7538 317.617L317.617 30.7538Z" fill="white"/>
</svg>
