<svg width="119" height="15" viewBox="0 0 119 15" fill="none" xmlns="http://www.w3.org/2000/svg">
<path d="M4.21462 3.4342H0.429735C0.373193 3.4346 0.317135 3.42375 0.26482 3.40229C0.212505 3.38084 0.164975 3.3492 0.124992 3.30922C0.0850095 3.26924 0.0533712 3.22171 0.0319156 3.16939C0.01046 3.11707 -0.000385128 3.06102 1.04439e-05 3.00447V0.492236C-0.000385128 0.435693 0.01046 0.379635 0.0319156 0.32732C0.0533712 0.275005 0.0850095 0.227475 0.124992 0.187492C0.164975 0.14751 0.212505 0.115871 0.26482 0.0944156C0.317135 0.07296 0.373193 0.0621149 0.429735 0.0625104H11.2224C11.5642 0.0629478 11.8919 0.198912 12.1335 0.440584C12.3752 0.682257 12.5112 1.00991 12.5116 1.35169V3.00447C12.512 3.06102 12.5012 3.11707 12.4797 3.16939C12.4583 3.22171 12.4266 3.26924 12.3866 3.30922C12.3467 3.3492 12.2991 3.38084 12.2468 3.40229C12.1945 3.42375 12.1384 3.4346 12.0819 3.4342H8.28048V14.0947C8.28088 14.1512 8.27003 14.2073 8.24858 14.2596C8.22712 14.3119 8.19548 14.3594 8.1555 14.3994C8.11552 14.4394 8.06799 14.4711 8.01567 14.4925C7.96336 14.514 7.9073 14.5248 7.85076 14.5244H5.5038C5.16202 14.524 4.83437 14.388 4.5927 14.1463C4.35102 13.9047 4.21506 13.577 4.21462 13.2352V3.4342Z" fill="white"/>
<path d="M15.3711 5.35222L15.3876 5.43486C15.9165 4.49277 16.8751 4.07957 17.8668 4.07957C18.7535 4.0654 19.6158 4.37043 20.2964 4.93902C20.3687 5.00439 20.4163 5.09258 20.4313 5.18884C20.4464 5.28511 20.4279 5.38362 20.379 5.46792L19.2551 7.50085C19.2274 7.55129 19.1895 7.59545 19.1439 7.63059C19.0983 7.66572 19.0459 7.69106 18.9901 7.70502C18.9342 7.71899 18.8761 7.72127 18.8193 7.71173C18.7626 7.7022 18.7084 7.68104 18.6601 7.6496C18.2602 7.39898 17.7927 7.27778 17.3214 7.30251C16.3793 7.30251 15.5694 7.88099 15.5694 9.21975V14.0955C15.5698 14.152 15.559 14.2081 15.5375 14.2604C15.5161 14.3127 15.4844 14.3602 15.4444 14.4002C15.4045 14.4402 15.3569 14.4718 15.3046 14.4933C15.2523 14.5147 15.1962 14.5256 15.1397 14.5252H13.0407C12.6989 14.5248 12.3712 14.3888 12.1295 14.1471C11.8879 13.9054 11.7519 13.5778 11.7515 13.236V4.74069C11.7511 4.68415 11.7619 4.62809 11.7834 4.57577C11.8048 4.52346 11.8365 4.47593 11.8765 4.43595C11.9164 4.39596 11.964 4.36433 12.0163 4.34287C12.0686 4.32141 12.1247 4.31057 12.1812 4.31096H14.115C14.4114 4.31645 14.6971 4.42248 14.9253 4.61167C15.1536 4.80086 15.3107 5.06198 15.3711 5.35222Z" fill="white"/>
<path d="M28.7908 4.32709H30.7245C31.0663 4.32753 31.3939 4.46349 31.6356 4.70517C31.8773 4.94684 32.0133 5.27449 32.0137 5.61627V14.0951C32.0141 14.1516 32.0032 14.2077 31.9818 14.26C31.9603 14.3123 31.9287 14.3598 31.8887 14.3998C31.8487 14.4398 31.8012 14.4714 31.7489 14.4929C31.6966 14.5143 31.6405 14.5252 31.584 14.5248H29.6006C29.2936 14.5234 28.997 14.413 28.7639 14.2131C28.5308 14.0133 28.3763 13.7372 28.328 13.434C27.4685 14.4256 26.0967 14.7727 24.9563 14.7066C21.9647 14.5248 20.2954 12.3927 20.2954 9.41768C20.2954 6.40961 22.2788 4.0957 25.2538 4.0957C26.6917 4.0957 27.7164 4.59154 28.2453 5.41793L28.3776 4.67418C28.3955 4.57738 28.4465 4.48983 28.5219 4.42652C28.5973 4.3632 28.6923 4.32805 28.7908 4.32709V4.32709ZM24.0803 9.41768C24.0803 10.8391 24.9893 11.6489 26.1298 11.6489C27.4024 11.6489 28.2288 10.6242 28.2288 9.41768C28.2288 8.0624 27.4685 7.16989 26.1298 7.16989C24.9893 7.16989 24.0803 7.99628 24.0803 9.41768Z" fill="white"/>
<path d="M37.7649 7.17002L38.8558 10.4756L39.8805 7.17002L40.8722 4.59167C40.9029 4.51202 40.9575 4.44382 41.0285 4.39647C41.0996 4.34912 41.1835 4.32493 41.2688 4.32722H43.0869C43.2974 4.32729 43.5047 4.37908 43.6905 4.47805C43.8764 4.57701 44.035 4.72012 44.1525 4.89479C44.2701 5.06945 44.3429 5.27032 44.3646 5.47973C44.3863 5.68914 44.3562 5.90066 44.2769 6.09571L40.9052 14.3101C40.8745 14.3897 40.8199 14.4579 40.7489 14.5053C40.6778 14.5526 40.5939 14.5768 40.5086 14.5745H37.8641C37.6125 14.5712 37.367 14.4964 37.1563 14.3589C36.9456 14.2213 36.7784 14.0267 36.6741 13.7977L32.8727 4.9057C32.8451 4.84042 32.8341 4.7693 32.8408 4.69874C32.8474 4.62817 32.8715 4.56036 32.9108 4.50139C32.9501 4.44241 33.0034 4.39412 33.066 4.36083C33.1286 4.32755 33.1985 4.31033 33.2693 4.3107H36.3601C36.4454 4.3084 36.5294 4.33259 36.6004 4.37994C36.6714 4.4273 36.726 4.49549 36.7567 4.57514L37.7649 7.17002Z" fill="white"/>
<path d="M53.1697 4.3603H55.1034C55.4452 4.36073 55.7728 4.4967 56.0145 4.73837C56.2562 4.98004 56.3922 5.3077 56.3926 5.64947V14.1283C56.393 14.1848 56.3821 14.2409 56.3607 14.2932C56.3392 14.3455 56.3076 14.393 56.2676 14.433C56.2276 14.473 56.1801 14.5046 56.1278 14.5261C56.0755 14.5476 56.0194 14.5584 55.9629 14.558H53.9795C53.6725 14.5566 53.3759 14.4462 53.1428 14.2463C52.9097 14.0465 52.7552 13.7704 52.7069 13.4672V13.4672C51.8474 14.4588 50.4756 14.8059 49.3352 14.7398C46.3436 14.558 44.6743 12.4259 44.6743 9.45089C44.6743 6.44281 46.6577 4.12891 49.6327 4.12891C51.0706 4.12891 52.0953 4.62474 52.6242 5.45114L52.7565 4.70738C52.7744 4.61059 52.8254 4.52304 52.9008 4.45972C52.9762 4.3964 53.0712 4.36126 53.1697 4.3603V4.3603ZM48.4592 9.46742C48.4592 10.8888 49.3682 11.6987 50.5087 11.6987C51.7813 11.6987 52.6077 10.674 52.6077 9.46742C52.6077 8.11213 51.8474 7.21962 50.5087 7.21962C49.3682 7.21962 48.4592 8.04602 48.4592 9.46742Z" fill="white"/>
<path d="M61.9793 1.33606V14.0956C61.9797 14.1521 61.9689 14.2082 61.9474 14.2605C61.926 14.3128 61.8943 14.3603 61.8543 14.4003C61.8143 14.4403 61.7668 14.472 61.7145 14.4934C61.6622 14.5149 61.6061 14.5257 61.5496 14.5253H59.5001C59.1583 14.5249 58.8307 14.3889 58.589 14.1472C58.3473 13.9056 58.2114 13.5779 58.2109 13.2361V0.47661C58.2106 0.420068 58.2214 0.36401 58.2429 0.311695C58.2643 0.25938 58.2959 0.21185 58.3359 0.171867C58.3759 0.131885 58.4234 0.100246 58.4758 0.0787906C58.5281 0.057335 58.5841 0.0464899 58.6407 0.0468854H60.6901C61.0319 0.0473228 61.3596 0.183287 61.6012 0.424959C61.8429 0.666632 61.9789 0.994284 61.9793 1.33606V1.33606Z" fill="white"/>
<path d="M71.78 4.34272H73.7138C74.0555 4.34316 74.3832 4.47912 74.6249 4.72079C74.8665 4.96246 75.0025 5.29012 75.0029 5.63189V14.1107C75.0033 14.1672 74.9925 14.2233 74.971 14.2756C74.9496 14.3279 74.9179 14.3755 74.878 14.4154C74.838 14.4554 74.7904 14.4871 74.7381 14.5085C74.6858 14.53 74.6298 14.5408 74.5732 14.5404H72.5899C72.2828 14.539 71.9863 14.4286 71.7532 14.2288C71.5201 14.0289 71.3655 13.7528 71.3172 13.4496V13.4496C70.4578 14.4413 69.086 14.7883 67.9455 14.7222C64.954 14.5404 63.2847 12.4083 63.2847 9.43331C63.2847 6.42523 65.268 4.11133 68.243 4.11133C69.681 4.11133 70.7057 4.60716 71.2346 5.43356L71.3668 4.6898C71.3823 4.59187 71.4326 4.50282 71.5085 4.43905C71.5845 4.37527 71.6809 4.34106 71.78 4.34272ZM67.0696 9.43331C67.0696 10.8547 67.9786 11.6646 69.119 11.6646C70.3917 11.6646 71.2181 10.6398 71.2181 9.43331C71.2181 8.07802 70.4578 7.18551 69.119 7.18551C67.9786 7.18551 67.0696 8.01191 67.0696 9.43331Z" fill="white"/>
<path d="M78.0597 10.8398C80.8198 10.8398 80.8033 14.5751 78.0597 14.5751C75.3656 14.5586 75.316 10.8398 78.0597 10.8398Z" fill="white"/>
<path d="M89.9599 12.4253C90.0144 12.4833 90.0561 12.5521 90.0825 12.6272C90.1089 12.7023 90.1193 12.782 90.1131 12.8614C90.1069 12.9407 90.0841 13.0179 90.0464 13.088C90.0086 13.158 89.9566 13.2194 89.8938 13.2682C88.8329 14.1052 87.5261 14.5698 86.175 14.5905C83.2 14.5905 80.4067 13.1195 80.4067 9.31806C80.4067 5.61581 83.2495 3.97955 86.1089 3.97955C87.1156 3.97491 88.1064 4.23116 88.9847 4.72331C89.134 4.80883 89.262 4.92705 89.3591 5.0691C89.4562 5.21115 89.5198 5.37334 89.5453 5.5435C89.5707 5.71367 89.5573 5.88738 89.506 6.05162C89.4547 6.21585 89.3669 6.36634 89.2492 6.49179L88.4558 7.35124C88.3587 7.45266 88.228 7.51529 88.0881 7.52745C87.9483 7.53962 87.8087 7.50049 87.6955 7.41735C87.2934 7.13826 86.8132 6.99362 86.3237 7.00416C84.8858 7.00416 84.0925 8.06194 84.0925 9.33459C84.0925 10.442 84.8527 11.4336 86.2907 11.4336C86.7188 11.4375 87.1405 11.3292 87.5137 11.1196C87.7337 10.9976 87.9881 10.9526 88.2365 10.9915C88.485 11.0304 88.7134 11.1511 88.8856 11.3345L89.9599 12.4253Z" fill="white"/>
<path d="M101.961 9.31898C101.961 13.0212 99.0189 14.641 96.143 14.641C93.2176 14.641 90.3252 13.0378 90.3252 9.31898C90.3252 5.55062 93.1845 3.98047 96.143 3.98047C99.1511 3.98047 101.961 5.61673 101.961 9.31898ZM98.2421 9.31898C98.2421 8.1455 97.4818 7.08771 96.143 7.08771C94.8043 7.08771 94.044 8.1455 94.044 9.31898C94.044 10.4925 94.8043 11.5337 96.143 11.5337C97.4157 11.5337 98.2421 10.5586 98.2421 9.31898Z" fill="white"/>
<path d="M110.537 14.392C110.156 14.3917 109.79 14.2401 109.521 13.9705C109.251 13.7009 109.1 13.3353 109.099 12.9541V8.75598C109.099 7.5825 108.703 7.18583 108.025 7.18583C107.381 7.18583 106.703 7.69819 106.686 8.82209V13.8796C106.687 13.9493 106.674 14.0185 106.648 14.0831C106.622 14.1477 106.583 14.2063 106.533 14.2556C106.484 14.3049 106.426 14.3439 106.361 14.3701C106.296 14.3964 106.227 14.4094 106.157 14.4085H104.356C103.975 14.4083 103.609 14.2567 103.339 13.9871C103.07 13.7175 102.918 13.3519 102.918 12.9706V4.7397C102.917 4.66999 102.93 4.60081 102.956 4.53623C102.983 4.47165 103.022 4.41298 103.071 4.36369C103.12 4.31439 103.179 4.27547 103.243 4.24921C103.308 4.22296 103.377 4.2099 103.447 4.21081H104.984C105.305 4.20858 105.617 4.31528 105.869 4.51344C106.121 4.7116 106.299 4.98949 106.372 5.30165V5.30165C107.017 4.40914 108.124 3.97942 109.182 3.99595C110.207 4.01247 111.198 4.49178 111.711 5.43387C112.554 4.37609 113.694 3.96289 115.099 3.96289C117.297 3.96289 119 5.31818 119 8.70639V13.8466C119.001 13.9163 118.987 13.9855 118.961 14.05C118.935 14.1146 118.896 14.1733 118.847 14.2226C118.797 14.2719 118.739 14.3108 118.674 14.3371C118.61 14.3633 118.54 14.3764 118.471 14.3755H116.636C116.255 14.3752 115.889 14.2236 115.62 13.954C115.35 13.6844 115.198 13.3188 115.198 12.9375V8.75598C115.198 7.68167 114.702 7.25194 114.14 7.25194C113.496 7.25194 112.818 7.68167 112.818 8.80556V13.8796C112.819 13.9493 112.806 14.0185 112.78 14.0831C112.754 14.1477 112.715 14.2063 112.665 14.2556C112.616 14.3049 112.557 14.3439 112.493 14.3701C112.428 14.3964 112.359 14.4094 112.289 14.4085H110.537V14.392Z" fill="white"/>
</svg>
