<svg     fill="none" height="32" viewbox="0 0 191 32" width="191"><g><path d="M0.0247411 20.6726C0.0185559 20.6974 0.0154632 20.7221 0.0123706 20.7484C0.00773161 20.7778 0.00463896 20.8056 0.00309264 20.835C0.00309264 20.8427 0 20.8504 0 20.8597C0 20.8767 0.00463896 20.8922 0.00463896 20.9077C0.00618529 20.937 0.00773161 20.9649 0.0139169 20.9942C0.0185559 21.0205 0.0247411 21.0453 0.0309264 21.07C0.0371117 21.0948 0.0448433 21.1195 0.0541212 21.1442C0.0633992 21.169 0.0742234 21.1937 0.086594 21.2169C0.0974182 21.2401 0.109789 21.2618 0.123706 21.285C0.137623 21.3066 0.153086 21.3283 0.168549 21.3484C0.184012 21.37 0.201022 21.3901 0.219578 21.4102C0.236587 21.4288 0.256689 21.4473 0.275245 21.4643C0.295347 21.4813 0.313903 21.4983 0.335552 21.5138C0.358747 21.5308 0.383488 21.5447 0.408229 21.5602C0.422146 21.5679 0.434516 21.5788 0.44998 21.5865L19.912 31.3175C19.9197 31.3206 19.9274 31.3221 19.9336 31.3252C19.9445 31.3299 19.9537 31.336 19.9646 31.3407C19.9738 31.3453 19.9847 31.3469 19.9955 31.3515C20.0109 31.3577 20.028 31.3623 20.0434 31.367C20.0589 31.3716 20.0743 31.3763 20.0898 31.3793C20.0991 31.3809 20.1068 31.3855 20.1161 31.3871C20.1254 31.3886 20.1346 31.3886 20.1439 31.3902C20.1609 31.3933 20.1779 31.3948 20.1965 31.3964C20.2151 31.3979 20.2336 31.3994 20.2506 31.3994C20.2661 31.3994 20.2831 31.3994 20.2986 31.3994C20.3171 31.3994 20.3341 31.3979 20.3527 31.3964C20.3697 31.3948 20.3867 31.3917 20.4053 31.3902C20.4145 31.3886 20.4238 31.3886 20.4331 31.3871C20.4424 31.3855 20.4501 31.3824 20.4594 31.3793C20.4748 31.3763 20.4903 31.3716 20.5058 31.367C20.5212 31.3623 20.5382 31.3561 20.5537 31.3515C20.5645 31.3484 20.5738 31.3453 20.5846 31.3407C20.5955 31.336 20.6047 31.3299 20.6156 31.3252C20.6233 31.3221 20.631 31.3206 20.6372 31.3175L40.0992 21.5865C40.1147 21.5788 40.1255 21.5679 40.141 21.5602C40.1657 21.5463 40.1904 21.5308 40.2136 21.5138C40.2353 21.4983 40.2538 21.4813 40.2739 21.4643C40.294 21.4473 40.3126 21.4288 40.3296 21.4102C40.3482 21.3901 40.3636 21.37 40.3806 21.3484C40.3961 21.3283 40.4116 21.3066 40.4255 21.285C40.4394 21.2633 40.4502 21.2401 40.4626 21.2169C40.475 21.1937 40.4858 21.169 40.4951 21.1442C40.5043 21.1195 40.5121 21.0948 40.5183 21.07C40.5244 21.0453 40.5306 21.0205 40.5353 20.9942C40.5399 20.9649 40.5415 20.937 40.5445 20.9077C40.5461 20.8922 40.5492 20.8767 40.5492 20.8597C40.5492 20.852 40.5476 20.8443 40.5461 20.835C40.5445 20.8056 40.5415 20.7778 40.5368 20.7484C40.5337 20.7236 40.5306 20.6974 40.5244 20.6726C40.5183 20.6494 40.5105 20.6247 40.5028 20.6015C40.4935 20.5737 40.4842 20.5443 40.4703 20.518C40.4672 20.5102 40.4657 20.5025 40.4626 20.4963L30.73 1.03437C30.7254 1.02509 30.7177 1.01891 30.713 1.01118C30.6852 0.960148 30.6527 0.912212 30.6141 0.868915C30.6048 0.858091 30.5971 0.847266 30.5878 0.837988C30.5429 0.791599 30.4919 0.749848 30.4362 0.714282C30.4223 0.705004 30.4084 0.698818 30.3945 0.691087C30.3496 0.666346 30.3017 0.646244 30.2522 0.629235C30.2352 0.623049 30.2182 0.61841 30.2012 0.613771C30.1393 0.598308 30.076 0.587484 30.011 0.587484C30.0079 0.587484 30.0064 0.585938 30.0048 0.585938C29.9971 0.585938 29.9878 0.58903 29.9801 0.58903C29.929 0.590576 29.8796 0.595215 29.8316 0.60604C29.8162 0.609132 29.8007 0.616864 29.7852 0.619957C29.7435 0.632327 29.7033 0.646244 29.6646 0.663254C29.6584 0.666346 29.6507 0.667893 29.6445 0.670985C29.6291 0.678717 29.6182 0.689542 29.6028 0.697273C29.578 0.71119 29.5533 0.726653 29.5301 0.743663C29.5085 0.759126 29.4899 0.776135 29.4698 0.793144C29.4497 0.810154 29.4311 0.82871 29.4141 0.847266C29.3956 0.867368 29.3801 0.887471 29.3631 0.909119C29.3476 0.92922 29.3322 0.95087 29.3183 0.972517C29.3043 0.994166 29.2935 1.01736 29.2811 1.04056C29.2688 1.06375 29.2579 1.08849 29.2487 1.11323C29.2394 1.13797 29.2332 1.16272 29.2255 1.18746C29.2193 1.2122 29.2131 1.23694 29.2085 1.26323C29.2038 1.29261 29.2023 1.32044 29.1992 1.34982C29.1976 1.36528 29.1945 1.38075 29.1945 1.39776V18.9021L20.8491 10.5566C20.8104 10.518 20.7686 10.4839 20.7238 10.4546C20.7052 10.4422 20.6836 10.4329 20.6635 10.4221C20.6372 10.4082 20.6125 10.3927 20.5846 10.3803C20.5583 10.3695 20.5305 10.3633 20.5042 10.3556C20.481 10.3494 20.4578 10.3401 20.4346 10.3355C20.3821 10.3247 20.3295 10.32 20.2754 10.32C20.2228 10.32 20.1687 10.3262 20.1161 10.3355C20.0914 10.3401 20.0697 10.3494 20.045 10.3556C20.0171 10.3633 19.9908 10.3695 19.9646 10.3803C19.9367 10.3912 19.912 10.4082 19.8857 10.4221C19.8656 10.4329 19.8455 10.4422 19.8254 10.4546C19.7805 10.4839 19.7388 10.518 19.7001 10.5566L11.3546 18.9021V1.39776C11.3546 1.38075 11.35 1.36528 11.35 1.34982C11.3485 1.32044 11.3469 1.29261 11.3407 1.26323C11.3361 1.23694 11.3299 1.2122 11.3237 1.18746C11.3175 1.16272 11.3098 1.13797 11.3005 1.11323C11.2912 1.08849 11.2804 1.06375 11.268 1.04056C11.2572 1.01736 11.2448 0.995712 11.2309 0.972517C11.217 0.95087 11.2016 0.92922 11.1861 0.909119C11.1706 0.887471 11.1536 0.867368 11.1351 0.847266C11.1181 0.82871 11.0979 0.810154 11.0794 0.793144C11.0593 0.776135 11.0407 0.759126 11.0191 0.743663C10.9959 0.726653 10.9712 0.712736 10.9464 0.697273C10.9325 0.689542 10.9201 0.678717 10.9047 0.670985C10.8985 0.667893 10.8907 0.666346 10.8846 0.663254C10.8459 0.644698 10.8057 0.632327 10.7655 0.619957C10.7485 0.615318 10.733 0.607586 10.716 0.604493C10.6681 0.593669 10.6201 0.58903 10.5691 0.587484C10.5614 0.58903 10.5521 0.585938 10.5444 0.585938C10.5413 0.585938 10.5397 0.587484 10.5382 0.587484C10.4717 0.587484 10.4083 0.598308 10.348 0.613771C10.331 0.61841 10.314 0.624596 10.297 0.629235C10.2475 0.644698 10.1995 0.666346 10.1547 0.691087C10.1408 0.698818 10.1269 0.705004 10.1129 0.714282C10.0573 0.749848 10.0062 0.790052 9.9614 0.837988C9.95213 0.847266 9.94439 0.859637 9.93511 0.868915C9.89646 0.912212 9.86398 0.960148 9.83615 1.01118C9.83151 1.02045 9.82378 1.02664 9.81914 1.03437L0.086594 20.4963C0.0835014 20.5041 0.081955 20.5102 0.0788624 20.518C0.0664918 20.5443 0.0572139 20.5737 0.0463896 20.6015C0.038658 20.6247 0.0309264 20.6479 0.0247411 20.6726ZM10.2073 21.67L16.1668 27.6295L4.24774 21.67H10.2073ZM30.3404 21.67H36.2999L24.3808 27.6295L30.3404 21.67ZM30.8151 20.0479V4.83214L38.423 20.0479H30.8151ZM21.0841 28.6315V13.0848L28.8574 20.8582L21.0841 28.6315ZM19.4635 28.6315L11.6902 20.8582L19.4635 13.0848V28.6315ZM2.12465 20.0479L9.73255 4.83214V20.0479H2.12465Z" fill="currentColor"></path></g><g clip-path="url(#clip1)"><path d="M49.431 9.4937C49.3506 9.21536 49.5099 9.01434 49.7897 9.01434H51.6237C51.7829 9.01434 51.9422 9.1535 51.9824 9.29267L54.056 17.25H54.1349L57.3049 9.03444C57.3451 8.91537 57.444 8.81641 57.6435 8.81641H58.0022C58.2017 8.81641 58.3007 8.91537 58.3409 9.03444L61.5356 17.25H61.616L63.6494 9.29267C63.6896 9.1535 63.8489 9.01434 64.0082 9.01434H65.8421C66.1204 9.01434 66.2813 9.21381 66.2009 9.4937L62.4325 22.8941C62.3923 23.0533 62.233 23.1724 62.0737 23.1724H61.7552C61.5758 23.1724 61.4567 23.0719 61.4165 22.9528L57.8476 13.9208H57.7486L54.2184 22.9528C54.1581 23.0719 54.0792 23.1724 53.8798 23.1724H53.5612C53.4019 23.1724 53.2427 23.0518 53.2025 22.8941L49.431 9.4937Z" fill="currentColor"></path><path d="M70.1484 9.39447C70.1484 9.195 70.3278 9.01562 70.5273 9.01562H72.3813C72.5808 9.01562 72.7602 9.195 72.7602 9.39447V22.5955C72.7602 22.7949 72.5808 22.9743 72.3813 22.9743H70.5273C70.3278 22.9743 70.1484 22.7949 70.1484 22.5955V9.39447Z" fill="currentColor"></path><path d="M78.0797 9.17515C78.0797 8.97568 78.2591 8.81641 78.4585 8.81641H78.9564L87.2509 17.6289H87.271V9.39473C87.271 9.19526 87.4303 9.01588 87.6499 9.01588H89.4838C89.6833 9.01588 89.8627 9.19526 89.8627 9.39473V22.8137C89.8627 23.0131 89.6833 23.1724 89.4838 23.1724H89.0044L80.6698 14.0198H80.6497V22.5941C80.6497 22.7936 80.4904 22.9729 80.2708 22.9729H78.457C78.2575 22.9729 78.0781 22.7936 78.0781 22.5941V9.17515H78.0797Z" fill="currentColor"></path><path d="M97.0236 11.4078H93.9726C93.753 11.4078 93.5938 11.2284 93.5938 11.0289V9.39447C93.5938 9.195 93.753 9.01562 93.9726 9.01562H102.686C102.906 9.01562 103.065 9.195 103.065 9.39447V11.0289C103.065 11.2284 102.906 11.4078 102.686 11.4078H99.6353V22.5939C99.6353 22.7934 99.4559 22.9728 99.2565 22.9728H97.4024C97.2029 22.9728 97.0236 22.7934 97.0236 22.5939V11.4078Z" fill="currentColor"></path><path d="M106.789 9.39447C106.789 9.195 106.948 9.01562 107.168 9.01562H115.283C115.503 9.01562 115.662 9.195 115.662 9.39447V11.0289C115.662 11.2284 115.503 11.4078 115.283 11.4078H109.381V14.6783H114.306C114.505 14.6783 114.685 14.8576 114.685 15.0571V16.7117C114.685 16.9312 114.505 17.0905 114.306 17.0905H109.381V20.5806H115.283C115.503 20.5806 115.662 20.76 115.662 20.9595V22.5955C115.662 22.7949 115.503 22.9743 115.283 22.9743H107.168C106.948 22.9743 106.789 22.7949 106.789 22.5955V9.39447Z" fill="currentColor"></path><path d="M120.328 9.39447C120.328 9.195 120.487 9.01562 120.707 9.01562H126.41C128.802 9.01562 130.757 10.93 130.757 13.3036C130.757 15.1375 129.54 16.6328 127.806 17.3317L130.538 22.396C130.678 22.6558 130.538 22.9743 130.2 22.9743H128.106C127.927 22.9743 127.828 22.8753 127.788 22.7949L125.136 17.5111H122.923V22.5955C122.923 22.7949 122.743 22.9743 122.544 22.9743H120.71C120.49 22.9743 120.331 22.7949 120.331 22.5955V9.39447H120.328ZM126.19 15.3756C127.246 15.3756 128.165 14.4587 128.165 13.3422C128.165 12.2861 127.248 11.4078 126.19 11.4078H122.94V15.3756H126.19Z" fill="currentColor"></path><path d="M136.7 9.11485C136.72 8.95558 136.839 8.81641 137.059 8.81641H137.377C137.537 8.81641 137.656 8.89527 137.716 9.01588L142.103 18.4283C142.143 18.4283 142.143 18.4283 142.163 18.4283L146.55 9.01588C146.61 8.89682 146.709 8.81641 146.889 8.81641H147.207C147.427 8.81641 147.546 8.95558 147.566 9.11485L149.919 22.5137C149.979 22.792 149.819 22.9729 149.56 22.9729H147.747C147.568 22.9729 147.408 22.8137 147.368 22.6745L146.191 15.1177C146.171 15.1177 146.131 15.1177 146.131 15.1177L142.641 22.9544C142.601 23.0735 142.482 23.174 142.302 23.174H141.945C141.766 23.174 141.667 23.0735 141.607 22.9544L138.076 15.1177C138.076 15.1177 138.036 15.1177 138.016 15.1177L136.859 22.6745C136.839 22.8137 136.68 22.9729 136.501 22.9729H134.705C134.446 22.9729 134.286 22.7936 134.326 22.5137L136.7 9.11485Z" fill="currentColor"></path><path d="M154.027 9.39447C154.027 9.195 154.207 9.01562 154.406 9.01562H156.3C156.52 9.01562 156.679 9.195 156.679 9.39447V17.5498C156.679 19.2446 157.836 20.5806 159.571 20.5806C161.306 20.5806 162.483 19.2446 162.483 17.5699V9.39447C162.483 9.195 162.642 9.01562 162.861 9.01562H164.756C164.955 9.01562 165.135 9.195 165.135 9.39447V17.6889C165.135 20.7198 162.722 23.1722 159.571 23.1722C156.441 23.1722 154.027 20.7198 154.027 17.6889V9.39447Z" fill="currentColor"></path><path d="M172.199 11.4078H169.148C168.929 11.4078 168.77 11.2284 168.77 11.0289V9.39447C168.77 9.195 168.929 9.01562 169.148 9.01562H177.862C178.082 9.01562 178.241 9.195 178.241 9.39447V11.0289C178.241 11.2284 178.082 11.4078 177.862 11.4078H174.811V22.5939C174.811 22.7934 174.632 22.9728 174.432 22.9728H172.578C172.379 22.9728 172.199 22.7934 172.199 22.5939V11.4078Z" fill="currentColor"></path><path d="M181.961 9.39447C181.961 9.195 182.12 9.01562 182.34 9.01562H190.455C190.674 9.01562 190.834 9.195 190.834 9.39447V11.0289C190.834 11.2284 190.674 11.4078 190.455 11.4078H184.553V14.6783H189.478C189.677 14.6783 189.856 14.8576 189.856 15.0571V16.7117C189.856 16.9312 189.677 17.0905 189.478 17.0905H184.553V20.5806H190.455C190.674 20.5806 190.834 20.76 190.834 20.9595V22.5955C190.834 22.7949 190.674 22.9743 190.455 22.9743H182.34C182.12 22.9743 181.961 22.7949 181.961 22.5955V9.39447Z" fill="currentColor"></path></g></svg>