<svg xmlns="http://www.w3.org/2000/svg" fill="none" height="26" viewbox="0 0 147 26" width="147"><g><path d="M44.4126 20.3766H47.4501V14.4328L52.8312 5.69531H49.3625L45.9313 11.5641L42.5376 5.69531H39.0312L44.4126 14.5641V20.3766Z" fill="#353F52"></path><path d="M61.7133 16.1774C61.732 15.9524 61.7508 15.5961 61.7508 15.1274C61.7508 13.6461 61.282 12.4274 60.3633 11.5086C59.4445 10.5899 58.2445 10.1211 56.7633 10.1211C55.3195 10.1211 54.0633 10.6274 53.0133 11.6586C51.982 12.6899 51.457 13.9086 51.457 15.3524C51.457 16.8899 51.982 18.1461 53.032 19.1399C54.1008 20.1149 55.3945 20.6024 56.9508 20.6024C58.9945 20.6024 60.4195 19.8524 61.2633 18.3336L59.1445 16.9461C58.6945 17.6774 57.7945 18.1461 56.9133 18.1461C55.657 18.1461 54.607 17.3961 54.4383 16.1774H61.7133ZM54.5133 14.2461C54.5695 13.8524 54.7945 13.4586 55.1883 13.0836C55.582 12.6899 56.0883 12.5024 56.6883 12.5024C58.0195 12.5024 58.7508 13.3649 58.8258 14.2461H54.5133Z" fill="#353F52"></path><path d="M66.7757 5.09766H63.832V20.3789H66.7757V5.09766Z" fill="#353F52"></path><path d="M72.4165 5.09766H69.4727V20.3789H72.4165V5.09766Z" fill="#353F52"></path><path d="M74.4922 15.3906C74.4922 16.8906 75.0172 18.1281 76.0672 19.1218C77.1172 20.1156 78.411 20.6031 79.9485 20.6031C81.4672 20.6031 82.761 20.0968 83.8297 19.1031C84.8985 18.0906 85.4235 16.8343 85.4235 15.3343C85.4235 13.8531 84.8985 12.6343 83.8485 11.6406C82.7985 10.6468 81.5047 10.1406 79.986 10.1406C78.4672 10.1406 77.1547 10.6468 76.086 11.6593C75.0172 12.6531 74.4922 13.9093 74.4922 15.3906ZM77.4922 15.3531C77.4922 14.6218 77.736 14.0031 78.2047 13.5343C78.6735 13.0468 79.2547 12.8031 79.9485 12.8031C80.6422 12.8031 81.2422 13.0468 81.711 13.5343C82.1797 14.0031 82.4235 14.6218 82.4235 15.3531C82.4235 16.8531 81.3735 17.9218 79.9672 17.9218C79.2735 17.9218 78.6735 17.6781 78.2047 17.2093C77.736 16.7218 77.4922 16.1031 77.4922 15.3531Z" fill="#353F52"></path><path d="M97.7648 16.6297L95.8899 10.3672H93.1898L91.3149 16.5734H91.2961L89.4961 10.3672H86.4961L89.6086 20.3797H92.4398L94.5024 13.9859H94.5211L96.5649 20.3797H99.4336L102.583 10.3672H99.6586L97.7648 16.6297Z" fill="#353F52"></path><path d="M117.318 15.596C116.999 16.4398 116.493 17.2835 115.574 18.2398C114.655 19.196 113.155 19.8335 111.43 19.8335C109.574 19.8335 108.037 19.1585 106.818 17.8273C105.618 16.496 105.018 14.8835 105.018 12.9898C105.018 11.1148 105.618 9.52109 106.818 8.20859C108.037 6.89609 109.555 6.23984 111.412 6.23984C113.062 6.23984 114.487 6.80234 115.405 7.68359C116.324 8.52734 116.924 9.44609 117.28 10.4398L117.955 10.1211C117.58 9.01484 116.887 7.98359 115.837 7.06484C114.805 6.14609 113.23 5.52734 111.449 5.52734C109.368 5.52734 107.643 6.25859 106.274 7.72109C104.905 9.16484 104.23 10.946 104.23 13.046C104.23 15.1648 104.905 16.9273 106.255 18.371C107.605 19.8148 109.33 20.5273 111.412 20.5273C113.23 20.5273 114.862 19.8898 115.893 18.9335C116.943 17.9773 117.618 16.9648 117.993 15.9148L117.318 15.596Z" fill="#353F52"></path><path d="M127.799 20.3766V14.0766C127.799 11.6016 126.299 10.1953 123.974 10.1953C122.043 10.1953 120.674 11.1141 119.999 12.5578L120.655 12.9328C121.349 11.5641 122.455 10.8891 123.993 10.8891C125.962 10.8891 127.049 12.1078 127.049 14.1328V14.8266H123.805C122.755 14.8266 121.837 15.0703 121.049 15.5578C120.28 16.0266 119.887 16.7391 119.887 17.6953C119.887 18.6141 120.205 19.3078 120.843 19.8141C121.48 20.3016 122.287 20.5453 123.243 20.5453C124.837 20.5453 126.299 19.6828 127.049 18.1641V20.3766H127.799ZM127.068 16.2703C127.068 17.3391 126.693 18.2203 125.962 18.8766C125.23 19.5328 124.33 19.8516 123.262 19.8516C121.743 19.8516 120.655 19.0828 120.655 17.6766C120.655 16.9453 120.974 16.4016 121.612 16.0453C122.268 15.6891 122.999 15.5016 123.843 15.5016H127.068V16.2703Z" fill="#353F52"></path><path d="M135.681 10.2344C134.856 10.2344 134.087 10.4969 133.394 11.0218C132.7 11.5281 132.212 12.1843 131.95 12.9718V10.3656H131.219V20.3781H131.95V15.3343C131.95 14.1156 132.287 13.1031 132.944 12.2593C133.6 11.4156 134.537 10.9843 135.719 10.9843H135.869V10.2531C135.831 10.2344 135.775 10.2344 135.681 10.2344Z" fill="#353F52"></path><path d="M146.241 20.3797V5.11719H145.528V13.0484C144.797 11.3422 143.241 10.1984 141.291 10.1984C139.885 10.1984 138.741 10.7047 137.822 11.7172C136.903 12.7109 136.453 13.9297 136.453 15.3547C136.453 16.7797 136.903 17.9984 137.785 19.0109C138.685 20.0234 139.847 20.5297 141.291 20.5297C142.247 20.5297 143.11 20.2672 143.86 19.7234C144.628 19.1797 145.172 18.4859 145.528 17.6422V20.3797H146.241ZM141.328 19.8172C140.11 19.8172 139.116 19.3859 138.347 18.5422C137.578 17.6797 137.203 16.6109 137.203 15.3359V15.3172C137.203 14.0609 137.578 13.0109 138.347 12.1672C139.116 11.3234 140.11 10.9109 141.328 10.9109C142.566 10.9109 143.578 11.3609 144.366 12.2422C145.153 13.1234 145.547 14.1547 145.547 15.3359V15.3922C145.547 16.5922 145.153 17.6234 144.347 18.5047C143.56 19.3859 142.547 19.8172 141.328 19.8172Z" fill="#353F52"></path><path d="M2.65722 6.50549C2.75712 5.93893 3.29739 5.56063 3.86395 5.66053L23.166 9.06401C23.7326 9.16391 24.1109 9.70417 24.011 10.2707L21.5338 24.3194C21.4339 24.8859 20.8937 25.2642 20.3271 25.1643L1.02501 21.7609C0.458461 21.661 0.0801627 21.1207 0.180062 20.5541L2.65722 6.50549Z" fill="#677185"></path><path d="M8.36013 3.64661C8.55689 3.10601 9.15464 2.82728 9.69524 3.02404L28.1131 9.72757C28.6537 9.92434 28.9324 10.5221 28.7356 11.0627L23.8566 24.4678C23.6598 25.0084 23.0621 25.2872 22.5215 25.0904L4.10364 18.3869C3.56304 18.1901 3.28431 17.5923 3.48107 17.0517L8.36013 3.64661Z" fill="#50596B"></path><path d="M14.9443 1.48976C15.2319 0.991536 15.869 0.820833 16.3672 1.10848L33.3412 10.9083C33.8394 11.196 34.0101 11.8331 33.7224 12.3313L26.5897 24.6855C26.3021 25.1837 25.665 25.3544 25.1668 25.0668L8.19289 15.2669C7.69466 14.9792 7.52396 14.3421 7.81161 13.8439L14.9443 1.48976Z" fill="#121D33"></path></g></svg>