<svg fill="none" height="29" viewbox="0 0 128 29" width="128"><g><path d="M44 20.9539L50.983 9.35794H44.778V6.78994H55.673V7.17694L48.833 18.7729H55.427V21.3619H44V20.9539ZM59.505 6.78994H69.048V9.35794H62.802V12.7609H67.799V15.1659H62.802V18.7939H69.375V21.3619H59.505V6.78994ZM73.401 6.78994H78.644C79.504 6.78994 80.282 6.87794 80.978 7.05494C81.675 7.23094 82.268 7.50294 82.76 7.86994C83.251 8.23694 83.627 8.69894 83.886 9.25594C84.159 9.81294 84.296 10.4659 84.296 11.2119V11.2939C84.296 11.8509 84.221 12.3399 84.071 12.7609C83.921 13.1819 83.709 13.5489 83.436 13.8609C83.1599 14.1764 82.8347 14.4452 82.473 14.6569C82.1004 14.8762 81.7016 15.0476 81.286 15.1669L85.156 21.3619H81.634L78.132 15.7369H76.698V21.3619H73.401V6.78994ZM78.561 13.4949C79.395 13.4949 80.016 13.3179 80.425 12.9649C80.849 12.6119 81.06 12.0889 81.06 11.3949V11.3149C81.06 10.5669 80.842 10.0509 80.405 9.76494C79.982 9.46594 79.367 9.31694 78.562 9.31694H76.698V13.4949H78.562H78.561ZM88.94 6.78994H92.278V21.3619H88.94V6.78994ZM104.034 18.9559C104.648 18.9559 105.201 18.8409 105.693 18.6099C106.191 18.3845 106.632 18.0503 106.983 17.6319C107.324 17.2249 107.591 16.7219 107.782 16.1239C107.98 15.4771 108.076 14.8034 108.068 14.1269V13.9639C108.068 13.2569 107.973 12.6119 107.782 12.0279C107.623 11.479 107.358 10.9665 107.003 10.5189C106.652 10.1006 106.211 9.76636 105.713 9.54094C105.208 9.31094 104.635 9.19494 103.993 9.19494C103.351 9.19494 102.778 9.30994 102.273 9.54094C101.781 9.75894 101.358 10.0709 101.003 10.4789C100.648 10.8989 100.375 11.4089 100.184 12.0069C100.007 12.5909 99.918 13.2499 99.918 13.9839V14.1469C99.918 14.8939 100.02 15.5669 100.225 16.1649C100.43 16.7489 100.717 17.2449 101.085 17.6529C101.44 18.0729 101.87 18.3999 102.375 18.6309C102.9 18.8523 103.464 18.9632 104.034 18.9569V18.9559ZM103.973 21.5859C102.826 21.5859 101.788 21.4029 100.86 21.0359C99.932 20.6559 99.147 20.1319 98.505 19.4659C97.8406 18.8002 97.324 18.0018 96.989 17.1229C96.6283 16.1799 96.4478 15.1776 96.457 14.1679V14.0039C96.457 12.9179 96.641 11.9189 97.01 11.0089C97.3739 10.1253 97.9178 9.327 98.607 8.66494C99.2902 8.00335 100.098 7.48368 100.983 7.13594C101.897 6.76894 102.901 6.58594 103.993 6.58594C105.099 6.58594 106.109 6.76294 107.024 7.11594C107.952 7.46894 108.751 7.96594 109.42 8.60394C110.083 9.26746 110.605 10.0575 110.956 10.9269C111.338 11.8239 111.529 12.8219 111.529 13.9229V14.0859C111.529 15.1729 111.345 16.1779 110.976 17.1019C110.638 17.9854 110.123 18.79 109.461 19.4659C108.785 20.1462 107.976 20.6805 107.085 21.0359C106.157 21.4029 105.119 21.5859 103.973 21.5859ZM115.631 6.78994H119.481L125.051 16.3889V6.78894H128V21.3619H124.682L118.58 10.9879V21.3619H115.631V6.78994Z" fill="#121D33"></path><path d="M23.488 0.585938H4.512C2.02009 0.585938 0 2.60603 0 5.09794V24.0739C0 26.5658 2.02009 28.5859 4.512 28.5859H23.488C25.9799 28.5859 28 26.5658 28 24.0739V5.09794C28 2.60603 25.9799 0.585938 23.488 0.585938Z" fill="#121D33"></path><path clip-rule="evenodd" d="M12.1078 19.9474L13.9898 17.2484L10.0508 17.2634L6.96779 21.5964C6.75779 21.9274 6.84379 22.3204 6.84379 22.3204C6.84379 22.5574 7.06779 22.7704 7.31779 22.7704H21.0178C21.1098 22.7704 21.1848 22.7004 21.1848 22.6124C21.1848 22.5904 21.18 22.5686 21.1709 22.5486C21.1617 22.5286 21.1484 22.5108 21.1318 22.4964L18.3388 20.0364C18.3074 20.0094 18.2672 19.9948 18.2258 19.9954H12.1078C12.1078 19.9954 12.0668 20.0024 12.1078 19.9474ZM15.8878 9.20737L13.9728 11.8614L17.8098 11.8824C19.5328 9.44337 20.9948 7.37437 21.0648 7.26937C21.2168 7.04437 21.1788 6.80437 21.1788 6.80437C21.1788 6.57037 20.9538 6.35938 20.7038 6.35938H6.99079C6.84279 6.35938 6.76879 6.52737 6.87279 6.62637L9.43879 9.05237C9.46879 9.08237 9.51279 9.09937 9.55679 9.09937H12.1208L15.8868 9.11438C15.8868 9.11438 15.9588 9.10837 15.8868 9.20737H15.8878Z" fill="white" fill-rule="evenodd"></path></g></svg>